<svg xmlns="http://www.w3.org/2000/svg" width="181" height="43" viewBox="0 0 181 43"><g><g><path fill="#263a41" d="M68.779 24.332c.333-.331.708-.62 1.085-.91 1.88-1.777 1.504-1.24 3.383-3.016 1.1-1.011 2.236-1.948 3.376-2.916-.682-.53-.918-1.265-.706-2.208v-.123c.793-2.398 2.13-4.423 4.26-5.869.459-.33.96-.537 1.544-.496.71.082 1.086.413 1.086 1.116.042.33-.041.662-.125.991-.376 1.323-1.002 2.48-1.92 3.472l-2.005 2.107c.334.413.834.538 1.252.703.418.164.794.247 1.17.413 1.21.537 1.628 1.446 1.21 2.686-.333 1.032-.71 2.066-1.043 3.099-.125.289-.292.62-.084 1.034l.877-.538c2.59-1.818 5.095-3.802 7.475-5.827.243-.24.525-.441.77-.641a69.158 69.158 0 0 1 2.318-3.49c.167-.208.292-.456.46-.703-1.086-.248-2.09.413-3.216-.165.333-.165.543-.331.835-.414a32.84 32.84 0 0 0 2.005-.33c1.253-.249 1.253-.207 2.046-1.198.543-.785 1.127-1.53 1.753-2.315.167-.206.46-.495.71-.66.292-.29.292-.29.96-.124-.124.743-.668 1.24-1.001 1.86-.335.619-.71 1.197-1.128 1.858.418.166.793.249 1.253.372-.418.455-.878.497-1.294.578-.377.042-.626.166-.836.497-1.92 3.43-4.01 6.817-5.513 10.412-.083.331-.208.662-.333.993.084.04.125.081.208.081.71-.495 1.42-.908 2.088-1.445 2.297-1.86 4.635-3.719 6.891-5.578.376-.331.71-.662 1.294-.455.126.455-.167.703-.417.909-.836.908-1.67 1.819-2.506 2.685-.919.91-1.796 1.86-2.757 2.645-.875.785-1.836 1.447-2.838 2.067-.585.371-1.212.62-1.88.825-.334.166-.752.166-1.086.166-1.378-.04-1.796-.537-1.42-1.819.293-1.032.71-2.065 1.17-3.099.216-.477.444-.95.684-1.417l-3.271 3.236c-.918.868-1.796 1.736-2.881 2.356-.835.495-1.755.62-2.714.495-1.336-.166-2.005-1.115-1.67-2.397.208-.66.5-1.28.75-1.9.251-.62.543-1.198.794-1.778.084-.206.126-.454.167-.702.043-.537-.208-.826-.71-.991-.334-.083-.667-.124-1.002-.248-.269-.08-.554-.16-.824-.262a3.095 3.095 0 0 1-.092.096c-2.381 2.273-4.677 4.752-7.266 6.777-.418.33-.96.537-1.504.702-.25.083-.626.083-.92 0-.793-.123-1.126-.537-1.085-1.363.043-.62.168-1.198.292-1.818 0-.207.043-.455-.04-.744l-.627.786a181.757 181.757 0 0 1-2.715 3.222c-.417.454-.96.868-1.503 1.24-1.128.785-2.423 1.116-3.843.868-1.377-.206-2.128-1.034-2.17-2.439 0-.701.124-1.446.334-2.106a14.06 14.06 0 0 1 2.88-5.166c.92-.991 2.006-1.653 3.383-1.86.126-.041.251-.041.418-.041 1.002-.083 1.587.413 1.587 1.405 0 .744-.126 1.487-.25 2.232-.084.372-.21.744-.376 1.074-.126.248-.334.495-.543.743-.21.166-.418.208-.71-.04.084-.166.125-.331.166-.537.251-.951.502-1.86.67-2.77.124-.537.083-1.115-.419-1.569-1.294.29-2.17 1.075-2.923 2.066a11.549 11.549 0 0 0-2.088 4.669c-.167.66-.124 1.363-.083 2.025 0 .33.167.66.334.95.208.455.543.578 1.044.372a8.764 8.764 0 0 0 1.461-.909c1.378-1.158 2.506-2.438 3.634-3.802l3.883-4.67c.418-.537.96-.66 1.587-.495.292.041.459.248.418.578-.084.456-.21.91-.376 1.364-.418 1.406-.877 2.768-1.295 4.133-.125.412-.125.867-.208 1.28zm12.61-14.545c-1.255 1.197-1.965 2.562-2.549 3.966-.208.537-.46 1.032-.292 1.653 1.796-1.405 3.048-3.76 2.84-5.62zm33.233 4.132c-.21.206-.293.33-.418.412a4.152 4.152 0 0 0-1.253 2.645c-.167 1.694.167 3.347.46 5.083.334-.206.542-.289.75-.455 2.091-1.417 4.146-2.869 6.196-4.324a70.17 70.17 0 0 1 2.239-3.36c.166-.209.292-.457.459-.704-1.085-.248-2.089.413-3.215-.165.333-.165.542-.331.834-.414a32.855 32.855 0 0 0 2.006-.33c1.252-.249 1.252-.207 2.046-1.198.543-.785 1.126-1.53 1.753-2.315.167-.206.459-.495.71-.66.292-.29.292-.29.96-.124-.124.743-.668 1.24-1.001 1.86-.335.619-.71 1.197-1.128 1.858.418.166.793.249 1.252.372-.418.455-.877.497-1.293.578-.377.042-.627.166-.837.497-1.92 3.43-4.009 6.817-5.512 10.412-.084.331-.208.662-.333.993.083.04.125.081.208.081.71-.495 1.42-.909 2.088-1.445 2.237-1.812 4.514-3.623 6.716-5.434.242-.276.495-.545.759-.806.25-.289.543-.496.877-.66.333-.166.751-.249 1.17.164-.71 1.116-1.38 2.232-2.13 3.306-.794 1.199-1.547 2.438-1.922 3.801-.125.454-.292.91-.209 1.488a8.081 8.081 0 0 0 1.587-1.24c1.461-1.28 2.924-2.602 4.426-3.884.96-.826 2.005-1.57 3.007-2.313.376-.29.836-.497 1.336-.497.71 0 1.045.414.794 1.075-.46 1.198-1.002 2.396-1.461 3.594-.21.497-.377.951-.585 1.529.375.042.542-.164.71-.29l5.48-4.114c.626-.884 1.361-1.7 2.2-2.455.71-.661 1.588-1.115 2.548-1.363.251-.041.543-.083.794-.083 1.085-.041 1.753.62 1.795 1.693.041.291-.042.58-.083 1.076.292-.456.501-.745.667-1.076 1.546-2.519 3.09-5.04 5.054-7.23.836-.95 1.754-1.777 2.923-2.272.376-.166.835-.29 1.294-.331.793-.042 1.211.371 1.17 1.197 0 .373-.083.745-.21 1.076-.375.866-.71 1.817-1.252 2.561-1.504 2.15-3.048 4.256-4.593 6.364-1.044 1.363-2.38 2.52-3.676 3.718-.751.703-.751 1.034-.084 1.902.67.04 1.212-.29 1.714-.662 1.043-.868 2.13-1.736 3.173-2.602l2.966-2.562c.074-.06.15-.119.225-.176.182-.236.37-.467.564-.692.543-.662.71-.662 1.628-.414.167.331-.124.537-.292.826-.626 1.282-1.336 2.604-1.962 3.926-.292.58-.46 1.199-.668 1.819-.042.206 0 .454 0 .743a3.372 3.372 0 0 0 1.504-.454c1.294-.745 2.589-1.447 3.841-2.273a37.478 37.478 0 0 0 3.147-2.316c.298-.397.613-.782.945-1.154.793-.91 1.795-1.613 3.048-1.777.501-.083 1.044-.042 1.544.04.627.124 1.002.58 1.002 1.24v1.611a9.892 9.892 0 0 0 1.17-.289c1.63-.58 3.257-1.199 4.928-1.777.335-.165.71-.289 1.086-.37.167-.043.418.04.668.081-.46.661-.668.786-3.8 2.272-1.295.62-2.673 1.076-4.093 1.24l-1.252 2.81c-.502 1.075-1.128 2.067-1.963 2.893-1.295 1.281-2.881 1.57-4.594 1.156-1.086-.289-1.378-.908-1.337-1.776a9.237 9.237 0 0 1 .716-2.919c-.314.25-.636.493-.965.729-1.419 1.033-3.006 1.695-4.718 2.024a4.939 4.939 0 0 1-1.754.083c-1.044-.083-1.42-.66-1.212-1.694.126-.537.335-1.033.543-1.57.088-.222.18-.443.278-.662l-2.07 2.067c-1.044 1.074-2.339 1.611-3.842 1.694-.96.042-1.796-.083-2.547-.826l-.92.66c-1.293.868-2.63 1.53-4.174 1.695-.335 0-.627.041-.92 0-1.42-.165-2.13-.867-2.214-2.273 0-.579.084-1.156.294-1.693.024-.072.05-.143.075-.214-.384.35-.77.698-1.158 1.04a25.232 25.232 0 0 1-2.005 1.528 3.777 3.777 0 0 1-2.756.62c-.919-.164-1.21-.578-.878-1.446.502-1.24 1.087-2.439 1.63-3.678.166-.371.417-.743.543-1.363-.502.414-.92.66-1.253.992-1.503 1.445-2.966 2.933-4.47 4.42-.667.62-1.377 1.24-2.087 1.82-.626.494-1.42.702-2.254.62-.92-.084-1.296-.497-1.212-1.406.043-.703.167-1.405.418-1.984.166-.407.342-.808.529-1.204-.458.453-.92.89-1.405 1.287-.877.785-1.838 1.447-2.84 2.067-.585.371-1.211.62-1.879.825-.334.166-.752.166-1.086.166-1.378-.04-1.796-.537-1.42-1.819.293-1.032.71-2.065 1.17-3.099.248-.55.514-1.094.794-1.631l-1.294 1.054c-1.043.825-2.129 1.61-3.173 2.437-.543.413-.752.867-.71 1.57.125 2.77-.418 5.455-1.504 8.017-.418.95-1.001 1.859-1.879 2.52-.877.703-1.879.992-3.007.869-.877-.125-1.336-.497-1.377-1.364 0-.786.084-1.612.208-2.356.418-2.025 1.42-3.802 2.548-5.453.668-.91 1.42-1.778 2.129-2.645.377-.414.544-.786.501-1.364-.124-1.323-.167-2.604-.208-3.885 0-.661 0-1.322.125-1.942.208-1.364.877-2.438 2.046-3.181.376-.249.753-.497 1.379-.289zm31.734 2.52c.084.371-.167.496-.375.702-.38.354-.772.708-1.17 1.062a13.427 13.427 0 0 0-2.258 4.89c-.167.66-.125 1.362.375 2.024.376-.125.794-.165 1.128-.373a30.234 30.234 0 0 0 2.422-1.57c1.337-.992 1.337-.992 1.755-2.562 0-.082-.043-.123-.043-.206-.208-.041-.46-.124-.75-.206.124-.414.29-.786.417-1.158.166-.702.333-1.404.417-2.107.083-.496-.084-.91-.543-1.24a3.371 3.371 0 0 0-1.382.738l.007.006zm-35.494 11.115c-.416.414-.667.91-.96 1.364-.96 1.57-1.67 3.223-2.004 5-.084.455-.209.95 0 1.405.752-.455.96-.703 1.379-1.653.875-1.818 1.252-3.801 1.669-5.785.042-.083-.041-.165-.084-.331zm48.353-20c-.543.083-.96.414-1.294.786-.627.578-1.211 1.198-1.713 1.9-1.837 2.438-3.299 5.125-4.635 7.852l-.125.578c.167-.082.208-.082.25-.124 2.255-2.273 4.302-4.627 6.14-7.23a9.283 9.283 0 0 0 1.336-2.728c.084-.331.208-.66.041-1.034zm5.216 2.893c-.124.166-.249.372-.416.537l-2.005 2.19c-.5.497-.543.537-1.294.414.04-.165 0-.331.083-.496.25-.495.5-1.034.794-1.529.376-.62.96-1.074 1.67-1.322.458-.165.501-.165 1.168.206zm7.517 7.728c-.043-.414-.043-.703-.084-.992-.125-.579-.502-.785-1.002-.496-.46.289-.92.66-1.295 1.034-1.128 1.28-1.92 2.768-2.505 4.338-.335.826-.502 1.694-.752 2.561-.083.415-.083.869.292 1.24.751-.123 1.21-.702 1.712-1.24a11.723 11.723 0 0 0 2.673-4.751c-.208-.124-.334-.207-.46-.332-.25-.165-.458-.329-.417-.66.083-.33.334-.454.585-.496.376-.124.751-.124 1.253-.206zM7.768 32.053c-2.514 0-2.462-3.857.044-3.857zm9.324 8.934c-2.507 0-2.456-3.848.045-3.848zm17.776-4.605c-2.52 0-2.468-3.865.044-3.865zm-13.403-5.158c-2.56 0-2.512-3.929.041-3.929zm13.944-6.27c.036 1.031-.963 1.983-1.997 1.936l-.292-.014c-1.1-.051-1.904-.88-1.94-1.963-.038-1.091.96-1.873 1.983-1.92l.291-.014c1.106-.051 1.92.967 1.955 1.976zm-20.356-1.547c-2.52 0-2.468-3.865.044-3.865zm9.322-3.217c-2.46 0-2.405-3.775.049-3.775zm-2.332-8.38c-2.437 0-2.38-3.739.05-3.739zM8.591 15.55c-.06.117-.134.225-.223.323-.745.946-1.952 1.345-2.989.537-.852-.663-1.149-2.251-.178-3 .243-.188.482-.38.748-.535 1.707-.992 3.619 1.03 2.642 2.675zm24.239-1.045c-2.566 0-2.519-3.937.04-3.937zm9.902 5.938c-2.413 0-2.355-3.703.052-3.703zM1.37 24.204c-.927 0-.906-1.423.02-1.423zm13.405-8.028c-.986 0-.965-1.514.019-1.514zm-3.496-10.92c-1.034 0-1.014-1.587.017-1.587zm18.358-.028c-.998 0-.978-1.532.018-1.532zm4.953 12.606c-.893 0-.87-1.37.02-1.37zm-7.867 7.33c-1.05 0-1.03-1.613.017-1.613zm1.724 8.488c.266 1.384-1.947 1.383-1.677-.015l.053-.275c.15-.777 1.425-.746 1.571.016l.053.274zm-13.672.122c-.998 0-.977-1.532.018-1.532zm24.769-5.807c-.945 0-.924-1.451.019-1.451zM27.305 40.153c-1.045 0-1.025-1.604.017-1.604zm14.57-5.843c-.946 0-.925-1.45.018-1.45zM7.198 36.747c-1.115 0-1.097-1.712.016-1.712zM1.08 12.5c-1.08 0-1.06-1.658.017-1.658zM20.312 2.146c-1.115 0-1.097-1.712.016-1.712zm19.814 7.1c-.975 0-.954-1.495.019-1.495zm85.953 30.889c0 1.302-1.108 2.167-2.786 2.167h-2.388v-7.92h2.224c1.298 0 2.47.708 2.47 1.98 0 .777-.564 1.385-1.254 1.748.816.208 1.734.796 1.734 2.025zm-4.394-5.064v2.815h1.475c1.02 0 1.647-.64 1.647-1.423 0-.809-.565-1.392-1.938-1.392zm3.59 5.044c0-1.02-.962-1.572-1.867-1.572h-1.723v3.07h1.59c1.247 0 2-.476 2-1.498zm7.836-.802v2.99h-.778V39.3l-2.598-4.918h.874l1.85 3.572.305.65.303-.65 1.842-3.572h.869zm16.584.414h-3.21l-.963 2.575h-.804l3.02-7.92h.735l3.027 7.92h-.823zm-.24-.645l-.956-2.506-.425-1.229-.411 1.23-.938 2.505zm5.208 2.72c0-.439.28-.69.703-.69.406 0 .672.244.672.658 0 .433-.298.683-.703.683-.412 0-.672-.245-.672-.65zm10.66-.202v.702h-4.263v-7.92h.78V41.6zm4.101-7.218h.78v7.92h-.78zm11.572 0v7.92h-.734l-3.617-5.815c-.158-.269-.31-.545-.469-.82.02.382.033.764.051 1.14v5.495h-.779v-7.92h.748l3.559 5.72.532.96c-.02-.445-.045-.877-.07-1.323v-5.357z"/></g></g></svg>