<svg xmlns="http://www.w3.org/2000/svg" width="163" height="48" viewBox="0 0 163 48"><g><g><path fill="#263a41" d="M57.137 32.249a30.93 30.93 0 0 1-.432 1.904c.519-.849.939-1.746 1.527-2.555.57-.786 1.306-1.418 2.107-1.96.083-.057.197-.024.251.056.667.976.096 2.389-.63 3.188-1.005 1.108-2.62 1.373-3.603 2.516a30.604 30.604 0 0 1-.528 1.589c.028.002.056.025.044.056-.593 1.526-1.224 3.102-2.004 4.573l.007-.002c.95-.733 1.14-2.321 1.999-3.207.75-.775 1.776-1.155 2.842-1.158.111 0 .217.075.224.193.136 2.364-2.22 4.117-4.407 4.399a2.153 2.153 0 0 1-.75.144c-.046.02-.094.034-.142.047-.243.435-.497.861-.772 1.27-.035.051-.092.058-.145.047a4.972 4.972 0 0 1-.782 1.025l-.004.005a30.931 30.931 0 0 1-2.013 2.53c.352-.094.645-.228 1.026-.545.158-.132.302-.284.456-.42.444-.388.92-.75 1.448-1.02.914-.471 1.94-.627 2.93-.32.114.035.173.112.166.233-.14 2.316-3.563 2.384-5.242 2.323-.016 0-.027-.006-.04-.01-.256.051-.525.065-.783.05l-.084.008a.07.07 0 0 1-.053-.02c-.025-.002-.049-.007-.074-.01a.258.258 0 0 1-.142.05.257.257 0 0 1-.19-.43 30.304 30.304 0 0 0 7.828-20.346c0-1.27-.085-2.53-.24-3.775-.045-.011-.085-.036-.096-.09-.329-1.648-.61-3.29-.967-4.92a30.31 30.31 0 0 0-6.525-11.56.256.256 0 0 1-.049-.082c-.826-.603-1.884-1.053-2.509-1.825-.784-.968-1.078-2.197-.932-3.418.015-.127.115-.238.251-.23 2.733.174 4.416 3.115 4.435 5.661.031.13.05.264.062.395 1.193 1.143 2.22 2.468 2.951 3.95.018-.065.034-.13.046-.194a.122.122 0 0 1-.004-.116c.011-.022.025-.043.037-.065.166-1.524-1.13-3.108-1.185-4.684-.048-1.377.512-2.66 1.455-3.643.098-.102.26-.133.375-.035 2.301 1.972 1.828 5.694.147 7.958-.134.309-.32.603-.533.818-.042.11-.1.213-.17.31.203.448.372.912.52 1.384a30.793 30.793 0 0 1 1.856 4.374c.381-1.565.369-3.16.759-4.718.306-1.225.885-2.344 1.588-3.386.074-.109.226-.125.33-.055 1.28.854 1.277 2.834.79 4.15-.676 1.832-2.508 2.935-3.13 4.802a.216.216 0 0 1-.059.086c.506 1.535.911 3.1 1.19 4.686.281-.416.452-.79.542-1.45.034-.25.038-.509.066-.76.08-.723.213-1.449.467-2.133.44-1.189 1.244-2.184 2.4-2.728.134-.063.252-.042.346.074 1.803 2.224-1.258 5.133-2.836 6.474-.015.013-.03.017-.045.025-.19.258-.423.495-.671.695-.024.025-.047.053-.07.078a.09.09 0 0 1-.065.025c-.026.02-.052.035-.077.054.17 1.049.289 2.107.34 3.174a.149.149 0 0 1-.034.108c.084.722.101 1.464.062 2.21.64-.963.452-2.472 1.03-3.515.522-.943 1.413-1.578 2.442-1.858.107-.03.228.015.266.127.748 2.248-1.067 4.554-3.106 5.396a2.162 2.162 0 0 1-.66.324 14.216 14.216 0 0 1-.825 3.699zm4.058-7.092a1.91 1.91 0 0 1-.808.227c-.206.373-.419.742-.653 1.089.286-.122.574-.241.866-.344.005-.002.008 0 .012 0 .242-.3.44-.628.583-.972zm.25-1.085c-.15.089-.316.164-.477.216-.17.329-.345.663-.526.995a4.86 4.86 0 0 1 .712-.26c.033-.01.062.01.078.034.122-.317.191-.648.213-.985zm-.021-.649c-.1.183-.2.378-.3.57.104-.064.218-.107.333-.132 0-.145-.01-.291-.033-.438zm-1.283.403c.055.317.096.639.135.96.27-.537.529-1.1.908-1.557a3.323 3.323 0 0 0-1.043.597zm-.65.766c.105.4.164.836.178 1.247.13-.196.253-.394.367-.596l.028-.054a4.219 4.219 0 0 1-.06-1.238 3.336 3.336 0 0 0-.512.641zm-.958 3.026c.286-.55.655-1.064 1.006-1.585-.04-.01-.078-.036-.088-.09a6.046 6.046 0 0 1-.084-1.136c-.315.585-.506 1.274-.64 2.023a5.646 5.646 0 0 1-.194.788zm-.119.324l.015-.008c.638-.534 1.358-.923 1.941-1.528-.23.1-.476.162-.726.19-.361.515-.76.984-1.23 1.346zm2.145-9.175c-.21.081-.434.136-.649.16-.182.406-.377.839-.603 1.244.438-.454.88-.907 1.252-1.404zm.417-2.34c.115-.077.238-.143.367-.186-.037-.216-.095-.42-.18-.475-.046.22-.113.44-.187.661zm-.07.214c-.13.356-.279.71-.434 1.053.164-.134.346-.253.533-.334.108-.047.159.113.08.174-.2.155-.454.289-.701.358l-.273.59-.124.274c.246-.157.536-.286.81-.34.071-.113.148-.223.21-.342.204-.388.388-.824.391-1.269 0-.072-.008-.206-.025-.354-.096.05-.197.09-.302.119-.055.023-.109.05-.166.071zm-.936-.259c.016 0 .033.003.042.02.108.194.224.388.297.597.158-.425.318-.848.507-1.254-.28.082-.585.35-.846.637zm-.504.645c.172.317.372.665.44 1.014.113-.276.22-.554.324-.834-.003-.004-.007-.004-.01-.008-.15-.23-.216-.498-.297-.756l.001-.007c-.19.217-.352.434-.458.59zm-.551 1.108c.064.13.12.265.17.402.072.203.172.406.155.625a.099.099 0 0 1-.024.058l.051.139c.164-.297.325-.592.458-.886.047-.103.089-.21.133-.316-.044.031-.103.035-.14-.026-.173-.28-.262-.632-.344-.96a4.937 4.937 0 0 0-.46.964zm-.298 1.147c.009.005.019.009.025.02.114.186.237.384.333.59.045-.086.093-.17.14-.255a1.93 1.93 0 0 1-.137-.594c-.06-.137-.09-.289-.13-.433-.014-.054-.026-.107-.038-.16a8.29 8.29 0 0 0-.193.832zm-.332 2.062c.043-.06.092-.117.138-.175.09-.32.227-.636.381-.948a3.137 3.137 0 0 1-.242-.641c-.066.405-.116.815-.17 1.229-.026.195-.062.37-.107.535zm.39-8.602c-.187.161-.4.291-.618.41-.145.378-.305.745-.477 1.092.168-.184.338-.37.497-.561.268-.322.46-.633.598-.94zm.15-1.35c-.116.087-.22.187-.314.296-.093.387-.204.773-.337 1.149.194-.18.397-.351.626-.479.008-.004.014 0 .021-.002.213-.714.137-1.42-.065-2.196a8.922 8.922 0 0 1-.195 1.33.84.84 0 0 1 .225-.163c.039-.02.074.04.04.065zm-1.392-.26c.19.332.358.696.51 1.054.088-.286.158-.57.218-.854a5.108 5.108 0 0 1-.307-1.051c-.01-.06.07-.073.096-.029.109.18.214.374.307.573a23.02 23.02 0 0 0 .198-1.626.656.656 0 0 0-.145.27c-.34.24-.53.85-.69 1.201a7.46 7.46 0 0 0-.187.462zm-.427 1.626c.171.243.317.541.406.83.148-.363.297-.726.426-1.096a3.263 3.263 0 0 1-.468-1.203c-.169.476-.28.97-.364 1.47zm-.326 2.653c.04-.074.091-.142.137-.213.136-.47.316-.928.503-1.384-.003-.002-.006-.002-.008-.005a2.973 2.973 0 0 1-.355-.772c-.007.053-.02.106-.027.159-.09.724-.107 1.49-.25 2.215zm-3.158 31.088a2.101 2.101 0 0 1-.475-.259c-.332.144-.686.296-1.043.415.51-.032 1.023-.061 1.518-.156zm1.756-.94a1.176 1.176 0 0 1-.246-.095c-.046-.016-.093-.03-.138-.047a11.56 11.56 0 0 1-.836.392c.171.01.345.038.502.092.09.032.032.155-.048.148a1.742 1.742 0 0 1-.616-.17l-.485.205c-.073.03-.15.064-.225.097.233.04.477.12.67.238.105-.028.212-.052.314-.09.333-.12.683-.28.929-.545.04-.043.108-.128.179-.226zm.25-.525c-.15.106-.31.202-.475.293.11.017.22.044.321.09.097-.15.173-.304.153-.383zm-1.052-.283c.01.008.018.019.014.035-.042.174-.079.353-.15.519.328-.168.655-.334.99-.473-.212-.105-.541-.112-.854-.081zm-.655.11c-.071.283-.142.601-.292.847.218-.103.435-.21.65-.322 0-.004-.002-.007-.001-.01.036-.22.143-.417.237-.615 0-.002.002-.002.003-.004a5.11 5.11 0 0 0-.597.103zm-1.056.695c-.067.16-.119.337-.249.458a.077.077 0 0 1-.045.022l-.046.111c.26-.088.518-.177.76-.28.084-.036.167-.077.251-.116-.043-.005-.08-.036-.07-.092.05-.263.19-.522.321-.763-.287.08-.552.194-.803.326a3.158 3.158 0 0 1-.119.334zm-.682.215c-.035.173-.07.36-.125.535l.223-.076c.061-.159.14-.3.244-.43.039-.115.104-.222.16-.33.02-.04.042-.078.064-.117a6.717 6.717 0 0 0-.571.393c.002.008.007.015.005.025zm-1.333 1.027c.059-.012.119-.02.178-.029.23-.143.484-.256.747-.358a2.53 2.53 0 0 1 .207-.517c-.261.206-.516.425-.775.642-.122.103-.24.189-.357.262zm7.07-7.249c-.271.058-.57.075-.84.008-.297.307-.599.608-.916.881.309-.042.618-.083.927-.106.005 0 .007.003.011.004.313-.228.588-.492.817-.787zm.524-.983a2.383 2.383 0 0 1-.517.085c-.25.273-.506.55-.768.824.248-.044.507-.062.755-.066.034 0 .057.025.067.053.2-.274.354-.576.463-.896zm.149-.632c-.144.151-.292.313-.44.473.119-.035.24-.047.357-.04.037-.141.066-.285.083-.433zm-1.465 1.017c.401-.448.799-.924 1.283-1.266a3.33 3.33 0 0 0-1.162.304c-.03.32-.074.642-.12.962zm-.86.858c.176-.155.347-.314.51-.48l.041-.044c.032-.405.113-.827.265-1.21-.242.132-.46.297-.662.484a5.91 5.91 0 0 1-.154 1.25zm-1.562 1.422c.42-.457.91-.856 1.385-1.269-.036-.02-.066-.054-.06-.109.034-.365.107-.753.215-1.118-.457.482-.821 1.097-1.146 1.786a5.703 5.703 0 0 1-.394.71zm-.199.281c.006 0 .011-.002.017-.003.755-.35 1.551-.538 2.273-.97-.25.036-.502.033-.752-.005-.482.403-.99.751-1.538.978zm5.694-10.643a6.826 6.826 0 0 1-.521.893.668.668 0 0 1 .207-.052c.034-.003.042.05.01.057a1.52 1.52 0 0 0-.31.122c-.178.249-.368.492-.57.723.19-.073.384-.137.584-.162.006-.001.01.003.016.004.357-.448.506-.974.584-1.585zm-1.223.313c.04.292.055.6.06.899.146-.18.278-.362.402-.547a3.924 3.924 0 0 1 .084-.838c.009-.047.07-.032.076.007.026.16.045.328.054.497.218-.358.414-.725.609-1.104a.507.507 0 0 0-.181.152c-.312.074-.623.454-.838.658-.093.089-.18.182-.266.276zm-.772 1.038c.052.222.07.477.05.709.211-.217.422-.433.62-.66a2.51 2.51 0 0 1 .012-.993 6.732 6.732 0 0 0-.682.944zm-.018 1.226c.173-.084.347-.168.516-.258.284-.153.51-.32.697-.5-.18.061-.37.093-.558.114a9.71 9.71 0 0 1-.655.644zm-.978.573c.05-.041.106-.074.16-.112.231-.297.492-.572.756-.844 0-.002-.003-.002-.004-.005a2.28 2.28 0 0 1-.031-.653c-.02.036-.045.07-.066.106-.272.49-.504 1.032-.815 1.508zM55.225 4.722c-.186.3-.435.59-.737.781.02.544.03 1.089 0 1.623.235-.321.472-.641.725-.947.003-.005.009-.004.013-.007a5.136 5.136 0 0 0 0-1.45zm-.82-.803c.028.473.058.953.078 1.437.179-.267.393-.521.609-.753.03-.032.073-.031.108-.015a4.278 4.278 0 0 0-.415-1.22 3.051 3.051 0 0 1-.38.55zm-.07-1.248c.01.266.029.546.045.822a1.37 1.37 0 0 1 .279-.364 3.848 3.848 0 0 0-.325-.458zm-.326 6.933l.011-.018c.349-1.005.881-1.905 1.123-2.952-.188.26-.416.49-.672.686-.056.803-.186 1.58-.462 2.284zm-.816-5.648c.27.311.526.637.78.964-.058-.767-.145-1.554-.03-2.304a4.251 4.251 0 0 0-.75 1.34zm-.208 1.267c.378.371.73.81 1.016 1.25.012-.3.018-.598.01-.895l-.005-.077a5.381 5.381 0 0 1-.88-1.319c-.093.34-.134.688-.14 1.04zm.941 3.949c-.049-.791.018-1.598.06-2.4-.052.015-.11.012-.155-.041a7.718 7.718 0 0 1-.84-1.19c.039.848.283 1.728.63 2.639.112.297.227.64.305.992zm-4.69-4.758c.36.554.659 1.126.85 1.72l.017.015c-.262-.868-.38-1.755-.756-2.595.007.291-.032.58-.11.86zm-.869-2.283c.03.317.007.662-.107.963.31.382.614.77.883 1.17-.006-.358-.009-.718.007-1.076 0-.005.005-.007.006-.012a4.644 4.644 0 0 0-.789-1.045zm-1.054-.738c.03.198.039.41.025.604.278.325.56.656.838.994-.016-.29 0-.59.03-.874.004-.04.036-.062.07-.07a3.877 3.877 0 0 0-.963-.654zm-.705-.258c.153.185.319.377.481.568-.023-.14-.02-.28.003-.414a3.516 3.516 0 0 0-.484-.154zm-.124 1.546c.364.079.726.174 1.087.273-.458-.522-.95-1.044-1.274-1.646-.02.505.05.96.187 1.373zm1.952 1.377a11.835 11.835 0 0 0-.48-.65l-.044-.054a4.878 4.878 0 0 1-1.353-.473c.118.296.277.57.465.827.474.063.966.188 1.412.35zm.654 1.438c.104.066.214.14.325.217a.251.251 0 0 1 .161-.028c-.346-.451-.667-.928-.989-1.403-.028.04-.071.068-.133.055a6.996 6.996 0 0 1-1.254-.402c.49.59 1.145 1.092 1.89 1.561zM3.847 28.55a2.162 2.162 0 0 1-.66-.324C1.15 27.384-.666 25.078.083 22.83c.037-.112.159-.156.266-.127 1.028.28 1.92.915 2.442 1.858.578 1.043.389 2.552 1.03 3.515-.04-.746-.022-1.488.061-2.21a.148.148 0 0 1-.034-.108c.052-1.068.17-2.125.34-3.174-.025-.019-.05-.035-.076-.054a.09.09 0 0 1-.065-.025c-.024-.025-.046-.053-.07-.078a3.843 3.843 0 0 1-.671-.695c-.015-.009-.03-.012-.045-.025-1.578-1.341-4.639-4.25-2.837-6.474.095-.116.212-.137.347-.074 1.156.544 1.96 1.54 2.4 2.728.254.684.386 1.41.467 2.133.028.251.032.51.066.76.09.66.26 1.034.542 1.45a33.392 33.392 0 0 1 1.19-4.686.215.215 0 0 1-.059-.086c-.622-1.867-2.454-2.97-3.131-4.802-.487-1.316-.489-3.296.79-4.15.105-.07.257-.054.33.055.703 1.042 1.282 2.16 1.589 3.386.39 1.557.378 3.153.759 4.718a30.78 30.78 0 0 1 1.856-4.374c.147-.472.316-.936.52-1.384-.07-.097-.128-.2-.17-.31a2.754 2.754 0 0 1-.533-.818c-1.681-2.264-2.154-5.986.146-7.958.115-.098.277-.067.376.035.943.983 1.503 2.266 1.455 3.643-.056 1.576-1.352 3.16-1.185 4.684.012.022.026.043.037.065a.123.123 0 0 1-.005.116c.013.065.029.13.046.194.733-1.482 1.759-2.807 2.952-3.95a2.8 2.8 0 0 1 .062-.395c.018-2.546 1.702-5.487 4.434-5.66.137-.01.237.102.252.229.145 1.22-.148 2.45-.932 3.417-.626.773-1.683 1.223-2.51 1.826a.26.26 0 0 1-.048.082 30.308 30.308 0 0 0-6.525 11.56c-.356 1.63-.638 3.272-.967 4.92-.011.054-.051.079-.095.09a30.451 30.451 0 0 0-.242 3.775c0 1.94.185 3.86.545 5.736.518-2.551 3.758-4.145 6.142-4.613 2.576-.482 5.176-.698 7.824-1.131-.36-.722-.24-1.9.458-2.453.313-.24.722-.386 1.107-.361.482.047.843.385.963.817.193 1.155-.65 1.9-1.637 2.31 1.902 1.804 4.622 1.106 6.356-.626 1.396-4.402 3.418-8.707 5.753-11.57.963-1.203 3.226-3.777 5.08-3.055.482.313.746.698.819 1.107.433 1.708-2.384 5.965-8.884 14.12-.77 2.38-1.06 3.535-1.444 4.714 0 0-.29 1.251.36.409 1.349-1.924 3.636-5.267 6.092-4.739.626.193 1.3 1.131.024 5.004-1.541 4.715-1.59 5.027-1.3 4.883.626-.41 1.131-.866 1.71-1.371 2.623-2.695 4.332-6.976 4.332-6.976h.747c-1.42 3.199-4.719 9.381-8.547 10.27-1.203.29-.987-1.394-.987-1.394 2.745-8.395 2.986-9.189 2.986-9.285-.025-.217-.265-.12-.482.024-2.119 1.468-5.007 7.12-5.007 7.12-.795 1.684-1.3 2.357-1.71 2.622-.746.505-1.444-.096-1.444-1.203 0-2.742.554-6.085 1.54-9.453-2.046 1.395-4.766 1.636-6.596-.409-2.648.53-5.248.674-8.016 1.179-2.697.505-6.236 2.333-5.538 5.797.386 1.058 1.493 2.478 2.865 1.924.602-.24 1.348-.986.795-1.66-.217-.264-.554-.456-.867-.288-.024.024-.024.024-.048.024-.361.24-.819.264-1.108-.096a.739.739 0 0 1 .145-1.059c.481-.385 1.18-.024 1.613.24.289.193.578.458.794.723.819 1.01.049 2.212-.987 2.694-1.13.632-2.332-.024-3.097-1.009a30.323 30.323 0 0 0 6.478 11.38.257.257 0 0 1-.19.43.257.257 0 0 1-.143-.05c-.025.003-.048.008-.073.01a.071.071 0 0 1-.053.02l-.084-.008a3.108 3.108 0 0 1-.783-.05c-.013.004-.024.01-.04.01-1.679.06-5.103-.007-5.242-2.323-.008-.121.051-.198.166-.234.99-.306 2.016-.15 2.93.32.527.271 1.003.633 1.448 1.022.154.135.298.287.455.418.382.318.674.452 1.027.547a30.982 30.982 0 0 1-2.017-2.536 4.972 4.972 0 0 1-.782-1.025c-.054.01-.11.004-.145-.047a17.85 17.85 0 0 1-.772-1.27 1.174 1.174 0 0 1-.142-.047 2.153 2.153 0 0 1-.75-.144c-2.188-.282-4.543-2.035-4.407-4.399.007-.118.112-.193.224-.193 1.065.003 2.092.383 2.842 1.158.859.886 1.049 2.474 1.999 3.207l.006.002c-.78-1.471-1.41-3.047-2.003-4.573-.012-.031.016-.054.044-.056a30.836 30.836 0 0 1-.529-1.589c-.982-1.143-2.597-1.408-3.603-2.516-.726-.8-1.297-2.212-.63-3.188.055-.08.168-.113.252-.056.801.542 1.536 1.174 2.107 1.96.588.81 1.008 1.706 1.526 2.555-.162-.63-.309-1.264-.431-1.904a14.216 14.216 0 0 1-.826-3.699zm-2.65-2.42c.005 0 .008-.003.012-.001.293.103.58.222.867.344a14.083 14.083 0 0 1-.653-1.089 1.91 1.91 0 0 1-.808-.227c.143.344.34.672.582.972zm-.62-1.073c.017-.025.046-.043.079-.034.238.069.484.153.711.26a56.015 56.015 0 0 1-.526-.995 2.407 2.407 0 0 1-.476-.216c.021.337.091.668.212.985zM.353 23.86c.115.025.228.068.333.132-.1-.192-.2-.387-.3-.57a2.988 2.988 0 0 0-.033.438zm.273-.632c.379.457.638 1.02.908 1.557.038-.321.08-.643.135-.96a3.324 3.324 0 0 0-1.043-.597zm1.18.722c.046.41.014.838-.06 1.238l.027.053c.114.203.238.4.367.597.015-.41.074-.846.178-1.247a3.341 3.341 0 0 0-.513-.641zm1.277 2.88c-.135-.75-.325-1.439-.64-2.024.008.38-.023.774-.085 1.136-.009.054-.047.08-.087.09.35.521.72 1.035 1.006 1.585a5.63 5.63 0 0 1-.194-.788zm-.917-.235a2.565 2.565 0 0 1-.727-.19c.584.605 1.303.994 1.941 1.528l.015.008c-.469-.362-.868-.83-1.229-1.346zm.336-6.425a15.95 15.95 0 0 1-.603-1.245 2.594 2.594 0 0 1-.649-.16c.372.498.815.951 1.252 1.405zM.646 15.766c-.084.055-.142.259-.18.475.13.043.253.109.368.187a6.073 6.073 0 0 1-.188-.662zm.093.804a1.528 1.528 0 0 1-.302-.12 3.323 3.323 0 0 0-.025.355c.003.445.187.881.39 1.269.062.119.14.229.212.342.273.054.563.183.808.34-.041-.093-.083-.186-.124-.274l-.272-.59c-.247-.069-.5-.203-.701-.358-.079-.06-.029-.221.08-.174.187.08.369.2.532.334a14.72 14.72 0 0 1-.433-1.053c-.057-.02-.11-.048-.165-.071zm.255-.825c.189.406.349.83.506 1.254.074-.21.19-.403.297-.597.01-.017.026-.02.042-.02-.26-.288-.565-.555-.845-.637zm.892.691v.007c-.08.258-.147.527-.296.756-.003.004-.008.004-.01.008.103.28.21.558.323.834.068-.349.268-.697.441-1.014a6.243 6.243 0 0 0-.458-.59zm.55.734c-.082.33-.17.68-.344.961-.037.06-.097.057-.14.026.044.106.085.213.132.316.134.294.295.589.459.886l.05-.14a.099.099 0 0 1-.023-.057c-.017-.219.082-.422.155-.625.05-.137.106-.271.17-.402a4.923 4.923 0 0 0-.46-.965zM3 18.45c-.013.053-.024.106-.039.16-.039.144-.07.296-.13.433-.013.205-.059.399-.136.594l.14.254c.095-.205.219-.403.332-.59.007-.01.017-.014.026-.019A8.228 8.228 0 0 0 3 18.45zm.418 2.359c-.054-.414-.104-.824-.17-1.23-.062.221-.136.444-.243.642.155.312.292.627.382.948.045.058.094.115.138.175a4.014 4.014 0 0 1-.107-.535zm.314-7.126c.16.191.33.377.498.561a12.588 12.588 0 0 1-.477-1.092 3.465 3.465 0 0 1-.618-.41c.138.308.33.619.597.94zm-.708-2.356c.09.046.162.1.225.163a8.909 8.909 0 0 1-.196-1.33c-.201.776-.277 1.482-.065 2.196.007.002.014-.002.021.002.23.128.432.3.627.479a11.715 11.715 0 0 1-.337-1.149 1.956 1.956 0 0 0-.315-.296c-.034-.026.001-.085.04-.065zm1.166-.657c-.16-.35-.35-.96-.69-1.2a.657.657 0 0 0-.145-.271c.051.55.109 1.089.198 1.626.092-.2.198-.393.306-.573.028-.044.107-.032.096.029a5.107 5.107 0 0 1-.306 1.05c.06.284.13.569.218.855.151-.358.319-.722.51-1.054a7.383 7.383 0 0 0-.187-.462zm.25.619a3.26 3.26 0 0 1-.468 1.203c.128.37.277.733.426 1.096.09-.289.234-.587.406-.83a8.736 8.736 0 0 0-.365-1.47zm.44 1.907c-.007-.053-.02-.106-.028-.159-.082.273-.206.55-.355.772-.002.003-.005.003-.007.005.186.456.367.914.503 1.384.045.071.097.139.137.213-.143-.726-.16-1.491-.25-2.215zm4.926 33.46c-.358-.12-.711-.272-1.043-.416a2.095 2.095 0 0 1-.476.26c.496.094 1.008.123 1.519.155zm-3.095-.872c.246.265.595.425.928.546.103.037.21.06.315.089.192-.117.437-.199.67-.238-.076-.033-.152-.067-.225-.097l-.485-.204a1.745 1.745 0 0 1-.616.169c-.08.007-.138-.116-.048-.148.157-.054.33-.082.502-.092-.28-.12-.564-.25-.836-.392-.045.018-.092.031-.138.047-.08.04-.161.072-.246.094.07.098.14.183.18.226zm-.276-.367c.101-.046.21-.073.322-.09a5 5 0 0 1-.475-.293c-.02.079.057.233.153.383zm.044-.585c.335.14.663.305.99.473-.07-.166-.107-.345-.15-.52-.003-.015.005-.026.015-.034-.313-.03-.643-.024-.855.08zm.912-.075l.004.004c.094.198.2.396.237.615l-.002.01c.216.111.433.219.65.322-.15-.246-.22-.564-.291-.848a5.108 5.108 0 0 0-.598-.103zm1.535.465a3.994 3.994 0 0 0-.804-.326c.132.241.27.5.321.763.01.056-.027.087-.07.092.084.039.168.08.252.116.241.103.5.192.76.28l-.046-.111a.078.078 0 0 1-.046-.022c-.13-.121-.182-.297-.249-.458a3.186 3.186 0 0 1-.118-.334zm.806.524a6.643 6.643 0 0 0-.571-.393c.021.039.044.077.064.117.056.108.12.215.16.33.104.13.183.271.244.43l.222.076c-.055-.175-.09-.362-.124-.535-.002-.01.003-.017.005-.025zm.97.79c-.258-.217-.513-.436-.774-.642.083.166.162.34.206.517.263.102.518.215.747.358.06.01.12.017.179.03a3.218 3.218 0 0 1-.357-.263zm-5.895-6.2c.004 0 .007-.004.012-.004.309.023.618.064.926.106a14.1 14.1 0 0 1-.915-.88c-.27.066-.57.05-.84-.009.23.295.505.56.817.787zm-.878-.874c.01-.028.032-.054.067-.053.247.004.507.022.754.066-.261-.274-.517-.551-.767-.824a2.384 2.384 0 0 1-.517-.085c.109.32.263.622.463.896zm-.53-1.096a1.06 1.06 0 0 1 .357.04c-.147-.159-.295-.32-.439-.472.017.148.045.292.083.432zm1.262-.377a3.329 3.329 0 0 0-1.163-.304c.485.342.882.818 1.283 1.266-.047-.32-.091-.641-.12-.962zm.826.57a3.35 3.35 0 0 0-.662-.485c.153.384.234.805.266 1.211l.04.045c.163.165.335.324.51.48a5.91 5.91 0 0 1-.154-1.25zm1.323 1.962c-.325-.69-.69-1.304-1.146-1.786.107.365.18.753.215 1.118.006.055-.024.089-.06.11.474.412.965.811 1.384 1.268a5.657 5.657 0 0 1-.393-.71zm-.946.013c-.25.038-.502.04-.751.005.721.432 1.517.62 2.273.97l.016.003c-.547-.227-1.055-.575-1.538-.978zm-3.571-8.08c.005 0 .01-.005.016-.004.2.025.394.09.584.162a9.13 9.13 0 0 1-.57-.723 1.52 1.52 0 0 0-.31-.122c-.032-.008-.024-.06.01-.057a.667.667 0 0 1 .207.052 6.827 6.827 0 0 1-.522-.893c.08.611.228 1.137.585 1.585zm.373-1.548c-.216-.204-.526-.584-.838-.658a.51.51 0 0 0-.181-.152c.195.379.39.746.609 1.104.008-.169.028-.338.054-.497.006-.04.067-.054.076-.007.053.264.09.56.084.838.124.185.256.368.401.547.005-.299.02-.607.06-.9a5.848 5.848 0 0 0-.265-.275zm.356.37c.072.32.071.68.012.993.198.227.408.443.62.66a2.33 2.33 0 0 1 .05-.709 6.733 6.733 0 0 0-.682-.944zm.045 1.526a2.645 2.645 0 0 1-.558-.114c.187.18.413.347.696.5.17.09.344.174.517.258a9.657 9.657 0 0 1-.655-.644zm.817-.291c-.02-.037-.045-.07-.065-.106.02.219.01.452-.032.653 0 .003-.002.003-.003.005.264.272.524.547.757.844.052.037.109.07.159.112-.311-.476-.543-1.018-.816-1.508zm2.7-26.34c.004.004.01.003.013.008.253.306.49.626.724.947a18.024 18.024 0 0 1 0-1.623c-.301-.19-.55-.48-.737-.78a5.15 5.15 0 0 0 0 1.449zm.44-2.803a4.29 4.29 0 0 0-.414 1.22c.035-.016.078-.017.108.015.216.232.43.486.61.753.02-.484.048-.964.078-1.437a3.051 3.051 0 0 1-.381-.55zm.126-.239c.11.103.207.225.28.364.016-.276.034-.556.045-.822-.12.146-.228.3-.325.458zm.188 4.191a3.271 3.271 0 0 1-.67-.686c.24 1.047.773 1.947 1.121 2.952l.011.018c-.276-.705-.405-1.48-.462-2.284zm.528-4.704c.115.75.029 1.537-.029 2.304.254-.327.51-.653.78-.964a4.249 4.249 0 0 0-.75-1.34zm.819 1.566a5.39 5.39 0 0 1-.882 1.319c0 .026-.003.052-.004.077-.008.297-.002.595.01.894a7.56 7.56 0 0 1 1.015-1.25 4.251 4.251 0 0 0-.14-1.04zM8.189 8.18c.347-.91.59-1.791.63-2.64a7.71 7.71 0 0 1-.84 1.19c-.046.054-.103.057-.154.042.04.802.107 1.609.059 2.4.077-.352.192-.695.305-.992zm4.273-4.626c-.375.84-.493 1.727-.756 2.595l.018-.015c.19-.594.49-1.166.849-1.72a2.948 2.948 0 0 1-.11-.86zm.191-.378c.002.005.006.007.006.012.016.358.013.718.007 1.077.27-.401.573-.79.884-1.171a2.204 2.204 0 0 1-.108-.963 4.645 4.645 0 0 0-.789 1.045zm.88-1.128c.035.007.066.03.07.069.03.285.046.584.03.874.278-.338.56-.67.839-.994a2.752 2.752 0 0 1 .024-.604c-.351.17-.675.388-.962.655zm1.184-.759c.024.134.027.274.004.414.162-.19.327-.383.48-.568-.167.04-.328.092-.484.154zm.796.019c-.325.602-.816 1.124-1.275 1.645.361-.098.723-.193 1.087-.272.138-.413.207-.867.188-1.373zm-.727 2.4a3.84 3.84 0 0 0 .465-.827c-.42.229-.892.38-1.353.473l-.045.054c-.167.209-.325.427-.48.65a6.841 6.841 0 0 1 1.413-.35zm-.177.227a7 7 0 0 1-1.253.402c-.062.013-.105-.016-.134-.055-.321.475-.643.952-.989 1.403.056-.01.111 0 .162.028.11-.077.22-.151.325-.217.745-.469 1.4-.971 1.89-1.561zM90.69.588c.075-.01.165-.018.271-.024a5.08 5.08 0 0 1 .572 0c.095.006.18.013.255.024v4.86h5.628V.589a2.91 2.91 0 0 1 .255-.024 5.037 5.037 0 0 1 .572 0c.106.006.195.013.27.024V12.01c-.063.01-.145.018-.246.024a5.821 5.821 0 0 1-.596 0 3.708 3.708 0 0 1-.255-.024V6.45h-5.628v5.56a3.879 3.879 0 0 1-.54.031c-.107 0-.21-.001-.31-.007a2.75 2.75 0 0 1-.247-.024zm18.333 0c.073-.01.175-.018.301-.024a8.392 8.392 0 0 1 .708 0c.122.006.22.013.295.024l3.815 11.422c-.064.01-.153.018-.27.024a7.177 7.177 0 0 1-.636 0 3.746 3.746 0 0 1-.271-.024l-.953-2.908h-4.706l-.906 2.908a4.965 4.965 0 0 1-.605.031c-.106 0-.215-.001-.325-.007a2.729 2.729 0 0 1-.262-.024zm2.67 7.498l-2.05-6.354-2.02 6.354zm9.143-7.498c.074-.01.173-.018.295-.024.121-.005.225-.008.31-.008.083 0 .184.003.301.008.116.006.213.013.286.024l5.47 9.563V.588c.073-.01.157-.018.246-.024a4.68 4.68 0 0 1 .818.024V12.01c-.063.01-.155.018-.277.024a7.34 7.34 0 0 1-.629 0 3.772 3.772 0 0 1-.286-.024l-5.47-9.484v9.484a3.776 3.776 0 0 1-.523.031c-.106 0-.207-.001-.303-.007a2.734 2.734 0 0 1-.238-.024zm15.708 0c.148-.021.331-.042.548-.063a24.774 24.774 0 0 1 2.091-.112c.996 0 1.863.136 2.599.405.736.27 1.347.658 1.828 1.16a4.684 4.684 0 0 1 1.074 1.842c.233.726.35 1.544.35 2.455 0 3.95-1.95 5.926-5.85 5.926a23.613 23.613 0 0 1-1.456-.056 11.904 11.904 0 0 1-1.184-.135zm1.097 10.468c.19.022.415.043.676.064.259.021.526.032.803.032.73 0 1.39-.079 1.98-.238a3.54 3.54 0 0 0 1.502-.81c.412-.382.73-.887.953-1.517.222-.63.334-1.416.334-2.36 0-1.641-.422-2.845-1.264-3.614-.843-.768-2.011-1.151-3.505-1.151-.245 0-.507.005-.788.015-.28.012-.511.033-.69.064zM79.847 29.771c.084.16.158.312.222.46.064.15.112.302.143.462-.361.18-.79.32-1.287.42a7.99 7.99 0 0 1-1.575.152 5.71 5.71 0 0 1-2.123-.382 4.465 4.465 0 0 1-1.646-1.112c-.455-.487-.81-1.09-1.064-1.812-.255-.718-.381-1.545-.381-2.477 0-.954.123-1.803.372-2.55.25-.747.6-1.377 1.05-1.89.45-.514.996-.906 1.638-1.176.641-.27 1.36-.405 2.154-.405.668 0 1.225.048 1.67.143.444.095.769.174.97.238-.022.19-.051.35-.088.477a4.77 4.77 0 0 1-.167.46 38.791 38.791 0 0 0-.42-.127 4.678 4.678 0 0 0-.487-.111 7.849 7.849 0 0 0-.627-.08 9.716 9.716 0 0 0-.836-.03c-.624 0-1.186.113-1.685.34a3.46 3.46 0 0 0-1.271.994c-.35.434-.62.963-.812 1.589-.19.624-.286 1.334-.286 2.128 0 .815.106 1.525.319 2.128.212.604.505 1.105.882 1.501a3.51 3.51 0 0 0 1.32.883c.502.19 1.046.286 1.63.286.497 0 .95-.048 1.36-.143.407-.096.748-.218 1.025-.366zm7.472-10.167l.612-.055.509-.049c.164-.015.337-.026.517-.032.18-.004.392-.007.635-.007.51 0 1.01.052 1.503.158.493.107.936.29 1.328.548.392.26.708.61.946 1.049.238.44.358.993.358 1.66 0 .414-.075.79-.223 1.129a3.46 3.46 0 0 1-.58.912c-.239.27-.515.504-.827.7a5.663 5.663 0 0 1-.963.485l-.126.048 3.641 4.924a1.638 1.638 0 0 1-.318.031h-.628c-.102 0-.205-.01-.31-.031l-4.007-5.29v-.064l.35-.096c.36-.094.71-.218 1.049-.373.34-.153.638-.338.899-.556.26-.216.469-.474.627-.77.16-.297.24-.646.24-1.048 0-.826-.255-1.446-.764-1.86-.508-.413-1.198-.62-2.067-.62a10.547 10.547 0 0 0-1.303.08v10.597a3.74 3.74 0 0 1-.27.024 5.635 5.635 0 0 1-.573 0 3.704 3.704 0 0 1-.255-.024zm16.63.048c.074-.011.176-.018.302-.024a8.396 8.396 0 0 1 .708 0c.122.006.22.013.294.024l3.815 11.422c-.063.01-.153.018-.27.024a7.177 7.177 0 0 1-.636 0 3.742 3.742 0 0 1-.27-.024l-.953-2.908h-4.706l-.907 2.908a4.961 4.961 0 0 1-.604.031c-.107 0-.216-.002-.326-.007a2.729 2.729 0 0 1-.262-.024zm2.67 7.498l-2.05-6.355-2.02 6.355zm9.143-7.498h5.613a2.1 2.1 0 0 1 .024.23 4.168 4.168 0 0 1-.024.77h-4.515v3.86h3.911a4.13 4.13 0 0 1 0 1h-3.911v5.562a3.883 3.883 0 0 1-.541.031c-.106 0-.21-.002-.31-.007a2.75 2.75 0 0 1-.247-.024zm14.531.985h-3.067a1.822 1.822 0 0 1-.024-.23 4.145 4.145 0 0 1 0-.517c.004-.095.013-.174.024-.238h7.234c.01.064.018.137.024.222a4.961 4.961 0 0 1 0 .517c-.006.1-.014.182-.024.246h-3.07v10.437a3.693 3.693 0 0 1-.54.031 5.82 5.82 0 0 1-.31-.007 2.745 2.745 0 0 1-.247-.024zm10.86-.985h6.121a2.1 2.1 0 0 1 .024.23 4.166 4.166 0 0 1-.024.77h-5.023v3.86h4.038c.01.064.018.14.024.231a4.128 4.128 0 0 1-.024.77h-4.038v4.56h5.166c.011.064.019.14.024.23a4.278 4.278 0 0 1 0 .524c-.005.101-.013.183-.024.247h-6.263zm13.356 0c.149-.021.332-.042.548-.063a24.73 24.73 0 0 1 2.092-.112c.995 0 1.862.135 2.598.404.737.27 1.347.658 1.829 1.16a4.684 4.684 0 0 1 1.073 1.843c.234.726.35 1.543.35 2.455 0 3.95-1.95 5.926-5.85 5.926a23.613 23.613 0 0 1-1.456-.056 11.9 11.9 0 0 1-.667-.063c-.207-.027-.38-.051-.517-.072zm1.098 10.468c.19.021.415.042.675.064.26.02.527.032.803.032.73 0 1.39-.079 1.98-.239a3.54 3.54 0 0 0 1.502-.81c.412-.381.731-.886.953-1.516.223-.631.335-1.416.335-2.36 0-1.642-.422-2.846-1.265-3.614-.843-.769-2.01-1.152-3.505-1.152-.245 0-.507.006-.787.016-.28.011-.512.032-.691.063zM88.563 46.399c.09.025.185.055.283.088.098.033.207.062.329.087a4.003 4.003 0 0 0 .925.098c.312 0 .583-.037.808-.112.225-.074.41-.175.558-.302.146-.128.255-.278.327-.45a1.45 1.45 0 0 0 .108-.564c0-.195-.025-.363-.074-.503a.985.985 0 0 0-.254-.386 2.045 2.045 0 0 0-.5-.339 8.93 8.93 0 0 0-.797-.346 8.01 8.01 0 0 1-.651-.275 2.3 2.3 0 0 1-.544-.356 1.557 1.557 0 0 1-.372-.504c-.091-.195-.136-.44-.136-.734 0-.529.19-.956.572-1.281.382-.327.939-.49 1.67-.49a6.255 6.255 0 0 1 .847.068 4.625 4.625 0 0 1 .612.137 3.368 3.368 0 0 1-.055.3c-.022.1-.05.196-.083.288a4.228 4.228 0 0 0-.602-.142 4.264 4.264 0 0 0-.73-.063c-.542 0-.93.11-1.165.332a1.107 1.107 0 0 0-.353.84.948.948 0 0 0 .407.803c.127.098.279.188.456.269.175.081.365.162.568.24.273.11.53.225.767.343.24.117.444.254.613.41.169.157.303.34.401.553.098.212.147.468.147.769 0 .338-.06.64-.18.903-.121.265-.292.487-.515.665-.222.18-.493.318-.813.413a3.83 3.83 0 0 1-1.077.141c-.385 0-.704-.028-.96-.083a7.435 7.435 0 0 1-.714-.191c.012-.098.035-.204.07-.318a2.42 2.42 0 0 1 .107-.308zm9.566-6.25c.045-.008.107-.012.185-.017a5.187 5.187 0 0 1 .436 0c.075.005.135.009.182.016l2.35 7.034a3.388 3.388 0 0 1-.725 0l-.589-1.79h-2.897l-.558 1.79a2.002 2.002 0 0 1-.181.014 2.998 2.998 0 0 1-.393 0 1.278 1.278 0 0 1-.161-.014zm1.644 4.616l-1.263-3.913-1.244 3.913zm5.14-4.647c.145-.012.27-.024.379-.034l.312-.03c.101-.01.207-.015.318-.02.111-.002.242-.004.392-.004.313 0 .622.033.925.098.304.065.576.178.818.338.241.16.435.375.582.646.147.27.221.61.221 1.021 0 .255-.046.487-.137.695a2.192 2.192 0 0 1-.867.993c-.192.12-.39.22-.592.299l-.08.03 2.244 3.032c-.065.012-.132.02-.197.02h-.386c-.063 0-.126-.008-.192-.02l-2.466-3.258v-.039l.215-.06a4.06 4.06 0 0 0 .647-.229c.208-.095.392-.208.552-.343.16-.132.29-.29.387-.474a1.35 1.35 0 0 0 .147-.646c0-.508-.157-.89-.47-1.145-.313-.253-.738-.38-1.273-.38a6.46 6.46 0 0 0-.803.048v6.526a2.664 2.664 0 0 1-.518.014 1.523 1.523 0 0 1-.158-.014zm9.752.03c.045-.007.107-.011.185-.016a5.178 5.178 0 0 1 .437 0c.075.005.134.009.18.016l2.35 7.034a3.382 3.382 0 0 1-.725 0l-.588-1.79h-2.897l-.558 1.79a1.999 1.999 0 0 1-.181.014 3 3 0 0 1-.392 0 1.28 1.28 0 0 1-.162-.014zm1.644 4.617l-1.263-3.913-1.244 3.913zm11.594-4.617a1.91 1.91 0 0 1 .185-.016 5.182 5.182 0 0 1 .437 0c.075.005.134.009.18.016l2.35 7.034a3.382 3.382 0 0 1-.725 0l-.588-1.79h-2.897l-.558 1.79a1.995 1.995 0 0 1-.181.014 2.998 2.998 0 0 1-.392 0 1.28 1.28 0 0 1-.162-.014zm1.644 4.617l-1.263-3.913-1.244 3.913zm5.14-4.617c.047-.007.107-.011.182-.016a4.445 4.445 0 0 1 .377 0c.072.005.131.009.176.016l3.368 5.889v-5.889c.045-.007.096-.011.152-.016a3 3 0 0 1 .505.016v7.034a3.528 3.528 0 0 1-.735 0l-3.367-5.841v5.84a2.209 2.209 0 0 1-.324.02 2.571 2.571 0 0 1-.333-.02zm9.184 0c.047-.007.106-.011.181-.016a4.444 4.444 0 0 1 .377 0c.072.005.132.009.177.016l3.368 5.889v-5.889c.045-.007.096-.011.151-.016a3.002 3.002 0 0 1 .506.016v7.034a3.525 3.525 0 0 1-.735 0l-3.368-5.841v5.84a2.212 2.212 0 0 1-.324.02 2.576 2.576 0 0 1-.333-.02zM19.702 26.275c.626-.144 1.3-.577 1.42-1.298.169-.722-.577-.986-1.155-.53-.53.41-.554 1.251-.265 1.828zm10.231-1.851c2.456-3.152 4.984-6.303 6.741-10.103 1.18-2.67-1.107-2.165-2.359.24-1.444 2.358-2.528 4.907-4.382 9.863z"/></g></g></svg>