<svg xmlns="http://www.w3.org/2000/svg" width="186" height="57" viewBox="0 0 186 57"><g><g><path fill="#263a41" d="M52.934 33.983c-.28.52-.641 1-.96 1.479l-.64.758c-.44.4-1.08.919-1.96 1.279-.039 0-.08 0-.08.04-.399.12-1.918.48-4.397-.76-.12.2-.2.32-.2.32-.2.2-.32.359-.44.48-.28.319-.6.64-.919.879l-.24.24-.52.358c-.52.32-1.04.6-1.6.76-2.357.798-4.957.478-5.557-2.476 0-3.836 4.198-7.432 7.637-3.875l.12.079c1.52-3.156 3.997-8.348 3.918-10.706-.04-.399-.2-1.078-1-1.518-1.799-.918-4.677 1.28-6.437 3.116 0 0-.76.799-1.598 1.958-.68.958-1.44 2.117-1.96 3.276l-1.759 5.472h.04l-3.958 12.183c-.2.6-.48 1.319-.799 2.117-2.878 8.549-6.557 7.311-6.557 7.311-.48-.2-.84-.52-1.12-.879-1.358-1.957-.039-5.673 0-5.832v-.04c.84-2.276 2.199-4.794 3.359-6.67.359-.56 2.399-3.676 4.517-5.234l.24-.758 2.479-7.63 3.119-9.667c-3.279 3.075-8.596 3.915-11.874.16-4.398.879-8.716 1.117-13.313 1.957-4.478.838-10.355 3.875-9.197 9.627.64 1.757 2.48 4.114 4.758 3.195 1-.4 2.24-1.637 1.32-2.755-.36-.44-.92-.76-1.44-.48-.04.04-.04.04-.08.04-.599.398-1.358.44-1.84-.16a1.228 1.228 0 0 1 .241-1.758c.8-.638 1.96-.04 2.68.4.478.32.958.759 1.319 1.199 1.359 1.677.079 3.674-1.64 4.472C3.957 37.42.84 34.742.32 32.106c-1.32-6.871 5.117-9.906 9.995-10.865 4.278-.8 8.597-1.158 12.994-1.878-.6-1.198-.4-3.156.76-4.075 1.118-.879 2.838-.838 3.438.76.2.999-.2 2.038-.88 2.716-.52.52-1.16.84-1.838 1.119 2.038 2.037 5.277 2.317 7.995.919.56-.32 1.12-.72 1.64-1.159 0 0 .32-.32.799-.72.32-.28.679-.599 1.119-.878.04-.04.08-.08.12-.08 0 0 .92-.719 1.76-.84 1.479-.279 1.32 1.44 1.239 2.16l-1.68 5.112 1.32-1.12c.559-.439 1.2-.878 1.879-1.357h.04c1.199-.76 2.479-1.398 4.238-1.877 5.677-.919 5.357 4.713 3.398 9.907 0 0-.8 2.277-2.198 4.632-.12.201-.28.4-.4.6-.04.08-.12.2-.241.319 1 .52 2.08.879 3.08.72.678-.2 1.278-.6 1.838-1.199.8-.998 1.6-2.197 2.279-3.755l2.847-6.478 1.666-5.267s.719-1.198 2.238-.878c1.56.32 1.04 1.878 1.04 1.878-1.918 5.95-2.199 7.51-2.798 9.587-.201.718-1 3.675.32 5.033 0 0 1.16.958 2.598.08 1.679-1.119 3.399-3.955 4.758-6.512.839-1.517 1.519-3.115 2.278-4.873l2.798-7.989s.84-1.478 2.72-1.078c1.879.399 1.279 2.316 1.279 2.316-2.36 7.27-3.598 11.106-4.358 13.622-.24.878-1.2 4.515.4 6.192 0 0 1.439 1.157 3.159.08 2.079-1.36 4.198-4.834 5.836-7.95.786-1.42 1.458-2.884 2.136-4.429l-.02-.005s2.519-5.672 4.518-11.344c-3.56-.44-6.238-2.676-5.398-6.952.68-3.156 2.839-6.31 6.956-5.592 1.92.56 2.08 3.036 1.88 5.153-.2 1.399-.6 3.156-1.32 5.434 1 .16 1.96.079 2.999-.2 1.719-.44 3.719-1.36 5.238-.999 2.438.718.639 5.113-1 10.226v.04c-.28.88-2.36 7.71-1.16 12.223.32 1.12.88 1.918 1.76 2.078 1.854.218 4.204-3.43 5.938-6.706.93-4.712 3.703-9.603 8.053-11.47 3.638-1.598 7.156.12 6.157 4.713-1.28 5.434-6.757 6.792-9.197 6.073-.359-.24-.04-.56.201-.56.36 0 1.16 0 2.159-.199 2.878-.759 6.196-6.631 2.838-6.871-5.756 1.238-9.875 15.14-3.878 18.095 1.12.48 7.357 2.397 14.473-14.18l.2-.48c0-.04 0-.04.04-.08 2.36-5.352 10.515-8.827 14.713-3.235 4.358-.76 8.795-.56 13.353-1.159 3.998-.518 8.356-2.117 9.715-6.471.72-2.316-1.239-7.15-4.478-6.032-.998.32-2.318 1.518-1.48 2.677.322.44.88.759 1.401.518.04 0 .08 0 .08-.039.599-.32 1.4-.36 1.838.32.4.56.24 1.358-.36 1.757-.838.559-1.919-.12-2.637-.6-.481-.318-.921-.799-1.24-1.278-1.24-1.756.16-3.674 1.88-4.354 3.996-1.597 6.995 3.676 5.996 7.35-1.359 4.554-6.117 6.513-10.595 7.07-4.317.56-8.756.36-13.074 1.12.6 1.797-.32 4.794-2.878 4.473-.76-.08-1.36-.679-1.48-1.437-.278-1.758 1.24-3.196 2.92-3.635-3.479-3.915-10.356-1.84-12.395 2.955v.08c-.04 0-3.038 7.55-7.515 12.624-2.28 2.556-4.958 4.474-7.797 4.433-3.679-.28-6.956-3.235-7.277-7.19a14.532 14.532 0 0 1-.07-2.225c-2.974 4.93-5.324 6.5-7.124 6.5-6.877.039-5.317-11.145-5.317-11.145.32-2.758 1.159-6.113 2.638-9.828 0 0 1.52-3.675-.838-3.395-1.16.2-2.28.36-3.48.48-1.08 3.035-2.638 6.83-4.837 11.544l-.006-.001c-3.093 6.758-8.01 16.058-13.464 15.181-1.36-.2-2.358-.8-2.997-1.598-.52-.64-.84-1.438-1-2.277-.36-1.837 0-4.195.48-6.273-2.4 4.355-5.438 8.35-8.717 7.83-1.118-.16-1.959-.639-2.478-1.317-.4-.52-.68-1.159-.8-1.839-.168-.938-.124-2.031.027-3.128zm-23.948 6.792c-3.159 4.034-6.638 10.065-5.678 12.943.239.239.52.199.8 0 1-.96 1.958-3.836 1.958-3.836l2.68-8.389zm-4.759-21.731v.039c1.04-.239 2.159-.958 2.36-2.156.278-1.199-.96-1.639-1.92-.88-.84.64-.919 2.078-.44 2.997zM42.26 35.022l-.12-.119-.36-.44c-.6-.559-1.36-.92-2.2-.96-1.398.28-2.318 1.519-2.479 2.918-.04 1.158.8 2.277 2.88.998.92-.6 1.679-1.398 2.279-2.397zm46.368-29.44c.119-.64.52-3.795-1.56-3.636-3.598.96-3.119 7.67.16 8.91.639-1.958 1.12-3.756 1.4-5.273zm48.893 15.26c-1.04.279-2.119.839-2.438 2.037-.361 1.278.838 1.637 1.838.998.6-.44 1.16-.919.6-3.036zm-9.693 22.71a3.162 3.162 0 0 1 .444-.013c.051.004.095.008.134.014v2.56h2.965v-2.56a2.807 2.807 0 0 1 .579 0v6.017c-.034.006-.078.01-.13.013a3.242 3.242 0 0 1-.315 0 1.412 1.412 0 0 1-.134-.013v-2.929h-2.965v2.93a2.844 2.844 0 0 1-.448.013 1.088 1.088 0 0 1-.13-.014zm9.239 0c.038-.005.092-.01.158-.012a4.709 4.709 0 0 1 .374 0c.064.003.116.007.154.013l2.011 6.017c-.034.006-.082.01-.142.013a4.02 4.02 0 0 1-.336 0 1.475 1.475 0 0 1-.143-.013l-.502-1.531h-2.48l-.476 1.531a3.577 3.577 0 0 1-.49.013 1.166 1.166 0 0 1-.14-.013zm1.407 3.95l-1.08-3.347-1.064 3.348zm4.398-3.95a4.04 4.04 0 0 1 .478-.013c.06.004.112.008.15.014l2.881 5.038v-5.038a2.61 2.61 0 0 1 .562 0v6.017c-.033.006-.082.01-.146.013a4.237 4.237 0 0 1-.331 0 1.48 1.48 0 0 1-.151-.013l-2.882-4.995v4.995a2.565 2.565 0 0 1-.562 0zm7.857 0a11.776 11.776 0 0 1 .653-.062 15.711 15.711 0 0 1 .738-.029c.524 0 .981.07 1.369.214.389.142.71.345.964.61s.442.59.565.97c.123.384.185.815.185 1.294 0 2.081-1.028 3.122-3.083 3.122-.118 0-.244-.003-.377-.009a16.162 16.162 0 0 1-.39-.021 6.495 6.495 0 0 1-.624-.07zm.579 5.517c.1.011.219.02.355.032.137.012.278.017.424.017.385 0 .733-.041 1.042-.125a1.86 1.86 0 0 0 .791-.428c.218-.2.386-.466.504-.798.117-.332.175-.746.175-1.244 0-.864-.222-1.5-.666-1.903-.444-.404-1.06-.607-1.846-.607-.129 0-.267.003-.416.01a2.767 2.767 0 0 0-.363.031zm7.539-5.516c.032-.006.086-.01.158-.013a5.483 5.483 0 0 1 .402 0c.073.003.128.007.168.013l1.683 4.01 1.668-4.01c.032-.006.088-.01.163-.013a5.68 5.68 0 0 1 .39 0c.072.003.127.007.167.013l.293 6.017a2.792 2.792 0 0 1-.577 0l-.227-5.121-1.659 3.875a.42.42 0 0 1-.117.015H161.127a.411.411 0 0 1-.113-.015l-1.64-3.883-.244 5.13a2.786 2.786 0 0 1-.578 0zm10.085 0c.038-.006.091-.01.158-.013a4.704 4.704 0 0 1 .374 0c.063.003.115.007.154.013l2.011 6.017c-.034.006-.082.01-.143.013a4.025 4.025 0 0 1-.335 0 1.483 1.483 0 0 1-.143-.013l-.502-1.531h-2.48l-.476 1.531a3.57 3.57 0 0 1-.49.013 1.17 1.17 0 0 1-.14-.013zm1.407 3.95l-1.08-3.348-1.064 3.348zm4.396-3.95a6.49 6.49 0 0 1 .289-.034 15.741 15.741 0 0 1 1.102-.058c.524 0 .981.07 1.369.214.389.142.71.345.964.61.253.265.442.59.565.97.123.384.185.815.185 1.294 0 2.081-1.028 3.122-3.084 3.122-.117 0-.243-.003-.376-.009a16.17 16.17 0 0 1-.39-.021 6.484 6.484 0 0 1-.624-.07zm.579 5.516c.1.011.219.02.355.032.137.012.278.017.424.017.385 0 .733-.041 1.042-.125.31-.084.573-.227.791-.428.218-.2.386-.466.504-.798.117-.332.175-.746.175-1.244 0-.864-.222-1.5-.666-1.903-.444-.404-1.06-.607-1.846-.607-.129 0-.267.003-.416.01a2.766 2.766 0 0 0-.363.031zm7.37-5.516h3.225a2.258 2.258 0 0 1 0 .527h-2.646v2.034h2.127a2.297 2.297 0 0 1 0 .527h-2.127v2.402h2.721c.006.034.01.074.013.122a2.37 2.37 0 0 1-.013.405h-3.3zM77.311 49.58c-1.033-.006-1.724-.998-1.488-1.975l.044-.183c.35-1.447 2.567-1.406 2.91.02l.044.18c.236.979-.49 1.964-1.51 1.958zm-7.083-.233c-1.782 0-1.747-2.76.03-2.76zm-6.432-.801a.713.713 0 0 1-.64.36.689.689 0 0 1-.63-.357c-.445-.498-.227-1.521.646-1.521.871 0 1.073 1.018.624 1.518zm20.588-1.96c1.777 0 1.812 2.761.03 2.761zm7.087.442c.872 0 1.09 1.023.645 1.521a.688.688 0 0 1-.63.357.713.713 0 0 1-.64-.36c-.449-.5-.247-1.518.625-1.518zm36.128-9.89c.078.023.16.048.243.077.084.027.177.052.28.075a3.493 3.493 0 0 0 .792.083c.27 0 .499-.032.692-.096.193-.064.351-.151.477-.26.126-.109.22-.236.281-.384.061-.149.092-.308.092-.482 0-.167-.02-.311-.063-.431a.85.85 0 0 0-.218-.33 1.692 1.692 0 0 0-.427-.29 7.659 7.659 0 0 0-.682-.296 6.532 6.532 0 0 1-.557-.235 1.928 1.928 0 0 1-.466-.305 1.319 1.319 0 0 1-.318-.43 1.484 1.484 0 0 1-.117-.629c0-.452.164-.816.49-1.096.327-.279.803-.419 1.428-.419.123 0 .247.006.373.018.126.01.243.025.352.04a3.685 3.685 0 0 1 .524.118 2.766 2.766 0 0 1-.118.503 3.467 3.467 0 0 0-.515-.122 3.633 3.633 0 0 0-.625-.055c-.462 0-.795.095-.996.285-.2.19-.302.43-.302.72 0 .151.03.281.093.393.06.111.146.21.255.294.109.083.239.16.39.229.15.07.313.138.485.205.235.096.454.194.658.294.204.1.378.217.523.35.146.134.26.292.344.474.083.18.126.4.126.657 0 .29-.053.548-.156.774a1.54 1.54 0 0 1-.44.568c-.19.154-.421.272-.694.352-.275.08-.581.122-.922.122a3.99 3.99 0 0 1-.82-.071 6.393 6.393 0 0 1-.612-.164 1.87 1.87 0 0 1 .058-.271c.029-.098.06-.185.092-.264zm6.508.67a2.44 2.44 0 0 1-.024-.352c0-.123.007-.241.024-.358a2.422 2.422 0 0 1 .713 0 2.52 2.52 0 0 1 0 .71 2.424 2.424 0 0 1-.713 0zm9.35-5.507h-1.107a.815.815 0 0 1-.012-.113 2.278 2.278 0 0 1 0-.276.882.882 0 0 1 .012-.121h1.675v4.82c0 .246-.038.453-.116.62-.08.167-.184.302-.314.402-.131.1-.281.171-.448.214-.169.04-.341.062-.52.062a2.544 2.544 0 0 1-.77-.11 1.84 1.84 0 0 1 .141-.51c.074.023.157.043.252.063a1.655 1.655 0 0 0 .615 0c.104-.02.2-.058.29-.117a.64.64 0 0 0 .218-.255c.055-.112.083-.26.083-.443zm5.645-.51c.038-.006.092-.01.158-.013a4.703 4.703 0 0 1 .373 0c.064.003.116.007.155.013l2.01 6.017c-.033.006-.081.01-.142.013a4.021 4.021 0 0 1-.335 0 1.666 1.666 0 0 1-.143-.013l-.502-1.531h-2.48l-.476 1.531a3.582 3.582 0 0 1-.49.013 1.298 1.298 0 0 1-.14-.013zm1.407 3.95l-1.08-3.348-1.064 3.348zm4.566-3.95c.032-.006.086-.01.158-.013a5.49 5.49 0 0 1 .402 0c.073.003.129.007.168.013l1.683 4.009 1.668-4.01c.033-.005.088-.01.163-.012a5.68 5.68 0 0 1 .39 0c.072.003.127.007.167.013l.293 6.017a2.786 2.786 0 0 1-.577 0l-.227-5.121-1.659 3.875a.42.42 0 0 1-.117.015H157.356a.411.411 0 0 1-.113-.015l-1.64-3.884-.244 5.13a2.789 2.789 0 0 1-.579 0zm8.752 0h3.225a2.258 2.258 0 0 1 0 .527h-2.646v2.034h2.127c.006.034.01.075.013.121a2.39 2.39 0 0 1-.013.406h-2.127v2.402h2.721a2.276 2.276 0 0 1 0 .527h-3.3zm6.39 5.348c.079.022.16.047.244.076.083.027.177.052.28.075a3.494 3.494 0 0 0 .792.083c.269 0 .498-.032.692-.096.192-.064.35-.151.477-.26.125-.109.219-.236.281-.384.06-.149.092-.308.092-.482 0-.167-.021-.311-.064-.431a.849.849 0 0 0-.218-.33 1.689 1.689 0 0 0-.427-.29 7.659 7.659 0 0 0-.681-.296 6.532 6.532 0 0 1-.558-.235 1.925 1.925 0 0 1-.465-.305 1.318 1.318 0 0 1-.318-.43 1.484 1.484 0 0 1-.118-.629c0-.452.164-.816.491-1.096.327-.279.802-.419 1.427-.419.123 0 .248.006.374.018.126.01.243.025.352.04a4.606 4.606 0 0 1 .523.117 2.766 2.766 0 0 1-.117.504 3.467 3.467 0 0 0-.515-.122 3.633 3.633 0 0 0-.625-.055c-.463 0-.795.095-.996.285-.2.19-.303.43-.303.72 0 .151.031.281.094.393.06.111.145.21.254.294.11.083.24.16.39.229.15.07.313.138.486.205.235.096.454.194.657.294.204.1.378.217.524.35.146.134.26.292.344.474.083.18.125.4.125.657 0 .29-.052.548-.155.774-.103.226-.25.416-.44.568-.19.154-.421.272-.695.352-.274.08-.58.122-.922.122a3.99 3.99 0 0 1-.82-.071 6.403 6.403 0 0 1-.611-.164c.011-.083.03-.174.058-.271.028-.098.06-.185.092-.264z"/></g></g></svg>