<svg xmlns="http://www.w3.org/2000/svg" width="163" height="45" viewBox="0 0 163 45"><g><g><path fill="#263a41" d="M51.21 7.386c.108.117.153.29.052.476-.16.295-.34.58-.524.859-.026 3.75-10.229 7.229-13.164 8.206a16.746 16.746 0 0 0 2.898-.786l-.227.121c9.36-2.82 8.947-1.073 6.974 1.652-.063.121-.127.242-.193.361l.044.15-.144.023a13.347 13.347 0 0 1-2.191 2.814c-.588.88-1.028 1.721-1.12 2.436-.508.738-.972 1.505-1.492 2.236-1.322.995-3.032 2.162-3.268 2.297 2.01-.254 2.246-.606 2.694 1.008a8.932 8.932 0 0 1-1.09 1.027c-.008.006-.013.014-.021.02-1.34.565-3.229 1.435-2.617 2.834.245.562-5.205 2.793-6.614 3.366.084-.07.17-.147.258-.229l-.292.12a.182.182 0 0 1-.029.134l.063-.025-.102.084-.045.01c-.087.057-.176.107-.264.16v.001c.003.004.005.01.009.014.023-.004.044-.013.067-.017l-.056.034c.046.08.04.184-.065.234l-.396.19a.188.188 0 0 1-.215-.027c-.116.033-.232.066-.348.104a.153.153 0 0 1-.115-.008 2.49 2.49 0 0 0-.293.286c-.478.149 5.326-1.207 4.767-.404.708-.607-1.469-.371-1.73-.322-.578-.134-1.092-.16-1.549-.087.076-.05.153-.106.233-.168 4.267-.91 3.871.213 2.2 1.82a.19.19 0 0 1-.043.15A10.933 10.933 0 0 1 30.403 41c-.054.307-.264.467-.494.698-.263.263-.534.516-.811.762.026.07.016.147-.056.202l-.374.287a.189.189 0 0 1 0 .096c-.069.206-.228.37-.412.516a.202.202 0 0 1-.064.15l-.08.08c.025.074.015.154-.057.21-.363.281-.726.56-1.093.835-.214.161-.449-.171-.287-.355a.234.234 0 0 1-.057-.083c-.04.001-.08.004-.123.004a.219.219 0 0 1-.162-.073 8.53 8.53 0 0 0-.118.032c-.257.069-.405-.288-.18-.424.037-.022.074-.04.111-.062-.108-.092-.14-.27-.008-.353l.003-.044a.2.2 0 0 1-.057-.009l-.546.135c-.236.058-.354-.205-.244-.36-.11-.074-.136-.25-.028-.346a.2.2 0 0 1-.21-.139c-.017.016-.034.029-.05.045a1.727 1.727 0 0 1-.034-.334l-.075.017-.061.015c-.144.034-.32-.135-.214-.275.078-.104.163-.2.243-.3l-.053.047c-.078.066-.188-.036-.115-.113l.196-.21a3.668 3.668 0 0 1-.278-.032c-.13-.021-.197-.188-.152-.307-.056.021-.111.046-.168.067-.132.049-.295-.079-.287-.218a.534.534 0 0 1 .22-.42c-.115.051-.23.101-.348.149-.003 0-.005.002-.007.003l-.052.022c-.229.09-.379-.278-.17-.392l-.355.119c-.145.049-.246-.083-.237-.207l-.032.014c-.037.018-.071-.036-.033-.055.03-.016.062-.03.092-.045a.181.181 0 0 1 .063-.06l.004-.002c-1.477.437-2.748.618-3.575.187.618-.533 4.918-2.977 5.673-3.116.487-1.178 1.939-1.653 4.217-2.762-.35.117-4.828 1.696-8.342 3.085.143.266.078.647-.304.763-.959.29-1.922.566-2.887.837a.764.764 0 0 0-.476-.157c-.055-.027-.11-.05-.166-.073-.059.012-.117.026-.177.037-.115.02-.244-.064-.238-.187a1.943 1.943 0 0 0-.318-.057l-.136.023a.223.223 0 0 1-.133-.022c-.042.003-.082 0-.124.006-.024-.022-.047-.041-.071-.064-.046-.044-.104-.096-.167-.153a10.425 10.425 0 0 1-.16-.145l-.002-.003c-.02-.02-.04-.036-.062-.056a.543.543 0 0 1-.027-.205l-.01.001a.203.203 0 0 1-.2-.076c-.019-.011-.04-.02-.057-.032a.864.864 0 0 1-.162-.279c-.049-.172.002-.371.107-.58.027-.026.05-.053.085-.074l.012-.008c-.053-.07-.055-.175.045-.246.047-.033.088-.068.132-.102l.03-.04c-.077-.058-.113-.167-.021-.239l.502-.393a.116.116 0 0 1 .048-.067c.06-.043.121-.078.181-.115a.168.168 0 0 1 .048-.05l.07-.049a.485.485 0 0 1 .158-.166c.26-.163.525-.312.793-.455.293-.758 5.31-2.03 6.488-2.576.023.02-.42.236-.087.127 3.63-2.806 9.382-3.858 13.45-5.576-.14.077-.436.207-.185.137.159-.065.32-.135.482-.202-5.494.509-14.161 5.775-19.32 6.67a.589.589 0 0 1-.504.396 9.933 9.933 0 0 1-2.588-.067 4.35 4.35 0 0 1-.73-.095 14.9 14.9 0 0 1-1.757-.285c-.032.118-.02.258.05.428a28.852 28.852 0 0 0-.212-.491c-.186-.111-.26-.322-.235-.528-.084-.194-.061-.192.047-.181a.587.587 0 0 1 .211-.255c.335-.223.67-.405 1.019-.557 2.198-1.987 7.741-3.174 10.763-4.526-.653.224-1.317.44-1.977.641l.283-.113c-1.774.647-7.314 3.055-8.683 1.858.678-.326-1.174-.494-1.955.059a62.916 62.916 0 0 1-.4-1.466c-.035-.134 6.253-2.55 7.14-2.883-1.084.467-1.439.65-1.057.544 1.145-.527 9.326-2.858 7.304-2.79 3.03-1.228 5.622-1.98 8.35-2.843l-1.008.371c1.187-.333 2.939-.898 3.909-1.271a96.43 96.43 0 0 0 7.803-2.792h-.154a.768.768 0 0 0 .352-.087c-2.255.366-4.477.927-6.723 1.346.11-.032.078-.043.078-.043-4.73 1.01-8.965 2.535-13.462 4.189l.31-.202c-.507.153-1.006.34-1.505.525.037-.024.076-.044.112-.07-.107.053-.215.1-.323.148-.347.129-.693.256-1.044.37-.106.029-.212.058-.32.083 1.402-.198.255.214-3.438 1.235 1.297-.4-3.99 1.224-4.478 1.418-.357.099-1.44.397-2.602.738a.53.53 0 0 1-.196.138c-1.08.47-2.203.913-3.359 1.158-.615.13-.903-.712-.397-.963l-.121-.315c.607-.045 1.346-.577 1.849-.634.363-.231 3.15-1.69 3.82-1.993a78.171 78.171 0 0 1 2.85-1.393c-.435.228-.367.235-.53.353.579-.312 1.18-.621 1.788-.93A738.329 738.329 0 0 1 8.2 25.023a.501.501 0 0 1-.216.222c-.411.222-.8.269-1.241.1a.733.733 0 0 1-.411-.411c-.207-.052-.356-.244-.404-.455a.668.668 0 0 1-.146-.192 6.913 6.913 0 0 1-1.573-.088c-.414-.074-.507-.52-.351-.838-.103-.189-.063-.36.425-.524-.11.03-.222.058-.334.086 5.119-2.696 10.772-5.065 16.854-7.37-4.174.744-8.226 2.35-12.295 3.763-.305.124.764-.49 1.699-.932-.767.235-2.17 1.04-3.052 1.193-1.402.494-1.783.417-2.446.77 1.199-.334 1.526-.326 1.523-.26l-1.396.416.258-.132c-.42.105-.809.135-1.145.098-.245-.424-1.212-2.068-.002 0-.567-.061-.984-.31-1.145-.705-.379-.927-.41-.85.186-1.216l-.007-.007c-.005-.006-.008-.013-.014-.018l-.306.061a.553.553 0 0 1-.611-.265l-.325.046c-.138.011.013-.033.293-.104a.598.598 0 0 1-.054-.218c-.323-.027-.625-.131-.782-.447-.371-.752.485-1.285 1.343-1.627-.022-.064-.016-.048 0 0l.117-.044c.056-.028.134-.058.24-.095a1.34 1.34 0 0 0-.033.02c.35-.123.668-.213.875-.272.73-.473 1.726-1.174 2.816-1.723-.19.104-.375.217-.553.347-.099.056-.044.025.026-.013.185-.096.831-.374 1.342-.587-.105.005-.251.029.172-.157a4.603 4.603 0 0 0-.397.133l.063-.03c-1.074.343-2.206.796-3.389 1.047.29-.015.571-.067.855-.116-.287.097-1.65.74-2.042.14.099-.02.13-.049.091-.085.097-.017.26-.17.331-.23-.025.01-.053.014-.079.022l-.005.002c-.502.188-1.073.36-1.634.415-.423.086-.489.08-.346.02-.093 0-.186-.004-.278-.012-.04-.004-.073-.018-.108-.03-.127.124-.088.24-.24-.188a.485.485 0 0 1-.077-.217c-.065-.18-.15-.414-.272-.727-.003-.009 5.98-2.857 6.057-2.886a29.74 29.74 0 0 0-1.686.943c.108-.052 3.794-1.947 3.023-1.373 2.332-1.737 5.332-2.14 7.928-3.307-.456.131.445-.287-.21-.058.82-.325 1.308-.406 1.57-.459a.588.588 0 0 1-.187-.548c-.63.11-2.365.612-2.063.494l-.092.022c.48-.18.959-.363 1.436-.55-.594.184-1.178.396-2.04.67.382-.164.918-.332 1.3-.48-3.592 1.227-6.75 2.214-10.298 3.735a8.017 8.017 0 0 0-1.385.59l.15-.046-.525.242c-.956.592-2.128 1.367-2.521.659.017-.005.01-.02-.023-.042.63-.26.843-.655 1.004-.972-.188.073-.338-.206-.195-.336C2.515 8.734 4.01 7.941 5.57 7.25c1.654-.734 3.304-1.475 4.958-2.21.002-.002.005 0 .008-.001l.318-.156-3.536 1.35c-1.223.555-2.297 1.058-2.696 1.28l1.046-.592c-.956.383-1.942.723-2.86 1.18l.06-.08c.164-.104.336-.21.52-.315l-.38.13.099-.127c.507-.268 1.019-.526 1.533-.78a.206.206 0 0 1 .133-.158l.583-.223c.106-.05.207-.106.307-.163-.127.056-.256.105-.382.167-.162.08-.307-.055-.31-.19l-.251.11a.22.22 0 0 1-.188-.003c-.148.042-.316.088-.524.144l.251-.095c-.065.022-.18.068-.317.119l.272-.347c.07-.026.14-.053.211-.078a.215.215 0 0 1 .083-.1c.551-.36 1.12-.685 1.698-.991-.005 0-.01.002-.014.004-.641.334-1.258.661-1.83.966a.858.858 0 0 0 .12-.256 21.43 21.43 0 0 1 .816-.425c-.006.002-.012.001-.019.002-.265.108-.526.221-.784.344a.838.838 0 0 0 .006-.246c.186-.09.373-.175.555-.258-.018-.077.003-.16.09-.202a66.699 66.699 0 0 1 2.619-1.185l.038-.018c-.367.134-.736.267-.61.173.359-.147 1.135-.47 1.557-.627 1.41-.671 2.83-1.325 4.257-1.959-.974.219-1.912.529-2.872.948-.04.017-.078-.038-.036-.062.144-.082.292-.16.442-.235-.207.066-.413.132-.617.204-.223.11-.445.219-.666.33.188-.106.414-.217.645-.322-.12.042-.24.082-.359.128-.069.026-.117-.088-.05-.119a17.28 17.28 0 0 1 1.075-.445c.937-.595 1.93-.944 2.977-1.044a.685.685 0 0 0-.374.237C13.677.924 14.186.805 14.7.691a.18.18 0 0 1 .152.039l.048-.015a.2.2 0 0 1 .115-.003c-.071-.062.62-.184.596-.162.09 0-.133.154-.14.159.02-.002.038-.006.055-.01-.014.025-.025.05-.04.074a.473.473 0 0 1 .117-.097c.025-.044.052-.088.066-.137-.09.015-.057.023-.012-.071.131.245.003.405-.21.546a.201.201 0 0 1-.053.156l-.12.128.03-.008a.196.196 0 0 1 .109.003l.467-.098c.092.15.113.229.105.279.151-.05.363.081.292.245.984-.185 1.978-.279 2.988-.266 1.506 2.028-9.36 5.685-9.922 5.935 4.396-1.46 9.333-4.113 14.094-3.852-.062.048-.008.071.034.17.06-.054.01-.072-.03-.17.46-.06.575.221.345.848.11.273-1.168.93-2.979 1.709-1.929.954-4.013 1.689-6.05 2.401-2.21.839-4.079 1.528-4.532 1.743 1.19-.379 13.29-4.242 12.125-3.519 1.124-.107 1.122.366.328.967 1.156-.108.168.287-.64.586 2.17-.746 3.174-.443 3.004.916-.025-.01-.048-.015-.072-.024.022.134-.021.277-.166.398a13.756 13.756 0 0 1-2.09 1.446l-.009.021c2.73-.697 5.342-2.025 7.985-3.015-.011.001-.489.083-.78.146-.181-.009-.351.02-.51.093-.924.184-1.884-.238-.653-.962l-.026.026c.192-.076.398-.23.543-.37.134-.008-1.733-.044-1.812-.28-.363-1.094-.387-.986-.148-1.215-.015.032-.015.071.009.127 1.408-2.075 5.19-4.046 7.858-4.52a34.154 34.154 0 0 1 3.106-.892c.719-.168 1.026.914.306 1.102-.382.1-.763.203-1.145.305-.497.256-1.034.46-1.555.626l.023-.021c-1.204.345-2.439.776-3.566 1.38 3.23-.414 6.415-1.598 9.47-2.391l.437-.146a.753.753 0 0 0-.006-.017l.006.017.248-.083a.16.16 0 0 1 .171.036l.115-.03c.137-.036.22.086.204.192.055.094.03.231-.11.286l-.118.047a.197.197 0 0 1-.012.113c.024.068.017.144-.033.198.126.077.135.313-.048.385-.017.005-.03.011-.047.017.043.095.03.215-.08.263-.016.007-.033.011-.05.019v.002c-.07.029-.138.061-.207.092.02.084-.003.173-.095.213-.033.014-.063.031-.096.046.1.09.128.249-.026.319a3.19 3.19 0 0 0-.314.166c8.288-1.745.735 2.38-3.178 3.853 1.13-.303 2.218-.59 3.447-.806-.22.056-.316.171-.052.114a77.95 77.95 0 0 0 4.632-1.007c.007.025.068.199.155.433h.004a20.41 20.41 0 0 0-.158-.433c.81-.205 1.614-.423 2.39-.672.011.04.025.076.033.09l.004-.002v-.003.003c.258-.083.514-.158.78-.22.095-.023.176.029.22.1h.01c.05-.003.09.012.12.037l.044-.006c.189-.025.293.152.228.28a.457.457 0 0 1 .495.273c.363.169.394.772.018.977.028.043.05.091.066.142.363.159.49.674.203.931zM40.315 4.827c.256-.085.512-.17.763-.258-.267-.053-.477.006-.63.177-.044.028-.089.054-.133.081zm-.492-1.452a1.619 1.619 0 0 1-.845.55 9.501 9.501 0 0 0 1.28-.386c-.08-.098-.158-.126-.233-.085a.627.627 0 0 0-.202-.08c-.282.139-.013.01 0 0zM18.056 2.06c.02.031.035.066.037.102.252-.06.481-.121.66-.186a4.877 4.877 0 0 0-.698.084zm-.404.673c.011.022.02.045.024.07.06-.034.12-.068.178-.103l-.202.033zm-1.607 1.333c.11-.05.312-.153.552-.293l-.258.111a12.07 12.07 0 0 1-.117.072c.096-.047.216-.107.375-.183-.139.074-.28.143-.42.212l-.132.081zM15.416.918l.005.006c.025-.027.046-.056.07-.084a1.503 1.503 0 0 1-.075.078zm.265 2.866c-.43.188-.86.376-1.288.57l-.144.078a.234.234 0 0 1 .117.073c.446-.224.884-.466 1.315-.72zm-1.564.016c.385-.135.77-.268 1.156-.4.21-.12.417-.242.624-.365l-.08.015c-.569.246-1.135.495-1.7.75zM7.758 5.488l-.792.298c-.001.02-.01.039-.02.059.27-.12.54-.24.812-.357zm3.744-1.29a48.95 48.95 0 0 1 1.657-.679c-.921.312-1.4.462-.857.162-.591.315-1.197.612-1.807.902l1.007-.385zm-9.737 6.22l-.092-.293-.004.002c.025.079.055.174.096.29zm13.847-3.535c.407-.125.79-.244 1.162-.368a.544.544 0 0 1-.088-.063c-.413.163-.883.354-1.074.43zm14.384 17.481c1.526-.368-4.134 1.312-1.74.724 4.223-1.436 8.151-2.634 12.214-4.358-.537.282-.708.402-.506.358.39-.216.835-.442 1.302-.671a137.406 137.406 0 0 0-10.19 2.966l.232.025-.349.113.076-.125c-1.024.34-2.043.687-3.058 1.043-.664.234-10.346 3.7-7.563 2.697l-1.577.468c.212-.13 1.603-.537 1.088-.431-.222.082-6.196 1.733-6.005 2.327 1.687-.198 2.99-.75 4.532-1.395l-.077-.004c1.614-.64 3.298-1.174 4.968-1.65 4.28-1.322 6.793-2 6.653-2.087zm11.632-1.334a13.013 13.013 0 0 0-4.55.75c1.342-.33 4.51.023 5.638-.817zm1.264-.929c-.169-.428-.568-.085-.976.058l.976-.058zm-14.524 6.461c-.555.194-11.67 3.401-12.877 4.409.233.009.466.014.701.012.043 0 .076.012.113.018.805-.137 1.603-.31 2.394-.514 3.163-1.442 6.41-2.72 9.669-3.925zm-8.023 7.057l.492-.218c.462-.322.466-.383-.43.175zm-2.556 1.303c1.186-.303 2.262-.748 2.007-1.528-.28.155-.566.336-.855.516a.49.49 0 0 1-.233.35c-.283.163-.572.312-.86.46a.68.68 0 0 1-.06.202zm13.985-4.056c2.583-.758 4.962-1.797 6.041-3.496-1.13 1.78-6.164 3.319-10.636 4.63.78-.177 1.606-.362 2.442-.564-3.828 1.272-9.11 3.113-11.88 4.305a.62.62 0 0 1 .186.178c4.693-1.508 9.234-3.344 13.847-5.053zm-3.239 4.051c-1.75.386-3.702 1.505-5.27 2.243.657-.21 1.302-.436 1.949-.676l.087-.032a90.372 90.372 0 0 1 3.234-1.535zm-1.957 4.252l-.01.006-.132.12.115-.071a.461.461 0 0 0 .027-.055zm.948-2.819c.157-.09.287.04.282.177l.275-.164a.155.155 0 0 1 .124-.02c.262-.172.489-.392.67-.67a56.17 56.17 0 0 0-2.916 1.065c.173.02.34.033.5.037.018-.008.035-.017.052-.027.072-.038.15-.02.211.02l.084-.001zm-.238 1.973c.797-.459.689-.721 1.044.022-.216-.276-.833.129-1.096.457a.215.215 0 0 1 .104.08c1.715-1.03 3.767-1.46 5.394-2.89 0 0 .04-.033.16-.146.141-.188.559-.476.473-.582-2.262-.137-5.272.692-6.079 3.059zm9.112-7.616c-3.396.342-7.307 2.182-9.931 4.203 2.675-.355 7.76-2.806 9.833-4.14a1.45 1.45 0 0 0 .098-.063zm.86-.767c-.384-.18-.755-.147-1.113.103.075-.017.865-.144 1.112-.103zm.081-1.146c.424-.173.846-.35 1.263-.536-.185.121-.6.297-.254.183.825-.395 1.675-.807 2.502-1.31.84-.347-.321-.277-.642-.252-2.237-.037-1.46.567-2.869 1.915zm3.782-5.4c-1.52.022-2.805.814-4.239 1.26 1.962-.243 2.175-.013 3.958-1.083.094-.056.188-.117.281-.177zm.183-1.463c-2.982.217-5.938 1.127-8.654 2.097.21-.108.394-.236.056-.162-1.426 1.037-3.86 1.536-5.45 2.196 3.799-1.236 7.672-2.444 11.595-3.212-.059.014-.048.02.131.009.461-.03.891-.157 1.291-.38.342-.19.691-.36 1.03-.548zm1.688-.061c-.204-.012-1.57.967-1.23.765.437.105.891-.245 1.23-.765zm1.812-4.133c-1.442.436-2.648 1.134-4.247 1.874a28.637 28.637 0 0 0 3.737-1.319 16.3 16.3 0 0 0 .51-.555zm1.777-2.54c-2.185.97-4.564 1.6-6.822 2.363 1.634-.37 4.402-.319 5.854-1.307a.403.403 0 0 0 .03-.018c.086-.063.098-.072.083-.063.187-.139.453-.353.64-.56.069-.111.142-.218.208-.332a.217.217 0 0 0 .007-.083zm-2.096-1.163c.83.283 1.93.368 2.838-.152l-.854-.014c-.684.075-1.35.094-1.984.166zm2.142-8.945c-.663-.298-1.307-.307-1.93-.026l.316-.154c-.93.257-1.883.526-2.85.806l-.243.081c-1.2.399-2.17.748-2.485.895-.394.085 7.088-1.317 7.192-1.602zM44.52 9.96c.352-.074.705-.148 1.06-.217-.19-.436-.543-.363-1.06.217zm-5.572.357c1.356.092 2.59-.166 3.703-.775-.55.09-.646.111-.572.103-1.105.2-2.16.436-3.13.672zm-3.61-3.916c2.75-.863 1.634-.414 1.486-.566-.466.118-1.01.385-1.485.566zM32.52 4.537c-2.004.274-2.003-.517-3.705.982.187-.02.378-.045.574-.06l-.205.132c.533-.252.28.102.837-.268.813-.032 1.734-.538 2.499-.786zm-.792 3.093l.528-.193c-.032-.214-.208-.15-.528.193zm-.653.178l.102-.052c-.053-.024-.312.072-.446.12.311.025.605-.043.88-.202l-.26-.023c.229.022-.174.105-.276.157zm.54-2.151c-.322-.367-.376.105-.645.281a1.28 1.28 0 0 0 .645-.281zm-5.353 8.473c3.556-1.227 7.135-1.054 10.437-2.334.958-.238 2.29-.613 2.064-1.433-1.46.357-4.425 1.43-6.208 1.626.767-.19 1.274-.343 1.665-.462-2.512.677-3.879 1.047-6.979 2.123l-.374.13a48.75 48.75 0 0 1-.605.35zm-5.388-6.37c.486.105.606.047 1.075-.242a1.595 1.595 0 0 0-1.075.242zm-9.603 3.895c-.438.238-.963.51-1.555.796l.202-.059c-.433.193-.634.273-1.094.493.396-.143 5.405-2.49 2.533-1.229 2.48-1.19 3.559-1.512 6.162-2.507a2.226 2.226 0 0 0-.15.025c.257-.08.51-.164.753-.26-.81.168-1.458.333-1.418.253-.061.016-.1.026-.128.036-.657.19-2.928.96-1.917.721.46-.135.943-.258 1.429-.385-3.091 1.005-9.216 3.5-6.66 2.354-1.714.758-3.501 1.405-5.253 2.07 3.214-1.23.542-.456.049-.133l.149-.112c-.34.072-.613.265-.823.578.202-.167.483-.343.674-.466-.105.077-.211.155-.319.237.648-.253-.287.227-.403.321.229-.04-.08.054-.126.068.863-.052 2.025-.494 2.868-.797a9.77 9.77 0 0 1 .381-.134c1.149-.278 2.85-1.187 4.646-1.87zm-1.6.13zM4.9 16.633c.355-.096.474-.134-.05-.014a.77.77 0 0 1 .05.014zm.324.24a5.686 5.686 0 0 0 1.489-.619c-.467.166-1.131.261-1.781.389a.66.66 0 0 1 .292.23zm.561 2.272c.3-.09.6-.183.903-.282-.942.216-.787.085-1.244.37l.243-.057a1.39 1.39 0 0 0 .098-.031zm4.23-2.777c.164-.169-.45.105-.523.039.19-.082.376-.162.564-.241-.693.229-3.677 1.758-1.606.566-.553.188-1.091.41-1.616.667.094-.047.241-.124.4-.207a3.372 3.372 0 0 0-.936.35c.189-.017.368-.065.536-.143-.652.319-1.027.402-1.73.829l.666-.315c-.105.107-.366.268-.673.46.131-.028.387-.165.627-.306l-.379.25h.002c.368-.216.793-.332 1.895-.916-.17.1-.304.19-.368.264 1.115-.582 2.04-.736 3.142-1.297zm3.384-.944a32.154 32.154 0 0 0-4.667 1.973 52.09 52.09 0 0 0 3.522-1.234c.365-.249.752-.502 1.145-.74zm2.744-3.056c1.182-.454 2.405-1.078 3.235-1.502-2.582.667-5.19 1.774-7.55 3.017.02.027.472-.151 1.075-.405-.429.212-.854.43-1.273.662 1.027-.39 4.653-1.914 3.62-1.46.63-.189.885-.292.893-.312zm3.674-.546c-.009-.02-.01-.041-.017-.061-.435.175-.878.34-1.258.514.369-.123.74-.235 1.11-.352l.165-.101zm-.048.064l.074-.023-.01-.014-.064.037zm.538 2.276c-1.123.39-1.88.718-2.832 1.098.62-.166 1.245-.31 1.833-.522-.01-.036-.01-.032 0 0 .164-.06.327-.122.485-.194zm1.42-4.642c.145.352.13.649.014.908.75-.428 1.467-.91 2.147-1.454-1.745-.191-3.264.26-4.825 1.048-1.448.353 2.634-.577 2.665-.502zm-2.376 8.942c-.58.255-.674.331-1.116.543 4.37-1.593 8.493-3.573 12.569-5.108-5.884 1.312-11.438 4.33-16.966 6.633 2.135-.889 1.204-.44.25-.09 1.815-.635 3.487-1.315 5.263-1.978zm20.56-3.605c-8.967 1.184-17.25 5.312-25.36 9.152 5.664-1.307 11.256-4.324 16.844-6.085-.368.138-.865.308-1.01.386 2.621-.862 5.32-1.541 7.786-2.805 1.176-.428.651-.42 1.74-.648zm.148-2.418l-.748.116c2.004-.495 3.982-1.204 5.958-1.803-3.186.658-7.738 1.354-10.517 3.08 1.76-.5 3.529-.97 5.307-1.393zm5.72.834c-.846.002-1.686.079-2.521.232l.664.04c-1.346.027-2.224.436-3.463.777.348 1.135 3.755-.675 4.669-.903-.528.265-2.479.875-1.013.482.504-.11 1.03-.266 1.5-.528-.314.015-.63.026-.943.055.298-.138.619-.16.96-.065.05-.029.098-.06.147-.09zm3.24-4.107l.138-.08a.59.59 0 0 1-.398.019c-1.097.064-1.97-.11-3.089.376.341.5 3.856-.395 3.349-.315zm19.897-.106v12.098H66.5v-5.28h-4.783v5.28h-2.401V9.06h2.4v4.898H66.5V9.06zm10.655 9.243h-4.577l-1.037 2.855h-2.624L75.772 9.06h3.023l4.438 12.098h-2.626zm-.795-2.182c-.207-.576-.389-1.079-.544-1.505a4191.508 4191.508 0 0 0-.94-2.579l-.76 2.043c-.093.253-.185.504-.278.751l-.241.659c-.07.19-.144.4-.225.631zm16.665 5.037h-3.177l-4.438-9.087v9.087H85.53V9.06h3.177l4.438 9.069v-9.07h2.297zm3.54 0V9.06h4.473c.886 0 1.687.153 2.4.458.714.306 1.321.73 1.822 1.273a5.641 5.641 0 0 1 1.157 1.921c.272.738.406 1.54.406 2.406 0 .865-.134 1.667-.406 2.406a5.562 5.562 0 0 1-1.157 1.913 5.336 5.336 0 0 1-1.822 1.263c-.713.305-1.514.458-2.4.458zm2.452-1.921h1.83c.542 0 1.026-.109 1.451-.328a3.26 3.26 0 0 0 1.08-.884 3.83 3.83 0 0 0 .665-1.306 5.57 5.57 0 0 0 .224-1.601 5.67 5.67 0 0 0-.224-1.61 3.833 3.833 0 0 0-.666-1.315 3.267 3.267 0 0 0-1.079-.884 3.138 3.138 0 0 0-1.45-.328h-1.831zM125.819 9.06v12.098h-2.297v-9.78l-3.367 9.78h-2.177l-3.368-9.78v9.78h-2.297V9.06h3.662l3.092 9.087 3.09-9.087zm10.656 9.243h-4.577l-1.036 2.855h-2.625l4.438-12.098h3.023l4.438 12.098h-2.625zm-.795-2.182c-.206-.576-.389-1.079-.544-1.505l-.492-1.35-.449-1.229-.76 2.043c-.092.253-.183.504-.277.751l-.241.659c-.07.19-.144.4-.225.631zm6.873 5.037V9.06h4.474c.886 0 1.686.153 2.4.458.713.306 1.32.73 1.822 1.273a5.643 5.643 0 0 1 1.157 1.921c.271.738.405 1.54.405 2.406 0 .865-.134 1.667-.405 2.406a5.563 5.563 0 0 1-1.157 1.913 5.337 5.337 0 0 1-1.822 1.263c-.714.305-1.514.458-2.4.458zm2.452-1.921h1.831c.541 0 1.026-.109 1.45-.328.427-.22.788-.514 1.08-.884.294-.37.516-.804.665-1.306a5.57 5.57 0 0 0 .225-1.601 5.67 5.67 0 0 0-.225-1.61 3.835 3.835 0 0 0-.665-1.315 3.268 3.268 0 0 0-1.08-.884 3.139 3.139 0 0 0-1.45-.328h-1.83zm13.298 0H163v1.921h-7.115V9.06H163l-.397 1.921h-4.3v2.96h4.3v1.921h-4.3zM76.464 29.829l-2.867 12.099h-3.16l-2.47-9.658-2.47 9.658h-3.16L59.47 29.829h2.383l1.986 9.503 2.626-9.503h3.004l2.625 9.503 2.004-9.503zm5.319 0v12.099h-2.4V29.829zm12.21 0v1.887h-3.454v10.212h-2.401V31.716h-3.471V29.83zm12.693 0v12.099h-2.419v-5.28h-4.782v5.28h-2.402V29.829h2.402v4.898h4.782V29.83zm17.942 12.099h-7.236V29.829h2.4v10.178h4.836zm8.41-12.288c.61 0 1.26.089 1.951.267a5.04 5.04 0 0 1 1.908.97c.583.467 1.066 1.107 1.451 1.921.386.813.58 1.849.58 3.106 0 1.27-.194 2.31-.58 3.116-.385.808-.868 1.44-1.45 1.895a5.05 5.05 0 0 1-1.909.943c-.69.173-1.34.26-1.95.26-.61 0-1.262-.087-1.953-.26a5.136 5.136 0 0 1-1.917-.943c-.586-.455-1.073-1.087-1.459-1.895-.385-.807-.578-1.846-.578-3.116 0-1.257.193-2.293.578-3.106.386-.814.873-1.454 1.46-1.921a5.127 5.127 0 0 1 1.916-.97 7.838 7.838 0 0 1 1.952-.267zm0 10.592c.483 0 .933-.086 1.347-.26a2.799 2.799 0 0 0 1.07-.788c.3-.351.533-.8.7-1.35.168-.547.251-1.197.251-1.947 0-.727-.083-1.365-.25-1.913-.168-.547-.401-1-.7-1.359a2.853 2.853 0 0 0-1.071-.804 3.364 3.364 0 0 0-1.347-.269c-.483 0-.932.09-1.347.27-.414.178-.774.45-1.08.813-.305.363-.54.816-.707 1.358-.167.543-.25 1.183-.25 1.921 0 .75.083 1.397.25 1.94.167.542.402.989.708 1.34a2.88 2.88 0 0 0 1.079.787c.415.175.864.26 1.347.26zm19.636-10.403l-4.058 12.099h-3.006l-4.144-12.099h2.435l3.212 9.503 3.126-9.503zm5.543 10.178h4.697v1.92h-7.115V29.83h7.115l-.397 1.921h-4.3v2.96h4.3v1.921h-4.3z"/></g></g></svg>