<?xml version="1.0" encoding="UTF-8" standalone="no"?>
<svg
   xmlns:dc="http://purl.org/dc/elements/1.1/"
   xmlns:cc="http://creativecommons.org/ns#"
   xmlns:rdf="http://www.w3.org/1999/02/22-rdf-syntax-ns#"
   xmlns:svg="http://www.w3.org/2000/svg"
   xmlns="http://www.w3.org/2000/svg"
   viewBox="0 0 176.49512 125.71928"
   height="125.71928"
   width="176.49512"
   id="svg2"
   version="1.1">
  <metadata
     id="metadata8">
    <rdf:RDF>
      <cc:Work
         rdf:about="">
        <dc:format>image/svg+xml</dc:format>
        <dc:type
           rdf:resource="http://purl.org/dc/dcmitype/StillImage" />
        <dc:title></dc:title>
      </cc:Work>
    </rdf:RDF>
  </metadata>
  <defs
     id="defs6" />
  <path
     id="path817"
     d="m 25.050459,124.31417 c 0.04798,-1.16495 0.284941,-1.4019 0.604167,-0.60417 0.288871,0.72187 0.253344,1.58437 -0.07895,1.91667 -0.332292,0.33229 -0.568641,-0.25834 -0.52522,-1.3125 z m 18.696348,0.68799 c -0.161962,-0.33256 -1.736391,-1.91076 -3.49873,-3.50711 -2.752339,-2.4931 -3.431655,-2.71373 -4.816624,-1.5643 -1.352631,1.12258 -1.75872,1.10687 -2.520844,-0.0975 -1.133535,-1.79138 -1.133489,-1.7711 -0.01277,-5.67882 1.087471,-3.79179 -0.205747,-5.19537 -2.73934,-2.97312 -2.461994,2.15945 -5.815575,2.95673 -9.257249,2.20081 -2.462304,-0.54081 -2.807538,-0.92689 -1.855084,-2.07452 0.952257,-1.14745 0.71901,-1.4101 -1.252209,-1.4101 -1.332345,0 -2.857706,0.43526 -3.389692,0.96725 -1.108289,1.10829 -5.4327531,0.24552 -5.4327531,-1.08388 0,-0.48585 0.675,-0.88337 1.5000001,-0.88337 0.825,0 1.5,-0.60501 1.5,-1.34446 0,-0.73945 1.120664,-2.64866 2.490364,-4.24268 1.495325,-1.74022 2.267512,-3.600374 1.932613,-4.655544 -0.306764,-0.96653 -0.07743,-1.75732 0.509635,-1.75732 0.587064,0 1.067388,-0.675 1.067388,-1.5 0,-0.825 0.7875,-1.51368 1.75,-1.53041 1.526558,-0.0265 1.494637,-0.17521 -0.25,-1.16454 -2.606637,-1.47813 -3.593399,-2.99347 -3.000589,-4.60793 0.263121,-0.71658 -0.84328,-2.06142 -2.458669,-2.98852 -1.615388,-0.92711 -3.47936,-2.81581 -4.1421591,-4.19712 -1.708092,-3.55977 -1.908588,-11.07041 -0.31188,-11.68313 1.7791191,-0.68271 0.5847621,-3.32835 -1.502562,-3.32835 -0.936035,0 -2.5753901,-0.66069 -3.6430114,-1.4682 -1.8548726,-1.40295 -1.8152262,-1.46961 0.8922037,-1.5 1.8247057,-0.0205 2.6771617,-0.47678 2.3946327,-1.2818 -0.270266,-0.77008 -1.8380207,-1.1374 -4.0833331,-0.95672 -3.39896226,0.27351 -3.64258316,0.105 -3.61422416,-2.5 0.02556,-2.34792 0.1901179,-2.51927 1.03210586,-1.0747 0.7594198,1.30291 1.7799995,1.56721 4.2195913,1.09275 1.7698421,-0.3442 3.4759211,-1.01553 3.7912871,-1.49184 0.845037,-1.27628 -0.148325,-6.81949 -1.222076,-6.81949 -0.523127,0 -0.474047,-0.83642 0.113499,-1.93426 1.356804,-2.53521 1.312893,-2.85826 -0.440731,-3.24242 -1.225135,-0.26838 -1.2676137,-0.73143 -0.25,-2.72516 0.674253,-1.32102 2.082431,-2.89602 3.1292841,-3.500005 1.046853,-0.603986 3.377726,-2.692689 5.179717,-4.641562 1.801992,-1.948873 4.545476,-4.198873 6.096631,-5 1.551156,-0.801127 3.406839,-2.011007 4.12374,-2.688622 0.716901,-0.677616 3.712575,-2.83111 6.657053,-4.785544 2.944479,-1.954433 5.900523,-4.21252 6.568988,-5.017971 1.650505,-1.988737 5.374644,-1.960016 4.608876,0.03554 -0.788451,2.054669 2.204314,1.95234 4.532885,-0.154988 1.627255,-1.472642 1.828741,-1.481823 1.828741,-0.08333 0,0.86441 -0.5625,1.789303 -1.25,2.055319 -0.814554,0.315177 -0.11784,1.581112 2,3.634019 1.7875,1.732695 3.25,3.567899 3.25,4.07823 0,0.511524 1.133958,0.41121 2.527126,-0.22356 1.891768,-0.861948 2.813761,-0.8648 3.667217,-0.01134 0.853456,0.853456 0.783782,1.249922 -0.277126,1.57694 -4.271039,1.316518 -4.917217,1.649048 -4.917217,2.530445 0,0.530476 1.375008,0.925407 3.055573,0.877625 3.821111,-0.108643 7.846851,2.791005 10.432228,7.514094 1.909687,3.48871 1.919178,3.74758 0.241502,6.58766 l -1.746299,2.95625 2.99703,0.65825 c 1.648367,0.36205 3.271866,1.10296 3.607776,1.64647 0.368944,0.59696 1.29181,0.37185 2.33099,-0.5686 0.946135,-0.85624 4.129638,-2.01373 7.074452,-2.5722 5.870601,-1.11334 6.06475,-1.20979 6.359904,-3.15965 0.111696,-0.7379 0.63354,-2.01663 1.159652,-2.84163 0.526111,-0.825 0.963457,-1.940423 0.971879,-2.478716 0.02555,-1.63297 5.689563,-1.532434 9.265501,0.164463 1.84949,0.877643 4.55641,3.160743 6.0154,5.073563 l 2.65269,3.47786 -2.05232,3.74679 c -1.94101,3.54358 -1.95176,3.72048 -0.1982,3.26192 1.01976,-0.26668 2.09511,-1.44359 2.38965,-2.61537 0.58351,-2.32141 4.57409,-4.63051 8.00241,-4.63051 1.1886,0 3.81887,1.125 5.84504,2.5 2.02618,1.375 4.08408,2.5 4.57313,2.5 0.48904,0 1.03156,1.14906 1.20559,2.55348 l 0.31642,2.55348 6.23297,-3.12302 c 6.54007,-3.27689 9.02735,-3.27313 7.26973,0.011 -1.27886,2.38958 -1.27995,4.00505 -0.003,4.00505 0.55,0 1,-0.62686 1,-1.39301 0,-1.12587 1.97415,-2.60699 3.4748,-2.60699 1.14663,0 1.35872,3.82361 0.39121,7.05288 -0.89491,2.98693 -0.86747,4.52938 0.12311,6.92086 1.40599,3.39436 1.93927,3.38925 9.70602,-0.0929 4.67665,-2.09673 6.89326,-2.35584 7.78671,-0.91022 0.81968,1.32628 -2.23656,7.02937 -3.76698,7.02937 -0.67858,0 -1.79584,0.9 -2.4828,2 -0.68696,1.1 -1.9202,2 -2.74054,2 -0.82034,0 -1.49153,0.49814 -1.49153,1.10699 0,0.61554 0.72872,0.82735 1.64144,0.47711 1.37248,-0.52667 1.43434,-0.38034 0.37756,0.89301 -0.69514,0.83759 -2.02416,1.52289 -2.95339,1.52289 -0.92922,0 -2.60936,1.2375 -3.73364,2.75 -2.78336,3.74448 -15.82381,11.83142 -23.5245,14.58855 -3.46911,1.242074 -7.88247,3.247334 -9.80747,4.456144 -4.21167,2.64473 -4.03162,2.63474 -8.56097,0.47485 -3.44041,-1.64062 -3.69452,-1.64062 -4.89417,0 -0.69594,0.95175 -1.74371,1.73046 -2.32838,1.73046 -0.58466,0 -2.359278,1.09073 -3.943588,2.42384 -4.165567,3.50509 -11.704838,7.32035 -18.790129,9.50877 -3.391907,1.04765 -7.700626,2.83972 -9.574932,3.98237 -3.88099,2.366 -6.671979,2.60523 -10.428057,0.89385 -2.131667,-0.97125 -3.20194,-0.89389 -5.797053,0.41904 -3.517488,1.77957 -8.448755,2.81859 -8.907424,1.87679 z m -17.775295,-3.65432 c 0,-0.30231 0.686556,-1.87731 1.52568,-3.5 1.629339,-3.15079 3.47432,-3.92097 3.47432,-1.45034 0,0.825 -0.419676,1.5 -0.932612,1.5 -0.512937,0 -1.218262,0.9 -1.567388,2 -0.560526,1.76606 -2.5,2.89122 -2.5,1.45034 z M 165.97151,71.673226 c 0,-0.71205 0.9,-1.8567 2,-2.54366 1.66018,-1.0368 2,-0.99869 2,0.22427 0,0.81031 -0.9,1.95496 -2,2.54366 -1.52129,0.81417 -2,0.76049 -2,-0.22427 z m -16,-10.3802 c 0,-1.05294 0.9,-2.4765 2,-3.16346 1.6301,-1.01801 2,-0.99869 2,0.10447 0,0.74442 -0.9,2.16797 -2,3.16346 -1.93383,1.75009 -2,1.74663 -2,-0.10447 z m 23,-1.38216 c 0,-1.17493 2.84841,-2.06766 3.45673,-1.08339 0.28643,0.46345 -0.37416,1.07667 -1.46798,1.36271 -1.09381,0.28604 -1.98875,0.16034 -1.98875,-0.27932 z m -16,-12.04476 c 0,-0.53273 0.675,-0.96861 1.5,-0.96861 0.825,0 1.5,0.17685 1.5,0.39301 0,0.21616 -0.675,0.65203 -1.5,0.96862 -0.825,0.31658 -1.5,0.13972 -1.5,-0.39302 z m -6.1875,-3.65172 c 0.72187,-0.28888 1.58437,-0.25335 1.91667,0.079 0.33229,0.33229 -0.25834,0.56864 -1.3125,0.52522 -1.16495,-0.048 -1.4019,-0.28495 -0.60417,-0.60417 z m -18.8125,-2.22583 c 0,-0.46539 0.675,-1.40637 1.5,-2.09106 1.22111,-1.01343 1.5,-0.963124 1.5,0.27057 0,0.8335 -0.675,1.77447 -1.5,2.09106 -0.825,0.31658 -1.5,0.19482 -1.5,-0.27057 z m -51.999998,-1.09106 c 0,-0.55 0.701558,-1 1.559017,-1 0.857459,0 1.280902,0.45 0.940983,1 -0.339919,0.55 -1.041476,1 -1.559017,1 -0.517541,0 -0.940983,-0.45 -0.940983,-1 z m -28,-28.881967 c 0,-0.55 0.45,-1.278115 1,-1.618034 0.55,-0.339919 1,-0.168034 1,0.381966 0,0.55 -0.45,1.278115 -1,1.618034 -0.55,0.339919 -1,0.168034 -1,-0.381966 z m -6.5,-3.1180343 c 0.339919,-0.55 0.816476,-1 1.059017,-1 0.242541,0 0.440983,0.45 0.440983,1 0,0.55 -0.476558,1 -1.059017,1 -0.582459,0 -0.780902,-0.45 -0.440983,-1 z m 11.726186,-6.178557 c 0.580273,-1.74081903 3.555659,-3.37293103 4.474278,-2.45431203 0.438015,0.438015 -0.07641,1.43459903 -1.143166,2.21463003 -2.359312,1.725172 -3.862324,1.833317 -3.331112,0.239682 z"
     style="fill:#eaecee" />
</svg>
