<?xml version="1.0" encoding="UTF-8" standalone="no"?>
<svg
   xmlns:dc="http://purl.org/dc/elements/1.1/"
   xmlns:cc="http://creativecommons.org/ns#"
   xmlns:rdf="http://www.w3.org/1999/02/22-rdf-syntax-ns#"
   xmlns:svg="http://www.w3.org/2000/svg"
   xmlns="http://www.w3.org/2000/svg"
   viewBox="0 0 476 183.97063"
   height="183.97063"
   width="476"
   id="svg2"
   version="1.1">
  <metadata
     id="metadata8">
    <rdf:RDF>
      <cc:Work
         rdf:about="">
        <dc:format>image/svg+xml</dc:format>
        <dc:type
           rdf:resource="http://purl.org/dc/dcmitype/StillImage" />
        <dc:title></dc:title>
      </cc:Work>
    </rdf:RDF>
  </metadata>
  <defs
     id="defs6" />
  <g
     transform="translate(0,-0.03038757)"
     id="g817">
    <path
       id="path821"
       d="m 215.55592,174.49412 c 0.0594,-10.10512 1.08336,-12.86831 3.9017,-10.52929 1.06646,0.88508 1.54238,3.07546 1.54238,7.0986 0,7.05947 1.24356,8.25863 3.01094,2.90343 1.24752,-3.78003 2.99105,-4.84097 6.48906,-3.94859 5.18473,1.32267 5.35107,1.25925 5.67896,-2.16527 0.47881,-5.00079 3.64684,-4.9903 8.81909,0.0292 3.03146,2.94193 5.10488,4.08585 7.81415,4.31114 3.47517,0.28898 3.70569,0.52287 3.99817,4.05666 0.3222,3.893 1.21046,4.63885 2.97737,2.5 0.71704,-0.86797 0.63766,-2.39609 -0.25971,-5 -1.25635,-3.64554 -1.226,-3.75 1.08981,-3.75 1.31019,0 2.38216,0.40186 2.38216,0.89301 0,1.7748 3.3241,2.12366 5.08144,0.53328 1.45559,-1.31728 3.7293,-1.571 12.10539,-1.35079 8.50007,0.22346 10.98912,-0.0636 14.15807,-1.63265 3.78474,-1.874 3.86687,-1.87372 5.25,0.0178 0.7728,1.05688 1.4051,2.73559 1.4051,3.73047 0,2.31081 0.5818,2.27639 3.23037,-0.19113 1.18072,-1.1 3.27291,-2 4.64932,-2 2.29263,0 2.3541,0.10856 0.73273,1.29414 -1.23356,0.902 -1.67024,2.31798 -1.44113,4.67299 0.4922,5.05938 2.82871,5.15536 2.82871,0.1162 0,-3.63296 0.26227,-4.08333 2.37788,-4.08333 1.30783,0 3.99337,-0.675 5.96788,-1.5 4.20479,-1.75688 8.65424,-1.9665 8.65424,-0.40773 0,0.60075 -0.9,2.23644 -2,3.63486 -1.21649,1.54651 -2,4.05678 -2,6.40773 v 3.86514 h -4.41667 c -2.55555,0 -4.66247,-0.52673 -5,-1.25 -0.46666,-1 -0.7,-1 -1.16666,0 -0.43295,0.92775 -4.94445,1.25 -17.5,1.25 L 279,184 v -6.5 c 0,-3.575 -0.3375,-6.48839 -0.75,-6.4742 -1.57224,0.0541 -4.32621,7.82238 -3.68245,10.38733 C 275.187,183.88121 275.02816,184 271.10841,184 267.66667,184 267,183.67546 267,182 c 0,-1.1 -0.41968,-2 -0.93261,-2 -0.51294,0 -1.21826,0.9 -1.56739,2 -0.50589,1.59393 -1.51303,2 -4.9604,2 -2.74986,0 -4.51803,-0.5014 -4.85379,-1.37639 C 254.11097,181.1256 249,181.56874 249,183.11658 c 0,0.48588 -7.5375,0.88344 -16.75,0.88346 l -16.75,3e-5 0.0559,-9.50595 z M 247,176 c 0,-3.2057 -1.39079,-4.02995 -2.39301,-1.41821 C 243.57861,177.26169 243.92996,179 245.5,179 c 1,0 1.5,-1 1.5,-3 z m 83.72778,1.75 c 0.29597,-3.4375 0.9834,-6.8125 1.52762,-7.5 1.31444,-1.6605 5.0164,-1.5811 9.27672,0.19897 3.23692,1.35247 3.46788,1.75208 3.46788,6 0,7.401 1.65244,5.19089 2.3578,-3.15351 0.65325,-7.72797 1.80665,-10.56697 3.553,-8.74546 0.50094,0.5225 1.06344,5.11273 1.25,10.2005 L 352.5,184.00101 341.34483,184.0005 330.18966,184 Z M 339,177.5 c 0,-1.925 -0.45,-3.5 -1,-3.5 -0.55,0 -1,1.575 -1,3.5 0,1.925 0.45,3.5 1,3.5 0.55,0 1,-1.575 1,-3.5 z m 24.47549,0.11569 C 362.67286,170.12084 363.41748,167 366.00837,167 c 2.74534,0 3.49893,1.86406 3.13311,7.75 -0.39182,6.3044 1.21476,6.9546 2.47091,1 0.69207,-3.28064 1.35171,-4.25 2.89208,-4.25 1.59132,0 2.0593,0.7747 2.31034,3.82461 0.26389,3.2059 0.78965,3.99014 3.25,4.84783 C 381.67917,180.73521 383,181.82663 383,182.59783 383,183.7015 380.99452,184 373.57959,184 h -9.4204 z m 23.49124,5.13431 c -0.0416,-1.56215 -2.93509,-4.89453 -5.51557,-6.35213 -1.07314,-0.60617 -2.09496,-2.06867 -2.27071,-3.25 C 379.0047,171.96654 378.3672,171 377.76378,171 c -0.60341,0 -0.85709,-0.24002 -0.56373,-0.53339 0.29336,-0.29336 2.66007,0.18865 5.25934,1.07112 4.09161,1.38914 4.94842,1.41402 6.38328,0.18539 2.29891,-1.96848 4.98791,-2.80627 5.63688,-1.75622 0.29897,0.48376 -0.39716,2.47402 -1.54697,4.42279 l -2.09056,3.54324 2.57899,2.57899 c 1.41844,1.41844 2.57899,2.78353 2.57899,3.03353 0,0.25 -2.025,0.45455 -4.5,0.45455 -2.91559,0 -4.51171,-0.44011 -4.53327,-1.25 z m 12.16689,-8.12891 c -0.0988,-7.10863 0.22175,-9.67113 1.32421,-10.58609 1.79114,-1.48651 3.37722,-0.59905 4.5791,2.56214 0.57627,1.51569 1.71273,2.40286 3.07808,2.40286 2.85307,0 4.81382,2.72709 4.85319,6.75 0.0175,1.7875 0.4818,3.25 1.0318,3.25 0.55,0 1,-1.26399 1,-2.80887 0,-4.38124 2.06989,-6.35878 7.0638,-6.74864 3.61978,-0.28258 4.76056,0.0589 6.1987,1.8556 1.65893,2.0725 1.84177,2.09899 3.11111,0.45073 0.74173,-0.96314 1.14372,-2.8229 0.89332,-4.13278 -0.51987,-2.71952 0.78148,-3.91843 3.23238,-2.97793 1.17015,0.44903 1.53218,1.41683 1.19324,3.18986 -0.2676,1.3999 -0.25976,3.13629 0.0174,3.85865 1.00365,2.61548 2.18162,1.22203 2.48251,-2.93662 0.28849,-3.98722 0.49299,-4.25 3.3075,-4.25 2.32501,0 3.07011,0.49264 3.31163,2.18952 0.21814,1.53268 1.11812,2.28267 3,2.5 2.33715,0.26992 2.76215,0.86329 3.25313,4.54191 0.31062,2.32728 0.84318,4.50984 1.18347,4.85013 1.04593,1.04593 2.75177,-0.59098 2.75177,-2.64058 0,-4.49216 8.09196,-8.02189 10.75416,-4.69098 0.54948,0.6875 1.31196,3.8375 1.6944,7 l 0.69535,5.75 H 434.2039 399.26393 l -0.13035,-9.37891 z M 407,177.5 c 0,-1.375 -0.45,-2.5 -1,-2.5 -0.55,0 -1,1.125 -1,2.5 0,1.375 0.45,2.5 1,2.5 0.55,0 1,-1.125 1,-2.5 z m 16,0.5 c 0,-1.1 -0.45,-2 -1,-2 -0.55,0 -1,0.9 -1,2 0,1.1 0.45,2 1,2 0.55,0 1,-0.9 1,-2 z m 38.68933,-4.75 c -0.25153,-0.9625 -0.45733,-0.175 -0.45733,1.75 0,1.925 0.2058,2.7125 0.45733,1.75 0.25152,-0.9625 0.25152,-2.5375 0,-3.5 z M 0,170 c 0,-0.59908 3.9546664,-1 9.8639991,-1 h 9.8639989 l 2.413389,-3.75 c 4.187733,-6.50703 4.888375,-8.17376 5.474005,-13.02186 0.314126,-2.60048 1.429169,-7.31743 2.477873,-10.48212 C 31.141969,138.58133 32,134.74073 32,133.21136 c 0,-1.52937 0.9,-5.34134 2,-8.47104 1.1,-3.12969 2,-6.95469 2,-8.5 0,-1.5453 0.9,-5.3703 2,-8.5 1.1,-3.12969 2,-6.95469 2,-8.499996 0,-1.545303 0.9,-5.370303 2,-8.5 1.1,-3.129698 2,-6.954698 2,-8.5 0,-1.545303 0.9,-5.370303 2,-8.5 1.1,-3.129698 2,-6.954698 2,-8.5 0,-1.545303 0.9,-5.370303 2,-8.5 1.1,-3.129698 2,-6.954698 2,-8.5 0,-1.545303 0.9,-5.370303 2,-8.5 1.1,-3.129698 2,-6.954698 2,-8.5 0,-1.545303 0.9,-5.370303 2,-8.5 1.1,-3.129698 2,-6.989176 2,-8.576619 0,-1.849157 1.527129,-4.901559 4.25,-8.4948383 l 4.25,-5.60857807 6,-0.01495053 6,-0.01495053 3.75,5.11134203 c 2.412498,3.2882946 3.757833,6.2253784 3.771962,8.2348064 0.01208,1.717905 0.912079,5.085106 2,7.482668 C 91.109883,23.256766 92,26.548344 92,28.173822 c 0,1.625478 0.862781,5.063837 1.917291,7.640797 1.05451,2.576959 2.175307,6.538342 2.49066,8.803072 0.315354,2.264731 1.249801,5.414731 2.076549,7 0.826748,1.58527 1.512842,3.782309 1.52465,4.882309 0.0237,2.207953 1.6095,5.214683 2.35638,4.4678 0.71794,-0.71794 3.68026,-8.948293 4.84741,-13.4678 0.56814,-2.2 1.87766,-5.849289 2.91003,-8.109531 C 111.15533,37.130227 112,34.299799 112,33.100631 112,31.901462 112.9,29.156178 114,27 c 1.1,-2.156178 2,-4.93932 2,-6.184759 0,-1.349437 1.48766,-3.587939 3.68165,-5.539838 5.05252,-4.494997 9.81772,-4.503588 15.03355,-0.0271 4.88458,4.19219 4.95833,4.308619 5.71113,9.016367 0.35082,2.19388 1.29841,4.931954 2.10576,6.084609 0.80735,1.152655 1.48318,3.683109 1.50184,5.62323 C 144.05259,37.912628 144.93732,41.3 146,43.5 c 1.06268,2.2 1.96268,5.35 2,7 0.0373,1.65 0.93732,4.8 2,7 1.06268,2.2 1.95729,5.35 1.98803,7 0.0307,1.65 0.94601,4.961642 2.03393,7.359204 1.08792,2.397562 1.98792,5.547562 2,7 0.0121,1.452438 0.91208,4.602438 2,7 1.08792,2.397562 1.97795,5.322562 1.97783,6.5 -1.8e-4,1.942705 1.4075,6.813351 5.67645,19.640796 0.82367,2.475 1.82789,6.35157 2.23159,8.6146 1.11328,6.24074 4.91031,10.48103 13.09217,14.62055 1.9741,0.99878 33.26516,1.32348 148.75,1.54356 85.69722,0.16331 146.25,0.651 146.25,1.1779 0,0.52694 -64.27318,1.04129 -155.25,1.24241 -146.76104,0.32444 -155.47939,0.24636 -159.44514,-1.42791 -2.30732,-0.97411 -4.55732,-1.7843 -5,-1.80042 -3.5051,-0.12766 -12.27553,-13.75895 -12.32682,-19.15876 -0.0121,-1.27156 -0.91208,-4.27357 -2,-6.67113 -1.08792,-2.39757 -1.98792,-5.54757 -2,-7 -0.0121,-1.45244 -0.91208,-4.602442 -2,-7.000004 -1.08792,-2.397562 -1.98792,-5.547562 -2,-7 -0.0121,-1.452438 -0.91208,-4.602438 -2,-7 -1.08792,-2.397562 -1.98081,-5.547562 -1.9842,-7 -0.003,-1.452438 -0.67112,-3.915732 -1.48386,-5.473987 -0.81273,-1.558255 -1.9523,-4.595755 -2.53238,-6.75 -1.23215,-4.575861 -2.69531,-5.059915 -3.52694,-1.166809 -0.32309,1.5125 -1.45666,4.599289 -2.51905,6.859531 C 120.86922,70.869773 120,73.475201 120,74.399369 c 0,0.924169 -0.9,3.444453 -2,5.600631 -1.1,2.156178 -2,4.963123 -2,6.237656 0,1.274532 -0.65961,3.259058 -1.4658,4.410058 -0.80619,1.151 -1.9007,3.838628 -2.43223,5.972506 -1.11841,4.48992 -3.62257,11.93497 -6.18209,18.37978 -0.98294,2.475 -2.05059,5.7375 -2.37257,7.25 -0.32198,1.5125 -1.00316,2.75 -1.51374,2.75 -1.40749,0 -6.030543,-9.79663 -6.055532,-12.83216 -0.01208,-1.46731 -0.912079,-4.62948 -2,-7.02704 -1.087921,-2.39757 -1.993307,-5.547566 -2.011969,-7.000004 C 91.947406,96.688358 91.062675,93.7 90,91.5 88.937325,89.3 88.042711,86.375 88.011969,85 87.981228,83.625 87.065959,80.538358 85.978038,78.140796 84.890117,75.743234 84,72.58657 84,71.125987 84,69.665404 83.1,66.791177 82,64.738815 80.9,62.686454 80,59.726395 80,58.160908 80,55.07515 76.082666,46.860889 74.332941,46.277647 73.12171,45.873903 72.034226,49.125792 72.013655,53.21298 72.006145,54.705118 71.1,58.209278 70,61 c -1.1,2.790722 -2,6.390722 -2,8 0,1.609278 -0.9,5.209278 -2,8 -1.1,2.790722 -2,6.390722 -2,8 0,1.609278 -0.9,5.209278 -2,8 -1.1,2.790722 -2,6.390722 -2,8 0,1.60928 -0.9,5.20928 -2,8 -1.1,2.79072 -2,6.39072 -2,8 0,1.60928 -0.9,5.20928 -2,8 -1.1,2.79072 -2,6.39072 -2,8 0,1.60928 -0.9,5.20928 -2,8 -1.1,2.79072 -2.015269,6.51988 -2.033931,8.28702 C 47.947406,151.05416 47.062675,154.3 46,156.5 c -1.062675,2.2 -1.947406,4.49365 -1.966069,5.09699 -0.06963,2.25116 -4.293772,5.89205 -8.838465,7.61808 -3.759089,1.42767 -7.736644,1.78346 -19.945466,1.78412 C 5.749457,170.99969 0,170.62299 0,170 Z M 197.5,120.34413 C 189.45971,119.1012 180.61306,108.75497 179.41903,99.198255 177.59979,84.637507 180.8765,74.512797 189.76541,67.229004 L 194.31617,63.5 h 10.09191 c 9.75011,0 10.24975,0.109602 14.75168,3.235953 5.69701,3.956269 8.1736,7.828285 10.31177,16.121867 2.1977,8.524539 1.77202,12.358477 -1.47153,13.253201 -1.375,0.379291 -9.1375,0.734475 -17.25,0.789299 L 196,97 v 2.423275 c 0,1.332805 1.165,3.807805 2.58889,5.499995 2.15835,2.56505 3.31043,3.07673 6.92742,3.07673 3.35822,0 4.75464,-0.529 6.18011,-2.34119 3.06394,-3.89516 5.39715,-4.67144 10.37422,-3.45159 2.43615,0.59708 5.02079,1.54883 5.74365,2.11499 2.89638,2.26853 -0.89085,8.29464 -8.50634,13.53496 -2.44468,1.68222 -5.02018,2.28479 -11,2.57361 -4.29437,0.20741 -9.15795,0.16842 -10.80795,-0.0866 z m 14.91821,-33.951119 c 2.1855,-0.838653 1.97843,-4.027234 -0.4863,-7.488641 C 210.17636,76.43893 209.18716,76 205.38645,76 c -3.42041,0 -5.05679,0.579435 -6.9319,2.454545 -2.71891,2.718909 -2.94324,3.763807 -1.41937,6.611196 C 197.89266,86.667947 199.16614,87 204.4534,87 c 3.51066,0 7.09483,-0.273145 7.96481,-0.606989 z m 42.04203,33.602069 C 251.0568,118.93892 243,112.44 243,110.75082 c 0,-0.60134 -0.66456,-1.82766 -1.47679,-2.72517 -2.50666,-2.76983 -3.96568,-16.121218 -2.63934,-24.152504 1.32242,-8.007526 4.2213,-13.18691 9.74582,-17.412694 3.59999,-2.753678 4.47394,-2.960452 12.5126,-2.960452 7.00097,0 9.03061,0.350959 10.68699,1.847961 C 275.23388,68.424979 276,66.600612 276,55.416232 276,45.102086 276.0371,44.936373 278.5651,43.975249 279.9759,43.438862 283.33507,43 286.02992,43 c 3.82075,0 5.12767,0.425943 5.9349,1.934259 1.13049,2.112342 1.27494,66.324121 0.16099,71.565741 -0.60588,2.85093 -0.91505,3.01467 -6.22178,3.29513 -4.09079,0.21621 -5.92718,-0.11809 -6.86657,-1.25 -1.65462,-1.99369 -4.98546,-1.97028 -7.87748,0.0554 -2.72491,1.9086 -12.43128,2.71917 -16.69974,1.39458 z m 18.33499,-15.51758 c 2.39242,-2.39242 2.74091,-3.59983 3.05868,-10.597288 0.43215,-9.516079 -0.0215,-11.556911 -3.36313,-15.130212 -2.02246,-2.162664 -3.47665,-2.75 -6.80874,-2.75 -5.78733,0 -8.36748,2.106777 -10.1608,8.296633 -1.57539,5.437675 -0.89892,14.260624 1.42654,18.605787 3.08508,5.76453 10.88297,6.53956 15.84745,1.57508 z M 319.5,120.1111 c -8.14314,-2.20335 -13.42932,-7.60753 -16.54376,-16.91306 -2.4169,-7.221373 -2.44291,-14.047647 -0.0831,-21.806625 2.22523,-7.316446 5.0808,-11.409257 10.5527,-15.124899 C 317.21448,63.693882 318.2112,63.5 327.64815,63.5 h 10.14814 l 4.80972,4.076634 c 6.64668,5.633615 9.38706,10.952754 10.11479,19.633028 C 353.54255,97.01151 353.56459,97 333.97554,97 c -8.60322,0 -15.92426,0.282053 -16.26899,0.626784 -0.80524,0.805237 1.82558,5.905346 4.34663,8.426396 3.07606,3.07606 9.48806,2.64282 12.79561,-0.86456 1.45817,-1.54626 3.35176,-3.07377 4.20799,-3.39447 2.20528,-0.82599 11.17122,1.62021 12.25896,3.34463 1.31754,2.08873 -3.47511,8.69665 -8.83755,12.18487 -3.67435,2.39014 -5.67611,2.92059 -12.18733,3.22952 -4.28497,0.20331 -9.14086,0.004 -10.79086,-0.44207 z M 334.41821,86.393011 C 336.66417,85.531155 336.40894,80.408941 334,78 c -2.50236,-2.502359 -10.09212,-2.765024 -12.42707,-0.430073 -2.2369,2.236902 -3.01487,6.192639 -1.56215,7.943059 1.26407,1.523111 11.15688,2.127378 14.40743,0.880025 z M 376,120.11302 c -4.90279,-1.10631 -10.38599,-4.61924 -13.42118,-8.59857 -4.75394,-6.23273 -2.95587,-9.09028 6.41851,-10.20054 4.72187,-0.55924 5.01816,-0.449 6.70826,2.49582 0.9725,1.6945 2.67409,3.32437 3.7813,3.62193 3.71356,0.99803 12.11473,0.58094 13.73017,-0.68166 2.33127,-1.82209 0.58862,-5.54641 -2.92377,-6.24856 -1.53631,-0.30711 -4.14329,-1.035281 -5.79329,-1.618149 -1.65,-0.582869 -4.8,-1.466656 -7,-1.963972 -7.51618,-1.699053 -12.49556,-5.042901 -15.09379,-10.136075 -3.00998,-5.900288 -3.00689,-7.683649 0.0235,-13.566488 3.73929,-7.259025 7.94165,-9.522938 18.62494,-10.033712 13.58041,-0.649288 17.01322,0.163762 22.37273,5.298915 C 410.77629,75.523221 409.48864,80 400.11445,80 395.90511,80 394.10493,79.507756 392.37672,77.884181 388.63129,74.36554 376,74.420105 376,77.954925 c 0,1.626021 7.14701,4.798041 12.52347,5.558229 2.73709,0.387002 5.9732,1.329862 7.19135,2.095243 C 396.93297,86.373779 398.48378,87 399.16107,87 c 2.2809,0 8.8099,5.23544 10.33068,8.283924 2.81208,5.636936 1.28812,13.936206 -3.42438,18.648706 -4.59244,4.59244 -8.90693,6.18891 -17.78732,6.58175 -4.82903,0.21362 -10.35505,0.033 -12.28005,-0.40136 z m 53.47495,-0.11 c -1.66377,-0.51899 -4.58877,-2.55698 -6.5,-4.52886 -3.31238,-3.41751 -3.47495,-3.92183 -3.47495,-10.7797 0,-5.639762 0.43026,-7.760651 1.99107,-9.814542 2.70751,-3.562852 7.03371,-6.071696 13.00893,-7.544119 18.17787,-4.479419 18.57208,-4.68742 16.69431,-8.808673 C 450.15411,76.244139 449.47858,76 444.20177,76 c -5.06061,0 -6.14654,0.351286 -8.12699,2.629008 -2.10002,2.415231 -2.73742,2.582407 -7.83872,2.055907 -7.70847,-0.795585 -8.73994,-2.069381 -6.01715,-7.430803 1.18433,-2.332035 3.94359,-5.480724 6.1317,-6.997088 C 432.17829,63.60444 432.80576,63.5 444.9145,63.5 c 11.84902,0 12.77942,0.145432 15.89934,2.485254 6.68758,5.015442 7.18127,6.799953 7.22971,26.13278 0.024,9.560086 0.43379,19.405236 0.91074,21.878116 1.04578,5.42213 0.44933,5.9675 -6.5493,5.98854 -3.74132,0.0112 -5.54982,-0.48725 -6.80682,-1.87621 -1.8598,-2.05506 -4.94181,-1.82348 -7.73028,0.58085 -2.01244,1.73521 -14.24157,2.60866 -18.39294,1.31369 z m 17.28602,-12.49454 c 2.38877,-0.68697 5.24947,-5.18242 5.22372,-8.20882 -0.0327,-3.846481 -1.21773,-4.334816 -7.73373,-3.187045 -4.73855,0.834678 -6.51945,1.648209 -7.7631,3.546252 -2.10835,3.217753 -0.7907,7.524403 2.58628,8.453103 2.44495,0.67238 3.55271,0.58541 7.68683,-0.60349 z"
       style="fill:#3d3e92" />
    <path
       id="path819"
       d="m 217,174.5 c 0,-5.66667 0.40351,-9.5 1,-9.5 0.55,0 1,1.50899 1,3.35331 0,1.84432 0.28911,6.11932 0.64246,9.5 0.55341,5.29477 0.41481,6.14669 -1,6.14669 C 217.23444,184 217,182.64399 217,174.5 Z m 7.53736,6.25 c 1.11841,-5.22042 2.02284,-5.19899 3.07722,0.0729 0.56016,2.8008 0.37433,3.17708 -1.56904,3.17708 -1.96323,0 -2.12826,-0.35563 -1.50818,-3.25 z m 8.01948,1 c 0.78383,-2.55 1.27489,-3.26992 1.81893,-2.66667 0.20668,0.22917 0.687,1.42917 1.06739,2.66667 0.56764,1.84667 0.30894,2.25 -1.44316,2.25 -1.7521,0 -2.0108,-0.40333 -1.44316,-2.25 z m 37.0667,0.71134 c -1.14311,-2.9789 -0.71678,-9.65909 0.58868,-9.22393 0.78851,0.26283 1.10716,2.12701 0.91163,5.33333 -0.33816,5.54521 -0.60241,6.23048 -1.50031,3.8906 z M 281,180.5 c 0,-3.9272 1.44762,-4.6908 2.36971,-1.25 0.9563,3.56841 0.73996,4.75 -0.86971,4.75 -1.04762,0 -1.5,-1.05556 -1.5,-3.5 z m 7.36971,1.25 c 0.33164,-1.2375 0.60913,-3.4875 0.61664,-5 0.008,-1.5125 0.46365,-2.75 1.01365,-2.75 0.55,0 1,2.25 1,5 0,3.9381 -0.34334,5 -1.61663,5 -1.1885,0 -1.45695,-0.59587 -1.01366,-2.25 z M 297,182.5 c 0,-0.825 0.45,-1.5 1,-1.5 0.55,0 1,0.675 1,1.5 0,0.825 -0.45,1.5 -1,1.5 -0.55,0 -1,-0.675 -1,-1.5 z m 36,-3.94098 c 0,-2.99254 0.45,-5.7191 1,-6.05902 0.62464,-0.38605 1,1.65628 1,5.44098 0,3.37268 -0.44336,6.05902 -1,6.05902 -0.55,0 -1,-2.44844 -1,-5.44098 z m 8,-0.059 c 0,-3.025 0.45,-5.5 1,-5.5 0.55,0 1,2.475 1,5.5 0,3.025 -0.45,5.5 -1,5.5 -0.55,0 -1,-2.475 -1,-5.5 z m 8,-0.55902 c 0,-3.7847 0.37536,-5.82703 1,-5.44098 0.55,0.33992 1,3.06648 1,6.05902 0,2.99254 -0.45,5.44098 -1,5.44098 -0.55664,0 -1,-2.68634 -1,-6.05902 z m 16,-1.52431 c 0,-9.86442 2.02297,-9.56076 2.34196,0.35154 C 367.51417,182.11939 367.23992,184 366.28735,184 365.35072,184 365,181.934 365,176.41667 Z M 389,182.5 c 0,-0.825 0.45,-1.5 1,-1.5 0.55,0 1,0.675 1,1.5 0,0.825 -0.45,1.5 -1,1.5 -0.55,0 -1,-0.675 -1,-1.5 z m 12,-8 c 0,-5.66667 0.40351,-9.5 1,-9.5 0.57346,0 1.00582,3.09244 1.01365,7.25 0.008,3.9875 0.285,8.2625 0.61664,9.5 0.44329,1.65413 0.17484,2.25 -1.01366,2.25 C 401.24124,184 401,182.58239 401,174.5 Z m 7.77527,4.25 c 0.47061,-5.12939 0.85657,-6.50958 1.58462,-5.66667 0.19794,0.22917 0.62673,2.77917 0.95288,5.66667 0.5212,4.61434 0.37432,5.25 -1.21309,5.25 -1.57328,0 -1.744,-0.67675 -1.32441,-5.25 z M 417,178.5 c 0,-3.025 0.45,-5.5 1,-5.5 0.55,0 1,2.475 1,5.5 0,3.025 -0.45,5.5 -1,5.5 -0.55,0 -1,-2.475 -1,-5.5 z m 16,4 c 0,-0.825 0.45,-1.5 1,-1.5 0.55,0 1,0.675 1,1.5 0,0.825 -0.45,1.5 -1,1.5 -0.55,0 -1,-0.675 -1,-1.5 z m 14.77984,-1.92528 -2.72016,-3.28088 2.50388,-1.14085 c 2.75458,-1.25507 2.8293,-1.16527 3.82491,4.59701 0.69993,4.05102 -0.13839,4.01031 -3.60863,-0.17528 z M 454,183.12244 c 0,-0.48265 0.675,-1.43775 1.5,-2.12244 0.825,-0.68469 1.5,-1.86479 1.5,-2.62244 0,-2.21426 1.71136,-1.58419 2.36971,0.87244 1.07865,4.02495 0.71693,4.75 -2.36971,4.75 -1.65,0 -3,-0.3949 -3,-0.87756 z m 10.19774,-4.29384 C 464.63066,171.42171 467,171.07341 467,178.41667 467,182.79651 466.66541,184 465.44774,184 c -1.24187,0 -1.49182,-1.03407 -1.25,-5.1714 z M 373,176.5 c 0,-3.91251 1.5274,-4.75255 2.20418,-1.21226 C 375.72532,178.01395 375.18269,180 373.91667,180 373.4125,180 373,178.425 373,176.5 Z m -123.81955,0.26022 c 0.36506,-2.5588 3.65299,-3.63065 4.93441,-1.60861 1.63609,2.58169 0.91709,3.84839 -2.18441,3.84839 -2.60754,0 -3.02145,-0.33712 -2.75,-2.23978 z M 313,176.5 c 0,-1.375 0.45,-2.5 1,-2.5 0.55,0 1,1.125 1,2.5 0,1.375 -0.45,2.5 -1,2.5 -0.55,0 -1,-1.125 -1,-2.5 z m 8,-1.94098 C 321,173.70156 321.45,173 322,173 c 0.55,0 1,0.42344 1,0.94098 0,0.51754 -0.45,1.2191 -1,1.55902 -0.55,0.33992 -1,-0.0835 -1,-0.94098 z M 433,175 c 0,-0.55 0.45,-1 1,-1 0.55,0 1,0.45 1,1 0,0.55 -0.45,1 -1,1 -0.55,0 -1,-0.45 -1,-1 z m -8,-1 c 0,-0.55 0.45,-1 1,-1 0.55,0 1,0.45 1,1 0,0.55 -0.45,1 -1,1 -0.55,0 -1,-0.45 -1,-1 z m 16,-7 c 0,-0.55 0.45,-1 1,-1 0.55,0 1,0.45 1,1 0,0.55 -0.45,1 -1,1 -0.55,0 -1,-0.45 -1,-1 z M 192.89412,116.65574 c -5.58527,-3.3391 -6.73181,-4.54728 -9.52854,-10.04082 -2.26547,-4.45 -2.60326,-6.35004 -2.59842,-14.616099 0.008,-12.88421 2.69308,-18.36801 12.20315,-24.918446 3.01382,-2.075889 4.71044,-2.434805 11.6087,-2.455794 7.1672,-0.02181 8.57797,0.293033 12.5,2.789588 6.7126,4.272884 9.76285,9.30414 10.99009,18.127647 0.57171,4.110426 0.76348,7.920055 0.42617,8.465843 C 228.13364,94.592784 221.72382,95 212.87524,95 c -17.26395,0 -19.40271,0.612647 -18.46725,5.28994 0.98952,4.9476 3.27766,7.54833 7.68528,8.73517 4.72911,1.27342 8.57932,0.3023 11.87738,-2.99576 2.80084,-2.80084 12.30202,-2.62651 12.84621,0.23571 0.44854,2.35913 -4.17159,7.70396 -9.06329,10.48494 -5.57131,3.16734 -19.49209,3.11456 -24.85945,-0.0943 z M 215.78285,84 c 0.55696,-6.891869 -7.42435,-11.59354 -15.27969,-9.001043 -2.29342,0.756897 -3.97211,2.104266 -4.56518,3.664163 -1.1038,2.903224 -1.23488,7.706646 -0.23752,8.704007 0.38525,0.385254 4.99775,0.572754 10.25,0.416667 L 215.5,87.5 Z M 252,116.94642 c -5.42309,-4.31036 -6.64891,-5.59281 -9.02924,-9.44642 -2.26819,-3.67206 -2.47076,-4.98383 -2.47076,-16 0,-11.341107 0.15253,-12.254533 2.77801,-16.635648 1.5279,-2.549606 4.6779,-5.904245 7,-7.454752 3.64152,-2.431515 5.20855,-2.821506 11.3977,-2.836574 5.52774,-0.01346 7.63314,0.396507 9.16753,1.785109 1.09551,0.991419 3.04144,1.653919 4.32429,1.472223 C 277.41357,67.512241 277.51853,67.09241 278,56.5 l 0.5,-11 6.26237,-0.298038 6.26237,-0.298039 -0.26237,36.798039 L 290.5,118.5 l -4.19116,0.30462 c -3.56674,0.25924 -4.44053,-0.076 -5.86501,-2.25 -2.07777,-3.17107 -2.97613,-3.17662 -8.84781,-0.0546 -6.12579,3.25712 -15.78294,3.47712 -19.59602,0.44642 z m 21.47525,-11.22167 c 3.79899,-3.79899 5.17605,-10.356328 4.05655,-19.316548 -1.21111,-9.693405 -8.16219,-14.335437 -17.06599,-11.396918 -2.97027,0.980277 -3.98963,2.116135 -6.02073,6.708825 -2.87828,6.508292 -3.04439,10.194563 -0.77591,17.218511 2.22419,6.88681 6.01282,10.06138 12.00756,10.06138 3.777,0 5.06364,-0.54037 7.79852,-3.27525 z m 42.25146,11.09816 c -2.07531,-1.12374 -5.32011,-3.93085 -7.21068,-6.23804 -4.50798,-5.5014 -6.21293,-15.08605 -4.56867,-25.683556 1.21865,-7.854393 3.59358,-11.785642 10.35501,-17.140793 3.83446,-3.036947 4.44495,-3.189092 12.79657,-3.189092 6.87946,0 9.17836,0.369547 10.66428,1.714285 C 338.80506,67.228571 340.10036,68 340.64165,68 c 1.53907,0 5.82922,5.084837 8.1114,9.613914 1.25862,2.497775 2.20537,6.622669 2.40997,10.5 L 351.5,94.5 335,95 c -9.075,0.275 -17.0625,0.864058 -17.75,1.309017 -3.64368,2.358239 1.29024,11.091723 7.21049,12.763233 4.97487,1.40459 11.11956,-0.17375 12.04651,-3.0943 0.4992,-1.57286 1.52226,-1.97795 4.99529,-1.97795 2.40213,0 5.55765,0.45249 7.01226,1.00553 l 2.64475,1.00553 -3.09602,3.90904 c -1.70281,2.14997 -5.08128,5.07248 -7.50772,6.49447 -3.82559,2.24195 -5.51729,2.57653 -12.73363,2.51847 -6.3909,-0.0514 -9.19749,-0.54106 -12.09522,-2.11013 z m 22.27254,-30.322006 c 1.37968,-1.662413 0.007,-6.43158 -2.80123,-9.731346 -3.76707,-4.426678 -13.73015,-2.880693 -17.15577,2.662085 C 313.76979,86.344623 315.61198,88 327.57756,88 c 6.93541,0 9.4815,-0.366239 10.42169,-1.499096 z m 32.74983,29.694006 c -5.14369,-2.94622 -10.70855,-9.67921 -9.17554,-11.1016 0.50955,-0.47278 3.05777,-1.16383 5.6627,-1.53567 4.25523,-0.6074 5.00564,-0.40666 7.38878,1.97647 4.02781,4.02781 9.72699,5.71567 14.75824,4.37078 5.40191,-1.44397 6.61674,-2.55452 6.61674,-6.04877 0,-2.09079 -0.62727,-3.1332 -2.25,-3.73907 -6.40234,-2.390414 -9.74527,-3.419135 -14.75,-4.539015 -13.04977,-2.920077 -18.40832,-10.52883 -15.01857,-21.325295 1.05423,-3.357765 2.29531,-4.820327 5.92604,-6.983608 4.2349,-2.523263 5.41315,-2.734706 15.13061,-2.715273 9.13301,0.01826 11.01921,0.318426 14.14653,2.251219 C 402.94189,69.127204 406,72.940863 406,75.304302 406,76.946859 401.84987,79 398.52967,79 c -1.30692,0 -3.69817,-1.112345 -5.31388,-2.471879 -5.59818,-4.710555 -10.50988,-5.290794 -15.96579,-1.886101 -5.21546,3.254646 -1.37887,8.028152 8.00243,9.956655 7.70732,1.584386 15.37522,4.309334 18.94705,6.733233 5.46902,3.71136 6.13053,14.745582 1.23295,20.566022 -4.57216,5.43371 -9.36266,7.10695 -20.21322,7.06015 -8.705,-0.0375 -10.21497,-0.32589 -14.47013,-2.76317 z m 54.50782,-1.06151 c -4.32223,-4.19457 -5.71503,-8.46601 -4.63092,-14.20199 1.16638,-6.171261 7.59749,-11.17103 15.87402,-12.341021 5.29801,-0.74894 13.13012,-3.271118 15.30107,-4.92741 2.16025,-1.648139 1.0292,-6.943642 -1.80107,-8.432432 -3.62501,-1.906843 -11.54169,-1.009734 -14.34708,1.625796 C 433.99892,78.410191 432.09815,79 428.74457,79 c -2.5446,0 -4.90627,-0.452623 -5.24817,-1.00583 -1.46233,-2.366096 1.97088,-8.07841 6.46491,-10.75659 4.17251,-2.486576 5.38889,-2.703095 15.07677,-2.683721 9.24421,0.01849 10.99725,0.304859 14.27785,2.332379 6.40073,3.955869 7.04195,6.713842 7.1176,30.613762 l 0.0665,21 -4.15623,0.30292 c -3.34864,0.24405 -4.45472,-0.12323 -5.69235,-1.8902 -1.2722,-1.81632 -2.16867,-2.09047 -5.2178,-1.59566 -2.02492,0.3286 -4.4488,1.29169 -5.38639,2.1402 -1.21946,1.1036 -3.85402,1.54274 -9.25539,1.54274 -7.41208,0 -7.62381,-0.071 -11.53494,-3.8666 z m 21.0541,-5.61888 c 4.80918,-2.0094 6.689,-5.01288 6.689,-10.687336 0,-5.647311 -1.95086,-7.403416 -5.96911,-5.373205 -1.39199,0.703298 -4.19978,1.580766 -6.23954,1.949928 -4.62186,0.83648 -8.30309,5.421003 -7.36241,9.168973 0.59206,2.35898 5.76968,6.41533 8.19894,6.42338 0.62033,0.002 2.72773,-0.66472 4.68312,-1.48174 z"
       style="fill:#292929" />
  </g>
</svg>
