<?xml version="1.0" encoding="UTF-8" standalone="no"?>
<svg
   xmlns:dc="http://purl.org/dc/elements/1.1/"
   xmlns:cc="http://creativecommons.org/ns#"
   xmlns:rdf="http://www.w3.org/1999/02/22-rdf-syntax-ns#"
   xmlns:svg="http://www.w3.org/2000/svg"
   xmlns="http://www.w3.org/2000/svg"
   viewBox="0 0 485.1073 92.065498"
   height="92.065498"
   width="485.1073"
   id="svg2"
   version="1.1">
  <metadata
     id="metadata8">
    <rdf:RDF>
      <cc:Work
         rdf:about="">
        <dc:format>image/svg+xml</dc:format>
        <dc:type
           rdf:resource="http://purl.org/dc/dcmitype/StillImage" />
        <dc:title></dc:title>
      </cc:Work>
    </rdf:RDF>
  </metadata>
  <defs
     id="defs6" />
  <g
     transform="translate(-2.892698)"
     id="g817">
    <path
       id="path821"
       d="M 4.2333968,90.833397 C 2.4285012,89.028501 2.4542559,7.1286087 4.2604959,4.6584284 5.3576274,3.1580116 7.1352591,2.9712366 17.97645,3.2172988 L 30.431909,3.5 33.199201,9 c 1.522011,3.025 2.774831,6.187372 2.784045,7.027494 0.0092,0.840121 0.647641,2.42821 1.418724,3.529086 C 38.173054,20.657456 39.342167,23.556995 40,26 c 0.657833,2.443005 1.826946,5.342544 2.59803,6.44342 0.771083,1.100876 1.411976,3.138965 1.424206,4.529086 C 44.034466,38.362628 44.924459,40.625 46,42 c 1.075541,1.375 1.965534,3.305427 1.977764,4.289838 0.01223,0.984411 0.858381,3.459411 1.880336,5.5 1.021955,2.040589 2.163552,4.97963 2.536882,6.531201 0.37333,1.551572 1.202897,2.646335 1.843482,2.432806 1.625581,-0.54186 4.432909,-5.819703 5.804061,-10.911769 0.634444,-2.356147 1.784421,-5.18462 2.555505,-6.285496 0.771083,-1.100876 1.404935,-2.913965 1.408559,-4.029086 C 64.010213,38.412372 64.907248,36.15 66,34.5 c 1.092752,-1.65 1.992752,-3.9 2,-5 0.0072,-1.1 0.907248,-3.35 2,-5 1.092752,-1.65 1.999793,-4.125 2.015647,-5.5 C 72.0315,17.625 72.924459,15.375 74,14 75.075541,12.625 75.965534,10.288017 75.977764,8.806704 76.016415,4.1251788 79.043584,3 91.600062,3 c 8.207407,0 11.454508,0.3608299 12.288328,1.3655241 0.8147,0.9816437 1.05996,13.4213419 0.87245,44.2499999 L 104.5,91.5 95.149285,91.788859 c -6.034987,0.18643 -9.846896,-0.122936 -10.75,-0.872445 C 83.274856,89.98322 83,85.26137 83,66.877555 83,52.588738 82.631731,44 82.019052,44 c -0.539521,0 -1.283582,1.2375 -1.653467,2.75 -0.369886,1.5125 -1.50346,4.318336 -2.519052,6.235191 -1.015593,1.916855 -1.861802,4.166855 -1.880464,5 C 75.947406,58.818336 75.062675,61.3 74,63.5 72.937325,65.7 72.052594,68.406664 72.033931,69.514809 72.015269,70.622954 71.1,73.208823 70,75.261185 68.9,77.313546 67.992597,80.006882 67.98355,81.246376 67.974502,82.485869 66.94898,85.3 65.704613,87.5 l -2.262486,4 -9.237963,0.287749 c -8.147598,0.253787 -9.302984,0.07674 -9.78885,-1.5 -0.302989,-0.983262 -1.420384,-3.712287 -2.483101,-6.0645 -1.062717,-2.352214 -1.947482,-5.052214 -1.966144,-6 C 39.947406,77.275462 39.062675,74.7 38,72.5 36.937325,70.3 36.037325,67.825 36,67 35.962675,66.175 35.062675,63.7 34,61.5 32.937325,59.3 32.052594,56.43338 32.033931,55.129733 31.99968,52.737138 27.123459,44.104127 25.768099,44.036512 25.365553,44.016431 24.915553,54.6875 24.768099,67.75 L 24.5,91.5 14.983397,91.783397 c -6.5476833,0.194985 -9.9013895,-0.101389 -10.7500002,-0.95 z M 114.11707,91.093515 c -1.15908,-0.734088 -1.11862,-1.253221 0.25,-3.207193 C 115.26518,86.604088 116,84.737188 116,83.737656 116,82.738123 116.9,80.156178 118,78 c 1.1,-2.156178 2,-4.676462 2,-5.600631 0,-0.924168 0.83755,-3.529596 1.86122,-5.789838 1.75722,-3.879912 2.61226,-6.137897 5.24826,-13.859531 0.61021,-1.7875 1.96021,-4.914153 3,-6.948118 1.03979,-2.033965 1.89349,-4.733965 1.89711,-6 C 132.01021,38.535847 132.90725,36.15 134,34.5 c 1.09275,-1.65 2.00506,-3.9 2.02734,-5 0.0223,-1.1 0.90998,-3.8 1.97266,-6 1.06268,-2.2 1.94741,-4.681664 1.96607,-5.514809 0.0187,-0.833145 0.93393,-3.194014 2.03393,-5.246376 1.1,-2.052361 2,-4.6173645 2,-5.7000068 C 144,3.8432339 147.20179,3 159.33548,3 h 11.46697 l 2.05618,3.4849763 c 1.13091,1.916737 2.56947,5.3911477 3.19681,7.7209137 0.62734,2.329765 1.77151,5.136654 2.54259,6.23753 0.77108,1.100876 1.40197,3.015588 1.40197,4.254917 0,1.239328 0.89832,3.7267 1.99626,5.527493 1.09795,1.800794 1.99795,4.063301 2,5.027794 0.002,0.964494 0.90374,3.43283 2.00374,5.485191 1.1,2.052362 2,4.543658 2,5.536214 0,0.992556 0.9,3.568793 2,5.724971 1.1,2.156178 2.01527,4.500751 2.03393,5.210162 C 192.05259,57.919573 192.93732,60.3 194,62.5 c 1.06268,2.2 1.94909,4.9 1.96981,6 0.0207,1.1 0.93598,3.473376 2.03393,5.27417 1.09794,1.800793 1.99626,4.149436 1.99626,5.219206 0,1.06977 0.947,3.761888 2.10444,5.982484 3.44475,6.608904 2.65156,7.13329 -10.29643,6.807066 L 180.57852,91.5 l -0.61732,-3 c -0.33953,-1.65 -1.14451,-3.9 -1.78883,-5 -0.64433,-1.1 -1.61056,-3.2375 -2.14719,-4.75 L 175.0495,76 h -16.4023 c -18.02737,0 -17.98347,-0.0145 -18.94711,6.259501 -0.31759,2.067726 -1.53567,5.105226 -2.70686,6.75 -2.11505,2.970323 -2.19474,2.990396 -11.81132,2.975186 -5.32505,-0.0084 -10.30423,-0.409449 -11.06484,-0.891172 z m 53.54266,-32.15325 C 168.95887,57.641132 167.80958,50.76597 165.58015,46.5 164.71784,44.85 164.00955,42.644961 164.00616,41.599913 163.99892,39.365689 158.92318,29 157.8364,29 c -0.41017,0 -1.05201,1.6875 -1.42629,3.75 -0.37428,2.0625 -1.51967,5.419573 -2.54531,7.460162 -1.02564,2.040589 -1.88007,4.515589 -1.89873,5.5 C 151.94741,46.694573 151.06268,49.3 150,51.5 c -2.02431,4.190821 -2.45362,6.713042 -1.33333,7.833333 1.09858,1.098584 17.84805,0.751948 18.99306,-0.393068 z m 45.00694,32.393068 C 211.38577,90.052437 212.01591,87.295577 214,85.5 c 1.1,-0.995486 2.00855,-2.302731 2.019,-2.904988 0.0104,-0.602256 1.47295,-3.311004 3.25,-6.019439 3.48964,-5.318625 5.41112,-8.416465 10.5423,-16.996414 1.82122,-3.045293 3.74053,-5.802177 4.26515,-6.126409 0.52462,-0.324232 1.60544,-2.148984 2.40183,-4.055006 1.64335,-3.933087 1.04212,-6.014462 -3.72563,-12.897744 -1.52385,-2.2 -4.91797,-7.15 -7.54249,-11 -4.55365,-6.679891 -6.2521,-9.179264 -10.89964,-16.0395061 -1.13253,-1.6717283 -2.37646,-4.4842283 -2.76429,-6.25 L 210.84109,0 h 11.96282 c 10.48982,0 12.03933,0.21548108 12.58412,1.75 0.34171,0.9625 2.88313,4.9 5.64761,8.75 2.76448,3.85 6.07618,8.581606 7.35934,10.51468 2.36587,3.564186 5.42363,6.594091 5.93185,5.877821 C 256.79797,23.409749 266.14887,7.9746872 268.64997,3.25 L 270.37042,0 h 11.39425 11.39424 l -0.69075,3.25 c -0.37991,1.7875 -1.2614,3.925 -1.95886,4.75 -0.69747,0.825 -2.01107,2.85 -2.91912,4.5 -0.90805,1.65 -2.52463,4.35 -3.59241,6 -1.06777,1.65 -2.8588,4.575 -3.98006,6.5 -2.19138,3.762201 -2.36155,4.029857 -8.75739,13.774512 -5.33039,8.121338 -5.26703,8.580278 2.79225,20.225488 4.52525,6.538721 11.99006,17.481034 15.69053,23 2.02826,3.025 4.10638,5.792084 4.61804,6.149075 0.51166,0.356992 0.6485,1.383413 0.30409,2.280936 -0.54022,1.407799 -2.29975,1.593286 -12.81485,1.350924 L 269.66173,91.5 266.08086,85.852971 c -5.9316,-9.354151 -11.44899,-17.308434 -12.54628,-18.087658 -2.52781,-1.795084 -4.38237,-0.472774 -7.3935,5.271613 -1.74046,3.320309 -5.03179,8.945309 -7.31406,12.5 L 234.67742,92 h -10.67204 c -5.86963,0 -10.97205,-0.3 -11.33871,-0.666667 z M 329,87.826891 C 321.33798,83.708237 313.99382,76.873299 311.45671,71.5 310.67764,69.85 309.64117,67.825 309.15346,67 308.04588,65.126454 306.10343,59.59951 304.93604,55 303.45969,49.183203 303.88595,41.274514 306,35.259676 c 1.1,-3.129697 2,-6.461312 2,-7.403589 0,-0.942276 0.61665,-2.329876 1.37033,-3.083555 0.75367,-0.753679 2.11492,-2.81023 3.02499,-4.570112 C 315.61033,13.98528 327.7351,4 332.06934,4 333.1312,4 334.9,3.1 336,2 c 1.78667,-1.78666667 3.33333,-2 14.5,-2 11.16667,0 12.71333,0.21333333 14.5,2 1.1,1.1 3.06431,2 4.36514,2 1.30083,0 3.50931,0.9 4.90773,2 1.39842,1.1 2.84809,2 3.22148,2 1.38729,0 11.06482,10.724136 12.67983,14.05112 5.08132,10.467721 5.82621,13.629361 5.80386,24.634261 -0.0175,8.605304 -0.42606,11.70516 -2,15.173823 C 392.89012,64.256766 392,66.75274 392,67.405813 c 0,1.911509 -3.00651,5.607691 -10.85428,13.344187 -4.04485,3.9875 -8.09485,7.252965 -9,7.256589 C 371.24057,88.010213 369.15,88.907248 367.5,90 c -2.64877,1.754212 -4.63906,1.979307 -17,1.922637 l -14,-0.06418 -7.5,-4.031561 z m 31.96577,-17.797202 c 1.24948,-1.083671 3.00584,-2.222296 3.90301,-2.530277 0.89717,-0.307981 2.91259,-2.584553 4.47871,-5.059049 3.28187,-5.185408 4.30914,-12.484522 3.20635,-22.782211 -0.60121,-5.614017 -1.232,-7.17133 -4.34175,-10.719005 -2.00109,-2.282891 -4.55494,-4.572432 -5.67522,-5.087868 C 361.41659,23.335842 359.375,22.265078 358,21.471803 354.02369,19.177762 346.65423,19.638664 341.13069,22.526845 331.3989,27.615459 328,33.78876 328,46.37566 c 0,9.95033 2.15891,15.991632 7.13939,19.978274 7.09916,5.68254 6.9996,5.646066 15.41099,5.646066 6.66736,0 8.55542,-0.357171 10.41539,-1.970311 z M 408.2334,90.833397 C 406.63196,89.231961 406.46633,9.4618157 408.05258,3.75 L 409.09401,0 h 8.90147 c 7.86995,0 9.17311,0.26073474 11.24555,2.25 2.47939,2.3798923 7.09089,9.091959 15.25897,22.209548 1.65,2.649828 4.0125,6.057911 5.25,7.573517 1.2375,1.515606 2.25,3.161661 2.25,3.6579 0,0.870128 1.10119,2.468756 5.61317,8.148806 1.16224,1.463126 2.43006,3.672729 2.81739,4.910229 0.41134,1.314257 1.50796,2.25 2.63683,2.25 C 464.91888,51 465,50.078024 465,29.033927 465,10.500246 465.26333,6.5156467 466.68521,3.5339269 L 468.37042,0 H 478.18521 488 V 46.032751 92.065502 L 476.77416,91.782751 465.54832,91.5 l -4.22598,-6 c -4.55092,-6.461332 -5.79053,-8.400812 -8.70782,-13.624116 -1.03701,-1.856736 -2.49951,-3.735745 -3.25,-4.175574 C 448.61403,67.26048 448,66.454759 448,65.909817 c 0,-0.544941 -0.82907,-2.21008 -1.84237,-3.70031 C 439.72768,52.753221 436,46.818064 436,46.0367 436,45.149236 430.73822,41 429.6128,41 c -0.31815,0 -0.69868,11.3625 -0.84563,25.25 L 428.5,91.5 l -9.5166,0.283397 c -6.54769,0.194985 -9.90139,-0.101389 -10.75,-0.95 z"
       style="fill:#fd7216" />
    <path
       id="path819"
       d="M 4.2333968,90.833397 C 2.4285012,89.028501 2.4542559,7.1286087 4.2604959,4.6584284 5.3576274,3.1580116 7.1352591,2.9712366 17.97645,3.2172988 L 30.431909,3.5 33.199201,9 c 1.522011,3.025 2.774831,6.187372 2.784045,7.027494 0.0092,0.840121 0.647641,2.42821 1.418724,3.529086 C 38.173054,20.657456 39.342167,23.556995 40,26 c 0.657833,2.443005 1.826946,5.342544 2.59803,6.44342 0.771083,1.100876 1.411976,3.138965 1.424206,4.529086 C 44.034466,38.362628 44.924459,40.625 46,42 c 1.075541,1.375 1.965534,3.305427 1.977764,4.289838 0.01223,0.984411 0.858381,3.459411 1.880336,5.5 1.021955,2.040589 2.163552,4.97963 2.536882,6.531201 0.37333,1.551572 1.202897,2.646335 1.843482,2.432806 1.625581,-0.54186 4.432909,-5.819703 5.804061,-10.911769 0.634444,-2.356147 1.784421,-5.18462 2.555505,-6.285496 0.771083,-1.100876 1.404935,-2.913965 1.408559,-4.029086 C 64.010213,38.412372 64.907248,36.15 66,34.5 c 1.092752,-1.65 1.992752,-3.9 2,-5 0.0072,-1.1 0.907248,-3.35 2,-5 1.092752,-1.65 1.999793,-4.125 2.015647,-5.5 C 72.0315,17.625 72.924459,15.375 74,14 75.075541,12.625 75.965534,10.288017 75.977764,8.806704 76.016415,4.1251788 79.043584,3 91.600062,3 c 8.207407,0 11.454508,0.3608299 12.288328,1.3655241 0.8147,0.9816437 1.05996,13.4213419 0.87245,44.2499999 L 104.5,91.5 95.149285,91.788859 c -6.034987,0.18643 -9.846896,-0.122936 -10.75,-0.872445 C 83.274856,89.98322 83,85.26137 83,66.877555 83,52.588738 82.631731,44 82.019052,44 c -0.539521,0 -1.283582,1.2375 -1.653467,2.75 -0.369886,1.5125 -1.50346,4.318336 -2.519052,6.235191 -1.015593,1.916855 -1.861802,4.166855 -1.880464,5 C 75.947406,58.818336 75.062675,61.3 74,63.5 72.937325,65.7 72.052594,68.406664 72.033931,69.514809 72.015269,70.622954 71.1,73.208823 70,75.261185 68.9,77.313546 67.992597,80.006882 67.98355,81.246376 67.974502,82.485869 66.94898,85.3 65.704613,87.5 l -2.262486,4 -9.237963,0.287749 c -8.147598,0.253787 -9.302984,0.07674 -9.78885,-1.5 -0.302989,-0.983262 -1.420384,-3.712287 -2.483101,-6.0645 -1.062717,-2.352214 -1.947482,-5.052214 -1.966144,-6 C 39.947406,77.275462 39.062675,74.7 38,72.5 36.937325,70.3 36.037325,67.825 36,67 35.962675,66.175 35.062675,63.7 34,61.5 32.937325,59.3 32.052594,56.43338 32.033931,55.129733 31.99968,52.737138 27.123459,44.104127 25.768099,44.036512 25.365553,44.016431 24.915553,54.6875 24.768099,67.75 L 24.5,91.5 14.983397,91.783397 c -6.5476833,0.194985 -9.9013895,-0.101389 -10.7500002,-0.95 z M 114.11707,91.093515 c -1.15908,-0.734088 -1.11862,-1.253221 0.25,-3.207193 C 115.26518,86.604088 116,84.737188 116,83.737656 116,82.738123 116.9,80.156178 118,78 c 1.1,-2.156178 2,-4.676462 2,-5.600631 0,-0.924168 0.83755,-3.529596 1.86122,-5.789838 1.75722,-3.879912 2.61226,-6.137897 5.24826,-13.859531 0.61021,-1.7875 1.96021,-4.914153 3,-6.948118 1.03979,-2.033965 1.89349,-4.733965 1.89711,-6 C 132.01021,38.535847 132.90725,36.15 134,34.5 c 1.09275,-1.65 2.00506,-3.9 2.02734,-5 0.0223,-1.1 0.90998,-3.8 1.97266,-6 1.06268,-2.2 1.94741,-4.681664 1.96607,-5.514809 0.0187,-0.833145 0.93393,-3.194014 2.03393,-5.246376 1.1,-2.052361 2,-4.6173645 2,-5.7000068 C 144,3.8432339 147.20179,3 159.33548,3 h 11.46697 l 2.05618,3.4849763 c 1.13091,1.916737 2.56947,5.3911477 3.19681,7.7209137 0.62734,2.329765 1.77151,5.136654 2.54259,6.23753 0.77108,1.100876 1.40197,3.015588 1.40197,4.254917 0,1.239328 0.89832,3.7267 1.99626,5.527493 1.09795,1.800794 1.99795,4.063301 2,5.027794 0.002,0.964494 0.90374,3.43283 2.00374,5.485191 1.1,2.052362 2,4.543658 2,5.536214 0,0.992556 0.9,3.568793 2,5.724971 1.1,2.156178 2.01527,4.500751 2.03393,5.210162 C 192.05259,57.919573 192.93732,60.3 194,62.5 c 1.06268,2.2 1.94909,4.9 1.96981,6 0.0207,1.1 0.93598,3.473376 2.03393,5.27417 1.09794,1.800793 1.99626,4.149436 1.99626,5.219206 0,1.06977 0.947,3.761888 2.10444,5.982484 3.44475,6.608904 2.65156,7.13329 -10.29643,6.807066 L 180.57852,91.5 l -0.61732,-3 c -0.33953,-1.65 -1.14451,-3.9 -1.78883,-5 -0.64433,-1.1 -1.61056,-3.2375 -2.14719,-4.75 L 175.0495,76 h -16.4023 c -18.02737,0 -17.98347,-0.0145 -18.94711,6.259501 -0.31759,2.067726 -1.53567,5.105226 -2.70686,6.75 -2.11505,2.970323 -2.19474,2.990396 -11.81132,2.975186 -5.32505,-0.0084 -10.30423,-0.409449 -11.06484,-0.891172 z m 53.54266,-32.15325 C 168.95887,57.641132 167.80958,50.76597 165.58015,46.5 164.71784,44.85 164.00955,42.644961 164.00616,41.599913 163.99892,39.365689 158.92318,29 157.8364,29 c -0.41017,0 -1.05201,1.6875 -1.42629,3.75 -0.37428,2.0625 -1.51967,5.419573 -2.54531,7.460162 -1.02564,2.040589 -1.88007,4.515589 -1.89873,5.5 C 151.94741,46.694573 151.06268,49.3 150,51.5 c -2.02431,4.190821 -2.45362,6.713042 -1.33333,7.833333 1.09858,1.098584 17.84805,0.751948 18.99306,-0.393068 z M 329,87.826891 C 321.33798,83.708237 313.99382,76.873299 311.45671,71.5 310.67764,69.85 309.64117,67.825 309.15346,67 308.04588,65.126454 306.10343,59.59951 304.93604,55 303.45969,49.183203 303.88595,41.274514 306,35.259676 c 1.1,-3.129697 2,-6.461312 2,-7.403589 0,-0.942276 0.61665,-2.329876 1.37033,-3.083555 0.75367,-0.753679 2.11492,-2.81023 3.02499,-4.570112 C 315.61033,13.98528 327.7351,4 332.06934,4 333.1312,4 334.9,3.1 336,2 c 1.78667,-1.78666667 3.33333,-2 14.5,-2 11.16667,0 12.71333,0.21333333 14.5,2 1.1,1.1 3.06431,2 4.36514,2 1.30083,0 3.50931,0.9 4.90773,2 1.39842,1.1 2.84809,2 3.22148,2 1.38729,0 11.06482,10.724136 12.67983,14.05112 5.08132,10.467721 5.82621,13.629361 5.80386,24.634261 -0.0175,8.605304 -0.42606,11.70516 -2,15.173823 C 392.89012,64.256766 392,66.75274 392,67.405813 c 0,1.911509 -3.00651,5.607691 -10.85428,13.344187 -4.04485,3.9875 -8.09485,7.252965 -9,7.256589 C 371.24057,88.010213 369.15,88.907248 367.5,90 c -2.64877,1.754212 -4.63906,1.979307 -17,1.922637 l -14,-0.06418 -7.5,-4.031561 z m 31.96577,-17.797202 c 1.24948,-1.083671 3.00584,-2.222296 3.90301,-2.530277 0.89717,-0.307981 2.91259,-2.584553 4.47871,-5.059049 3.28187,-5.185408 4.30914,-12.484522 3.20635,-22.782211 -0.60121,-5.614017 -1.232,-7.17133 -4.34175,-10.719005 -2.00109,-2.282891 -4.55494,-4.572432 -5.67522,-5.087868 C 361.41659,23.335842 359.375,22.265078 358,21.471803 354.02369,19.177762 346.65423,19.638664 341.13069,22.526845 331.3989,27.615459 328,33.78876 328,46.37566 c 0,9.95033 2.15891,15.991632 7.13939,19.978274 7.09916,5.68254 6.9996,5.646066 15.41099,5.646066 6.66736,0 8.55542,-0.357171 10.41539,-1.970311 z M 408.2334,90.833397 C 406.63196,89.231961 406.46633,9.4618157 408.05258,3.75 L 409.09401,0 h 8.90147 c 7.86995,0 9.17311,0.26073474 11.24555,2.25 2.47939,2.3798923 7.09089,9.091959 15.25897,22.209548 1.65,2.649828 4.0125,6.057911 5.25,7.573517 1.2375,1.515606 2.25,3.161661 2.25,3.6579 0,0.870128 1.10119,2.468756 5.61317,8.148806 1.16224,1.463126 2.43006,3.672729 2.81739,4.910229 0.41134,1.314257 1.50796,2.25 2.63683,2.25 C 464.91888,51 465,50.078024 465,29.033927 465,10.500246 465.26333,6.5156467 466.68521,3.5339269 L 468.37042,0 H 478.18521 488 V 46.032751 92.065502 L 476.77416,91.782751 465.54832,91.5 l -4.22598,-6 c -4.55092,-6.461332 -5.79053,-8.400812 -8.70782,-13.624116 -1.03701,-1.856736 -2.49951,-3.735745 -3.25,-4.175574 C 448.61403,67.26048 448,66.454759 448,65.909817 c 0,-0.544941 -0.82907,-2.21008 -1.84237,-3.70031 C 439.72768,52.753221 436,46.818064 436,46.0367 436,45.149236 430.73822,41 429.6128,41 c -0.31815,0 -0.69868,11.3625 -0.84563,25.25 L 428.5,91.5 l -9.5166,0.283397 c -6.54769,0.194985 -9.90139,-0.101389 -10.75,-0.95 z"/>
  </g>
</svg>
