<?xml version="1.0" encoding="UTF-8" standalone="no"?>
<svg
   xmlns:dc="http://purl.org/dc/elements/1.1/"
   xmlns:cc="http://creativecommons.org/ns#"
   xmlns:rdf="http://www.w3.org/1999/02/22-rdf-syntax-ns#"
   xmlns:svg="http://www.w3.org/2000/svg"
   xmlns="http://www.w3.org/2000/svg"
   viewBox="0 0 308.06412 399.99222"
   height="399.99222"
   width="308.06412"
   id="svg2"
   version="1.1">
  <metadata
     id="metadata8">
    <rdf:RDF>
      <cc:Work
         rdf:about="">
        <dc:format>image/svg+xml</dc:format>
        <dc:type
           rdf:resource="http://purl.org/dc/dcmitype/StillImage" />
        <dc:title></dc:title>
      </cc:Work>
    </rdf:RDF>
  </metadata>
  <defs
     id="defs6" />
  <g
     transform="translate(0.06411881)"
     id="g817">
    <path
       id="path831"
       d="m 141.49489,398.5307 c -0.54719,-0.80811 -3.1016,-1.74092 -5.67646,-2.07291 -2.57487,-0.33199 -6.38252,-1.47081 -8.46144,-2.5307 C 125.27806,392.86719 122.10814,392 120.31273,392 c -1.79542,0 -4.73777,-0.89832 -6.53856,-1.99626 -1.80079,-1.09795 -5.03874,-1.99795 -7.19543,-2 -2.1595,-0.002 -4.70274,-0.71097 -5.66065,-1.57787 -0.956672,-0.86577 -4.142106,-1.92641 -7.078745,-2.35698 C 90.902705,383.63833 87.15,382.54946 85.5,381.64919 83.85,380.74891 81.132649,380.00955 79.461442,380.00616 77.790235,380.00277 74.657586,379.1 72.5,378 c -2.157586,-1.1 -5.391859,-2 -7.187272,-2 -1.795414,0 -4.737765,-0.89832 -6.538558,-1.99626 -1.800794,-1.09795 -5.038737,-1.99795 -7.195429,-2 -2.156693,-0.002 -4.682477,-0.69263 -5.612854,-1.53461 -0.930377,-0.84198 -4.11581,-1.80226 -7.078741,-2.13395 -2.96293,-0.3317 -6.134441,-1.25116 -7.047801,-2.04326 -0.913361,-0.7921 -4.146735,-1.77755 -7.185276,-2.18989 -3.038542,-0.41234 -6.131186,-1.25311 -6.872543,-1.86838 -0.741356,-0.61528 -3.582982,-1.41455 -6.314724,-1.77617 C 8.7350611,360.09586 5.7895667,359.16999 4.9212593,358.4 4.052952,357.63 2.590452,357 1.6712593,357 c -2.1604249,0 -2.37476215,-6.51606 -0.2412672,-7.33476 0.808943,-0.31042 1.7307683,-2.63698 2.1225422,-5.35699 0.3809025,-2.64454 1.5374061,-6.69606 2.5700079,-9.00339 C 7.155144,332.99754 8,329.74592 8,328.07903 c 0,-1.66688 0.8983179,-4.50407 1.9962619,-6.30486 1.0979441,-1.80079 1.9979441,-5.03874 2.0000001,-7.19543 0.0021,-2.17064 0.711236,-4.70304 1.588484,-5.67238 0.87161,-0.96312 1.818822,-3.69856 2.104915,-6.07874 0.286093,-2.38019 1.372958,-6.1572 2.415254,-8.39334 C 19.147212,292.19813 20,289.03078 20,287.39572 c 0,-1.63506 0.9,-4.73813 2,-6.89572 1.1,-2.15759 2,-5.4798 2,-7.3827 0,-1.9029 0.728218,-4.26449 1.618263,-5.24798 0.890045,-0.98349 1.857987,-3.94392 2.150983,-6.57874 0.292996,-2.63482 1.114353,-5.69058 1.825238,-6.79058 0.710885,-1.1 1.587944,-4.25 1.949021,-7 0.361077,-2.75 1.284198,-5.70789 2.05138,-6.57308 0.767183,-0.8652 1.691184,-3.7902 2.053337,-6.5 0.362152,-2.70981 1.489455,-6.49526 2.505118,-8.41211 C 39.169003,224.09795 40,221.08044 40,219.30922 c 0,-2.53501 3.001512,-8.64406 5.450021,-11.09257 0.184519,-0.18452 2.064586,0.59125 4.177925,1.72393 2.11334,1.13268 5.613667,2.05942 7.778504,2.05942 2.250396,0 4.714912,0.70484 5.754678,1.64582 1.000236,0.9052 4.185669,1.86042 7.078741,2.12271 2.893072,0.26228 5.991818,1.1159 6.886103,1.89692 0.894284,0.78102 3.24619,1.68296 5.226457,2.00432 3.185353,0.51691 3.711387,0.29258 4.562345,-1.94561 0.529023,-1.39143 1.395339,-2.79779 1.925148,-3.12523 0.529808,-0.32744 1.278331,-3.30977 1.663383,-6.62741 0.385053,-3.31763 1.287737,-6.61971 2.005966,-7.33793 0.718229,-0.71823 1.628779,-3.89034 2.023445,-7.04914 0.424566,-3.39811 1.278969,-5.95869 2.092429,-6.27085 C 97.381315,187.02343 98,186.20902 98,185.5038 c 0,-0.70523 0.851665,-2.33399 1.892589,-3.61948 1.638871,-2.02392 2.208621,-2.18029 4.250001,-1.16643 1.29658,0.64395 5.18353,1.46662 8.63768,1.82816 3.45415,0.36155 6.85542,1.2325 7.55838,1.93546 0.70296,0.70296 3.72684,1.60569 6.71973,2.00607 2.99289,0.40038 6.11662,1.30597 6.94162,2.01242 0.825,0.70645 3.8625,1.60018 6.75,1.98607 l 5.25,0.70161 v -2.96884 C 146,183.31005 147.17106,179 148.50481,179 c 0.81789,0 1.40498,-2.07612 1.6861,-5.96253 0.26631,-3.68169 1.07734,-6.6764 2.12019,-7.82874 0.92889,-1.02641 1.6889,-3.20727 1.6889,-4.84634 0,-5.69463 1.72519,-6.70722 10.47114,-6.14594 5.81714,0.37333 8.02341,0.91587 8.70945,2.14176 0.60064,1.07329 2.23499,1.64179 4.71988,1.64179 4.17272,0 10.09953,1.74526 10.09953,2.974 0,0.42808 2.54244,0.98918 5.64986,1.24687 3.43101,0.28453 6.08381,1.06199 6.75483,1.97967 0.67436,0.92225 3.3378,1.6963 6.83464,1.98629 3.15132,0.26133 6.52415,1.16592 7.49517,2.01021 0.97103,0.84428 4.2405,1.81236 7.2655,2.15128 3.025,0.33893 5.95,1.2312 6.5,1.98283 0.55,0.75163 3.36706,1.59399 6.26013,1.87191 2.89307,0.27791 6.04307,1.18653 7,2.01915 0.95693,0.83261 4.42987,1.7763 7.71764,2.09707 3.3573,0.32756 6.42589,1.19591 7,1.98085 0.56223,0.76869 3.46027,1.63183 6.4401,1.91808 3.11806,0.29954 5.87928,1.15147 6.50483,2.00697 0.65421,0.89468 3.36809,1.67567 6.81663,1.96165 3.15132,0.26133 6.52415,1.16592 7.49517,2.01021 0.97103,0.84428 4.21662,1.80963 7.21243,2.14522 3.32604,0.37258 5.77898,1.20348 6.29969,2.13395 0.58482,1.045 2.4082,1.52379 5.80307,1.52379 H 308 v 9.5 c 0,5.225 -0.3875,9.5 -0.86111,9.5 -0.47361,0 -1.10895,2.73325 -1.41187,6.07388 -0.30292,3.34063 -1.20514,6.82813 -2.00494,7.75 -0.7998,0.92187 -1.73148,4.15112 -2.0704,7.17612 -0.33893,3.025 -1.2312,5.95 -1.98283,6.5 -0.75163,0.55 -1.60081,3.43804 -1.88706,6.41787 -0.29562,3.07733 -1.15502,5.88536 -1.98931,6.5 -0.84908,0.62553 -1.72211,3.55186 -2.06906,6.93532 -0.33012,3.21925 -1.24573,6.59425 -2.03469,7.5 -0.78896,0.90575 -1.671,3.86944 -1.96009,6.586 -0.28909,2.71655 -1.18142,5.41872 -1.98297,6.00483 -0.86207,0.63036 -1.65143,3.40602 -1.9325,6.79531 -0.26133,3.15132 -1.16592,6.52415 -2.01021,7.49517 -0.84428,0.97103 -1.81236,4.2405 -2.15128,7.2655 -0.33893,3.025 -1.2312,5.95 -1.98283,6.5 -0.75163,0.55 -1.60081,3.43804 -1.88706,6.41787 -0.29562,3.07733 -1.15502,5.88536 -1.98931,6.5 -0.84908,0.62553 -1.72211,3.55186 -2.06906,6.93532 -0.33012,3.21925 -1.24573,6.59425 -2.03469,7.5 -0.78896,0.90575 -1.66582,3.82344 -1.94857,6.48377 -0.28275,2.66034 -1.03746,5.36034 -1.67712,6 -1.81487,1.81487 -13.49139,1.47813 -15.70805,-0.45301 -1.02025,-0.88883 -4.30611,-1.89062 -7.30192,-2.22621 -3.32604,-0.37258 -5.77898,-1.20348 -6.29969,-2.13395 C 238.22272,342.57556 236.4649,342 234.09953,342 229.74725,342 224,340.23715 224,338.90217 c 0,-0.49619 -0.5625,-0.88803 -1.25,-0.87075 -2.26486,0.0569 -4.54757,4.50021 -5.26598,10.25015 -0.38884,3.11222 -1.31404,6.1624 -2.05599,6.77816 -0.74195,0.61577 -1.65422,3.81731 -2.02726,7.11455 -0.38125,3.36986 -1.23481,6.20854 -1.94926,6.4827 -0.69906,0.26826 -1.53274,1.53054 -1.85263,2.80508 -0.31989,1.27453 -1.148,2.5245 -1.84025,2.77771 -2.30207,0.84203 -18.24194,-1.3906 -19.27696,-2.70004 -0.56008,-0.70858 -3.48508,-1.61839 -6.5,-2.0218 -3.01492,-0.40341 -6.15667,-1.32598 -6.98167,-2.05015 -0.825,-0.72417 -4.30466,-1.63291 -7.73258,-2.01942 -5.5527,-0.62609 -6.30559,-0.49798 -6.902,1.17445 -0.36818,1.03245 -1.24886,2.55761 -1.95707,3.38924 -0.7082,0.83163 -1.58961,3.7387 -1.95869,6.46016 -0.36908,2.72145 -1.52123,6.53436 -2.56035,8.47313 -1.03912,1.93878 -1.88931,4.90449 -1.88931,6.59049 0,1.68599 -0.5625,4.27664 -1.25,5.757 -1.00753,2.16946 -1.92992,2.69308 -4.75511,2.69937 -1.97264,0.004 -3.9401,-0.63459 -4.5,-1.4615 z M 41.25,126.30031 C 19.6625,104.51029 2,86.303617 2,85.841043 2,85.378469 1.55,85 1,85 -0.42321973,85 -0.24009467,80.198137 1.25,78.444557 4.9332797,74.109985 17.35134,62 18.112903,62 18.600806,62 19,61.464712 19,60.810471 c 0,-0.654241 13.518748,-14.604241 30.041662,-31 L 79.083324,0 h 5.084281 5.084282 L 124.13924,34.898115 C 143.32729,54.092078 159.69562,70.052955 160.5133,70.36673 161.33099,70.680505 162,71.626354 162,72.468615 162,73.310877 162.68912,74 163.53138,74 c 0.84227,0 1.82513,0.7875 2.18415,1.75 0.35902,0.9625 1.4699,2.338017 2.46862,3.056704 2.32725,1.67471 2.32725,4.711882 0,6.386592 -0.99872,0.718687 -2.1096,2.094204 -2.46862,3.056704 -0.35902,0.9625 -1.2894,1.75 -2.06751,1.75 -0.77812,0 -1.65011,0.9 -1.93777,2 -0.28766,1.1 -1.18766,2 -2,2 -0.81234,0 -1.71234,0.9 -2,2 -0.28766,1.1 -1.18766,2 -2,2 -0.81234,0 -1.71234,0.9 -2,2 -0.28766,1.1 -1.24014,2 -2.11663,2 -0.87649,0 -1.59362,0.71713 -1.59362,1.59362 0,0.87649 -0.8584,1.81809 -1.90755,2.09245 -1.04915,0.27436 -2.13202,1.35723 -2.40638,2.40638 -0.27436,1.04915 -1.16348,1.90755 -1.97582,1.90755 -0.81234,0 -1.71234,0.9 -2,2 -0.28766,1.1 -1.18766,2 -2,2 -0.81234,0 -1.71234,0.9 -2,2 -0.28766,1.1 -1.18766,2 -2,2 -0.81234,0 -1.71234,0.9 -2,2 -0.28766,1.1 -1.24014,2 -2.11663,2 -0.87649,0 -1.59362,0.71713 -1.59362,1.59362 0,0.87649 -0.9,1.82897 -2,2.11663 -1.1,0.28766 -2,1.14553 -2,1.90638 0,0.76085 -0.40158,1.38337 -0.89241,1.38337 -0.49082,0 -9.20036,8.325 -19.35452,18.5 C 88.94304,164.34453 86.987121,165.99635 83.895482,165.95926 80.769791,165.92176 77.381357,162.77063 41.25,126.30031 Z M 111.24755,112 C 125.53984,97.7 137.63099,86 138.11677,86 138.60254,86 139,85.325 139,84.5 139,83.675 139.73174,83 140.62609,83 141.52043,83 129.42717,70.175 113.75217,54.5 98.077174,38.825 84.829568,26 84.313049,26 83.79653,26 70.392469,38.825 54.526246,54.5 38.660023,70.175 26.260101,83 26.970863,83 28.560466,83 37,91.304292 37,92.868421 37,93.490789 37.399471,94 37.887714,94 c 0.488243,0 10.725743,9.88317 22.75,21.96261 12.024257,12.07943 22.48364,21.97943 23.243072,22 C 84.640218,137.98317 96.955263,126.3 111.24755,112 Z"
       style="fill:#fbe8f2" />
    <path
       id="path829"
       d="m 193.5,369.93217 c -1.65,-1.0569 -4.46413,-1.92401 -6.25362,-1.92691 -1.7895,-0.003 -4.93283,-0.90526 -6.9852,-2.00526 -2.05236,-1.1 -5.20236,-2 -7,-2 -1.79763,0 -4.94763,-0.9 -7,-2 -2.05236,-1.1 -5.44807,-2 -7.54603,-2 -2.09796,0 -5.04689,-0.63731 -6.55318,-1.41624 -1.50629,-0.77893 -4.97144,-1.87344 -7.70034,-2.43225 -2.7289,-0.5588 -6.98663,-1.67014 -9.46163,-2.46964 -4.31832,-1.39496 -11.73742,-3.56962 -26.26034,-7.69733 C 91.008703,340.94503 87.286693,339.84853 84.5,338.8436 c -1.65,-0.59502 -5.475,-1.68246 -8.5,-2.41654 -3.025,-0.73407 -7.975,-2.19874 -11,-3.25482 l -5.5,-1.92013 0.221947,-6.66581 c 0.12207,-3.66619 0.904578,-8.11042 1.738906,-9.87605 0.834328,-1.76564 1.942941,-5.23525 2.463584,-7.71025 0.520643,-2.475 1.599284,-6.525 2.396981,-9 0.797697,-2.475 2.418481,-7.875 3.601742,-12 1.183262,-4.125 2.638219,-8.85 3.233239,-10.5 0.595021,-1.65 1.68143,-5.475 2.414244,-8.5 0.732815,-3.025 1.977857,-7.525 2.766761,-10 0.788904,-2.475 2.402495,-7.875 3.585756,-12 1.183262,-4.125 2.632994,-8.85 3.221628,-10.5 0.588633,-1.65 1.594639,-5.025 2.235568,-7.5 0.640929,-2.475 1.942548,-5.94015 2.892485,-7.70034 C 91.222778,217.53947 92,214.6021 92,212.77217 c 0,-1.82994 0.649008,-4.25375 1.44224,-5.38624 0.793232,-1.1325 2.096747,-4.72013 2.8967,-7.97251 0.799954,-3.25238 2.019171,-7.48842 2.709373,-9.41342 0.690202,-1.925 1.397567,-4.0625 1.571917,-4.75 0.48286,-1.90402 11.28706,-1.64387 13.46168,0.32413 0.95667,0.86577 4.14211,1.92641 7.07875,2.35698 2.93663,0.43056 6.68934,1.51943 8.33934,2.4197 1.65,0.90028 4.31805,1.63964 5.929,1.64303 1.61095,0.003 4.41214,0.54247 6.22487,1.19796 1.81272,0.65549 3.53166,0.95601 3.81985,0.66781 0.28819,-0.28819 0.91943,-2.64072 1.40276,-5.22784 0.48333,-2.58711 1.60884,-5.51056 2.50115,-6.49655 0.9625,-1.06355 1.62237,-3.52682 1.62237,-6.05623 0,-2.74934 0.7103,-5.16653 2,-6.80612 1.2971,-1.649 2,-4.05678 2,-6.85102 0,-3.3186 0.51061,-4.66609 2.22251,-5.86515 3.0588,-2.14247 8.67955,-1.93952 12.27749,0.4433 1.76649,1.1699 4.69202,1.98953 7.11514,1.99341 2.59286,0.004 5.0557,0.74644 6.65773,2.00659 1.67533,1.31782 4.05678,2 6.98185,2 3.00392,0 5.18486,0.64666 6.74528,2 1.49396,1.29571 3.74876,2.00232 6.40301,2.00659 2.405,0.004 5.33594,0.82712 7.09699,1.99341 1.72375,1.1416 4.70166,1.99243 7,2 2.29834,0.008 5.27625,0.8584 7,2 1.76649,1.1699 4.69202,1.98953 7.11514,1.99341 2.59286,0.004 5.0557,0.74644 6.65773,2.00659 1.67533,1.31782 4.05678,2 6.98185,2 3.00392,0 5.18486,0.64666 6.74528,2 1.60088,1.38843 3.74136,2 7,2 3.25864,0 5.39912,0.61157 7,2 1.49396,1.29571 3.74876,2.00232 6.40301,2.00659 2.405,0.004 5.33594,0.82712 7.09699,1.99341 1.72375,1.1416 4.70166,1.99243 7,2 2.29834,0.008 5.27625,0.8584 7,2 1.65,1.09275 4.575,1.99593 6.5,2.00707 7.38827,0.0427 8,0.59184 8,7.18099 0,3.95982 -0.50253,6.45733 -1.5,7.4548 -0.85184,0.85184 -1.50285,3.30559 -1.50659,5.67857 -0.004,2.48648 -0.81114,5.39341 -1.99341,7.17857 -1.1699,1.76649 -1.98953,4.69202 -1.99341,7.11514 -0.004,2.59286 -0.74644,5.0557 -2.00659,6.65773 -1.27629,1.62254 -2,4.05678 -2,6.72713 0,2.67035 -0.72371,5.10459 -2,6.72713 -1.28412,1.63249 -2,4.05678 -2,6.77287 0,2.71609 -0.71588,5.14038 -2,6.77287 -1.31782,1.67533 -2,4.05678 -2,6.98185 0,3.00392 -0.64666,5.18486 -2,6.74528 -1.35334,1.56042 -2,3.74136 -2,6.74528 0,2.92507 -0.68218,5.30652 -2,6.98185 -1.28412,1.63249 -2,4.05678 -2,6.77287 0,2.71609 -0.71588,5.14038 -2,6.77287 -1.31782,1.67533 -2,4.05678 -2,6.98185 0,3.00392 -0.64666,5.18486 -2,6.74528 -1.31847,1.52021 -2,3.74136 -2,6.51815 0,2.69794 -0.71897,5.12615 -2,6.75472 -1.31165,1.66749 -2,4.05678 -2,6.94208 0,3.28573 -0.66961,5.20777 -2.64503,7.59227 -3.04994,3.68153 -5.62625,3.99335 -9.85497,1.19278 -1.72375,-1.1416 -4.70166,-1.99243 -7,-2 -2.29834,-0.008 -5.27625,-0.8584 -7,-2 -1.76649,-1.1699 -4.69202,-1.98953 -7.11514,-1.99341 -2.59286,-0.004 -5.0557,-0.74644 -6.65773,-2.00659 -1.68423,-1.32482 -4.05678,-2 -7.02787,-2 -4.91562,0 -5.69926,0.8744 -5.69926,6.35928 0,1.75764 -0.67059,4.1531 -1.49019,5.32325 -0.81961,1.17015 -1.99717,4.53278 -2.6168,7.47251 -0.61964,2.93973 -1.48006,5.79496 -1.91204,6.34496 -0.43198,0.55 -1.29677,2.9125 -1.92174,5.25 l -1.13632,4.25 -5.21145,-0.0731 c -3.32854,-0.0467 -6.29537,-0.76739 -8.21146,-1.99473 z M 67.667851,150.24099 C 59.662197,142.13345 41.83689,124.13724 28.056058,110.24942 14.275226,96.361597 3,84.549097 3,83.999417 3,83.449738 2.325,83 1.5,83 0.675,83 0,82.55 0,82 0,81.45 0.675,81 1.5,81 2.325,81 3,80.551929 3,80.004288 3,78.869746 9.1651949,72.510783 51.238187,30.25 78.672167,2.693571 81.649671,0 84.676884,0 86.504598,0 88,0.47731848 88,1.0607077 88,1.644097 93.0625,7.0662672 99.25,13.109975 129.07261,42.239528 165,78.299488 165,79.102581 165,79.596161 165.675,80 166.5,80 c 0.83333,0 1.5,0.888889 1.5,2 0,1.111111 -0.66667,2 -1.5,2 -0.825,0 -1.5,0.393357 -1.5,0.874127 0,1.723116 -78.063681,78.925043 -80.398599,79.511063 -2.044061,0.51303 -4.420874,-1.47227 -16.93355,-14.1442 z M 113.45264,112.25 c 15.41695,-15.2625 28.42571,-28.368446 28.90836,-29.124324 0.64595,-1.011649 -6.73918,-8.994435 -27.98527,-30.25 C 98.253997,36.746749 84.730088,24 83.739526,24 81.597391,24 25,80.374554 25,82.508255 c 0,0.82046 0.3375,1.493827 0.75,1.496372 0.89508,0.0055 0.349205,-0.534609 31.25,30.921223 14.880058,15.14733 25.269954,24.96639 26.460914,25.00711 1.275228,0.0436 11.762636,-9.63649 29.991726,-27.68296 z"
       style="fill:#e9c8af" />
    <path
       id="path827"
       d="m 197.5,370.99402 c -1.65,-0.44069 -4.35,-1.25421 -6,-1.8078 -1.65,-0.5536 -6.15,-1.92597 -10,-3.0497 -3.85,-1.12373 -9.95672,-2.96416 -13.5705,-4.08984 C 164.31573,360.92101 159.90588,360 158.12984,360 c -1.77604,0 -4.46158,-0.63731 -5.96787,-1.41624 -1.50629,-0.77893 -4.97144,-1.87344 -7.70034,-2.43225 -2.7289,-0.5588 -6.98663,-1.67014 -9.46163,-2.46964 -2.475,-0.79951 -7.65,-2.35239 -11.5,-3.45086 -3.85,-1.09846 -10.26715,-2.93561 -14.26034,-4.08256 -3.99319,-1.14694 -10.518193,-3.01632 -14.500004,-4.15417 C 90.757845,340.85643 86.15,339.43862 84.5,338.8436 c -1.65,-0.59502 -5.475,-1.68246 -8.5,-2.41654 -3.025,-0.73407 -7.975,-2.19874 -11,-3.25482 l -5.5,-1.92013 0.221947,-6.66581 c 0.12207,-3.66619 0.904578,-8.11042 1.738906,-9.87605 0.834328,-1.76564 1.942941,-5.23525 2.463584,-7.71025 0.520643,-2.475 1.599284,-6.525 2.396981,-9 0.797697,-2.475 2.418481,-7.875 3.601742,-12 1.183262,-4.125 2.638219,-8.85 3.233239,-10.5 0.595021,-1.65 1.68143,-5.475 2.414244,-8.5 0.732815,-3.025 1.977857,-7.525 2.766761,-10 0.788904,-2.475 2.402495,-7.875 3.585756,-12 1.183262,-4.125 2.632994,-8.85 3.221628,-10.5 0.588633,-1.65 1.591584,-5.025 2.228779,-7.5 0.637195,-2.475 1.773414,-5.59428 2.524931,-6.93174 0.751517,-1.33745 1.961659,-4.71245 2.689203,-7.5 2.383497,-9.13224 5.21662,-19.00293 6.477625,-22.56826 0.680845,-1.925 1.404174,-4.12406 1.607394,-4.88679 0.44727,-1.6787 7.68146,-1.04547 15.05197,1.31754 12.73493,4.08286 21.21941,6.43832 25.50733,7.08134 5.31338,0.79678 5.04863,1.10854 8.07778,-9.51209 0.86277,-3.025 2.72302,-9.325 4.13388,-14 1.41087,-4.675 2.56322,-9.2324 2.56077,-10.12756 -0.0129,-4.70556 5.95556,-4.83351 19.99555,-0.42866 4.675,1.46672 11.425,3.48704 15,4.48959 3.575,1.00256 9.875,2.79506 14,3.98334 15.365,4.42616 17.65818,5.07882 24.5,6.97287 3.85,1.06582 8.35,2.4017 10,2.96863 3.08354,1.05948 14.27575,4.35238 27.5,8.09086 8.14269,2.30193 16.81714,4.84367 27,7.91142 3.575,1.07702 8.1875,2.27409 10.25,2.66016 l 3.75,0.70193 v 5.46014 c 0,3.52012 -0.53296,5.99309 -1.5,6.96014 -0.825,0.825 -1.5,2.38205 -1.5,3.46011 0,1.07807 -0.837,4.53343 -1.86001,7.67858 -1.92735,5.92547 -4.13577,13.31021 -8.58831,28.71845 -1.4304,4.95 -3.07853,10.35 -3.6625,12 -0.58396,1.65 -1.86807,5.925 -2.85356,9.5 -0.9855,3.575 -2.76405,9.875 -3.95233,14 -1.18828,4.125 -2.7818,9.75 -3.54116,12.5 -0.75935,2.75 -1.82866,6.35 -2.37623,8 -2.92557,8.81561 -6.19884,20.18624 -6.18921,21.5 0.006,0.825 -0.61648,2.70266 -1.38338,4.17258 -0.76691,1.46993 -1.90457,5.05155 -2.52814,7.95917 -1.21066,5.6451 -3.38037,8.86812 -5.97016,8.86846 -0.87725,1.1e-4 -4.29501,-0.88675 -7.59501,-1.97079 -3.3,-1.08405 -9.375,-2.93273 -13.5,-4.10818 -4.125,-1.17546 -9.975,-2.94835 -13,-3.93977 -6.99904,-2.29388 -10.82723,-1.66966 -11.57365,1.88716 -0.65361,3.11462 -3.0828,11.30806 -6.93211,23.38137 -2.73383,8.57466 -2.8519,8.74795 -5.89199,8.64764 -1.70624,-0.0563 -4.45225,-0.46293 -6.10225,-0.90362 z M 82.957792,160.17971 C 80.158567,158.94598 5,83.70558 5,82.137041 5,80.074775 81.473026,4.2101853 83.952599,3.8126073 85.375034,3.5845322 96.461445,13.965431 124.95112,42.202079 146.428,63.488223 164,81.462163 164,82.144168 c 0,1.236456 -77.813451,78.919032 -78.918277,78.785542 -0.319948,-0.0386 -1.275717,-0.37615 -2.123931,-0.75 z M 114.03543,116 C 129.46211,100.6 142.51505,88 143.04197,88 143.56888,88 144,87.472933 144,86.828741 c 0,-0.644193 0.71916,-1.965917 1.59812,-2.937166 1.35172,-1.493625 1.39026,-2.01726 0.25,-3.396095 C 139.98239,73.40247 85.655942,20 84.305936,20 82.64098,20 24.863929,76.685628 22.895884,80.25 c -0.623484,1.129206 -0.619196,2.398478 0.01209,3.578042 0.978885,1.829064 57.026488,57.876618 59.356811,59.356768 0.67937,0.43151 1.794776,0.79146 2.47868,0.79988 C 85.427367,143.99311 98.608752,131.4 114.03543,116 Z"
       style="fill:#f19bc5" />
    <path
       id="path825"
       d="m 157.05246,356.56321 c -0.65583,-0.79023 -3.62247,-1.7404 -6.59252,-2.11148 -2.97006,-0.37109 -5.88396,-1.25771 -6.47534,-1.97029 -0.59139,-0.71257 -3.73445,-1.60422 -6.9846,-1.98144 -3.25015,-0.37722 -6.40015,-1.27722 -7,-2 -0.59985,-0.72278 -3.74985,-1.62278 -7,-2 -3.25015,-0.37722 -6.42009,-1.30126 -7.04433,-2.05341 -0.62423,-0.75216 -3.78706,-1.66761 -7.0285,-2.03434 -3.24143,-0.36673 -6.38258,-1.25606 -6.98033,-1.9763 -0.59774,-0.72024 -3.6263,-1.62681 -6.730125,-2.01461 -3.103826,-0.3878 -6.210641,-1.27241 -6.904034,-1.9658 -0.693394,-0.6934 -3.624014,-1.58575 -6.512491,-1.98302 -2.888477,-0.39727 -6.162669,-1.3142 -7.275983,-2.03763 C 73.410893,331.71146 70.1375,330.80969 67.25,330.43095 L 62,329.74234 v -3.9426 c 0,-2.16843 0.631165,-4.57376 1.402589,-5.34519 0.771423,-0.77142 1.727625,-3.76588 2.124892,-6.65436 0.397267,-2.88848 1.306036,-6.16267 2.019486,-7.27598 0.713451,-1.11332 1.612297,-4.27421 1.997435,-7.02421 0.385139,-2.75 1.271709,-5.675 1.970155,-6.5 0.698447,-0.825 1.597486,-3.94873 1.997865,-6.94162 0.40038,-2.99289 1.327781,-6.04144 2.060892,-6.77455 0.73311,-0.73311 1.634092,-3.99487 2.002182,-7.24835 0.374761,-3.31246 1.228554,-6.13005 1.940303,-6.40317 0.712392,-0.27337 1.578497,-3.13674 1.970552,-6.51471 0.384726,-3.31482 1.293572,-6.51999 2.019657,-7.12259 0.726085,-0.60259 1.64047,-3.4246 2.031966,-6.27111 0.391496,-2.84652 1.295543,-6.08638 2.008993,-7.19969 0.713451,-1.11332 1.621272,-4.27421 2.017382,-7.02421 0.452094,-3.13868 1.525342,-5.75258 2.883026,-7.02162 2.251882,-2.10487 4.443868,-1.98345 12.052625,0.66761 1.65,0.5749 5.475,1.64317 8.5,2.37393 3.025,0.73076 7.3,2.01798 9.5,2.86048 4.35842,1.66907 8.36928,2.00814 10.10549,0.85429 0.60802,-0.40408 1.34984,-2.95732 1.64849,-5.67388 0.29865,-2.71655 1.19567,-5.41655 1.99338,-6 0.8056,-0.58921 1.67503,-3.39926 1.9557,-6.32094 0.27791,-2.89307 1.24592,-6.07851 2.15112,-7.07874 0.9052,-1.00024 1.64582,-3.25533 1.64582,-5.01131 0,-2.41209 0.59514,-3.46386 2.43415,-4.30177 1.78746,-0.81442 2.61341,-2.20352 3.10887,-5.22856 0.3711,-2.26572 1.33409,-4.86678 2.13998,-5.78015 0.8059,-0.91336 1.81754,-4.06336 2.24811,-7 0.43056,-2.93663 1.51943,-6.68934 2.4197,-8.33934 0.90028,-1.65 1.63964,-4.60906 1.64303,-6.57569 0.004,-2.43911 0.74184,-4.26681 2.32061,-5.75 2.85783,-2.68478 4.21103,-2.71046 9.18555,-0.17431 2.15759,1.1 5.4798,2 7.3827,2 1.9029,0 4.24255,0.70836 5.19921,1.57413 0.95667,0.86577 4.14211,1.92641 7.07875,2.35698 2.93663,0.43056 6.68934,1.51943 8.33934,2.4197 1.65,0.90028 4.46413,1.63964 6.25362,1.64303 1.7895,0.003 4.93283,0.90616 6.9852,2.00616 2.05236,1.1 5.20236,2 7,2 1.79763,0 4.94763,0.9 7,2 2.05236,1.1 4.92658,2 6.38717,2 1.46058,0 4.61724,0.89012 7.01481,1.97804 2.39756,1.08792 5.89877,1.98792 7.78046,2 1.88169,0.0121 4.20399,0.73032 5.16065,1.59609 0.95667,0.86577 4.14211,1.92641 7.07875,2.35698 2.93663,0.43056 6.68934,1.51943 8.33934,2.4197 1.65,0.90028 4.46413,1.63964 6.25362,1.64303 1.7895,0.003 4.93283,0.90616 6.9852,2.00616 2.05236,1.1 5.10558,2 6.78493,2 1.67935,0 4.81866,0.9 6.97625,2 2.15759,1.1 5.57263,2 7.589,2 2.03881,0 4.21869,0.66581 4.911,1.5 0.68469,0.825 1.86479,1.5 2.62244,1.5 1.92908,0 1.78511,5.9815 -0.17851,7.41734 -0.85584,0.62581 -1.91648,3.60042 -2.35698,6.61025 -0.44049,3.00982 -1.53749,6.82241 -2.43776,8.47241 -0.90028,1.65 -1.63964,4.53957 -1.64303,6.42126 -0.003,1.88169 -0.71452,4.20399 -1.58029,5.16065 -0.86577,0.95667 -1.92641,4.14211 -2.35698,7.07875 -0.43056,2.93663 -1.51943,6.68934 -2.4197,8.33934 -0.90028,1.65 -1.63964,4.46413 -1.64303,6.25362 -0.003,1.7895 -0.90616,4.93283 -2.00616,6.9852 -1.1,2.05236 -2,5.27779 -2,7.16763 0,1.88984 -0.70836,4.2188 -1.57413,5.17546 -0.86577,0.95667 -1.92641,4.14211 -2.35698,7.07875 -0.43056,2.93663 -1.51943,6.68934 -2.4197,8.33934 -0.90028,1.65 -1.63964,4.36735 -1.64303,6.03856 -0.003,1.67121 -0.90616,4.80385 -2.00616,6.96144 -1.1,2.15759 -2,5.17937 -2,6.71507 0,1.5357 -0.9,4.47138 -2,6.52375 -1.1,2.05236 -2,5.20236 -2,7 0,1.79763 -0.9,4.94763 -2,7 -1.1,2.05236 -2,5.18074 -2,6.95196 0,2.53501 -3.00151,8.64406 -5.45002,11.09257 -0.18452,0.18452 -2.06459,-0.59125 -4.17793,-1.72393 C 256.25871,344.92674 253.1556,344 251.47625,344 c -1.67935,0 -4.81866,-0.9 -6.97625,-2 -2.15759,-1.1 -5.4798,-2 -7.3827,-2 -1.9029,0 -4.28119,-0.74333 -5.28508,-1.65184 -2.27527,-2.05909 -13.29233,-3.2605 -17.15451,-1.87071 -2.32355,0.83613 -2.995,0.70696 -3.79969,-0.73093 C 210.21526,334.56224 208.67698,334 206.09953,334 201.92681,334 196,332.25474 196,331.026 c 0,-0.42808 -2.54244,-0.98918 -5.64986,-1.24687 -3.68126,-0.30528 -6.07159,-1.04529 -6.86024,-2.12383 -0.84148,-1.1508 -2.70069,-1.65416 -6.10014,-1.65155 -4.81113,0.004 -4.91773,0.072 -6.62896,4.25 -0.95656,2.33544 -2.1601,6.27125 -2.67453,8.74625 -0.51444,2.475 -1.63783,6.525 -2.49644,9 -0.85861,2.475 -1.80115,5.7375 -2.09452,7.25 -0.40188,2.07189 -1.11498,2.75 -2.89192,2.75 -1.29717,0 -2.89509,-0.64655 -3.55093,-1.43679 z M 82.957792,160.17971 C 80.158567,158.94598 5,83.70558 5,82.137041 5,80.074775 81.473026,4.2101853 83.952599,3.8126073 85.375034,3.5845322 96.461445,13.965431 124.95112,42.202079 146.428,63.488223 164,81.462163 164,82.144168 c 0,1.236456 -77.813451,78.919032 -78.918277,78.785542 -0.319948,-0.0386 -1.275717,-0.37615 -2.123931,-0.75 z M 114.03543,116 C 129.46211,100.6 142.51505,88 143.04197,88 143.56888,88 144,87.472933 144,86.828741 c 0,-0.644193 0.71916,-1.965917 1.59812,-2.937166 1.35172,-1.493625 1.39026,-2.01726 0.25,-3.396095 C 139.98239,73.40247 85.655942,20 84.305936,20 82.64098,20 24.863929,76.685628 22.895884,80.25 c -0.623484,1.129206 -0.619196,2.398478 0.01209,3.578042 0.978885,1.829064 57.026488,57.876618 59.356811,59.356768 0.67937,0.43151 1.794776,0.79146 2.47868,0.79988 C 85.427367,143.99311 98.608752,131.4 114.03543,116 Z"
       style="fill:#ee8fb5" />
    <path
       id="path823"
       d="m 259,345 c -0.825,-0.53316 -2.625,-0.99602 -4,-1.02858 -1.375,-0.0326 -4.3,-0.74811 -6.5,-1.59011 -2.2,-0.842 -6.025,-1.98083 -8.5,-2.53073 -2.475,-0.54991 -5.85,-1.59297 -7.5,-2.31792 -1.65,-0.72495 -8.79263,-2.28332 -15.87252,-3.46305 -7.07988,-1.17973 -14.05488,-2.74457 -15.5,-3.47743 -1.44511,-0.73286 -4.75449,-1.64191 -7.35417,-2.0201 -2.59968,-0.3782 -4.97003,-1.08136 -5.26744,-1.56258 -0.29741,-0.48122 -3.1204,-1.37145 -6.27331,-1.97829 -3.15291,-0.60683 -7.21033,-1.76211 -9.01649,-2.56727 -1.80616,-0.80517 -4.73116,-1.47921 -6.5,-1.49787 C 164.94723,320.94741 161.7,320.06268 159.5,319 c -2.2,-1.06268 -5.35666,-1.94741 -7.01481,-1.96607 -1.65814,-0.0187 -4.69401,-0.93393 -6.74637,-2.03393 -2.05237,-1.1 -5.1957,-2.00277 -6.9852,-2.00616 -1.78949,-0.003 -4.60362,-0.73956 -6.25362,-1.63594 -1.65,-0.89637 -5.18706,-1.99932 -7.86012,-2.45098 -7.68606,-1.29871 -9.64622,-3.06992 -9.60595,-8.67997 0.0187,-2.59982 0.90339,-6.52695 1.96607,-8.72695 1.06268,-2.2 1.94741,-5.35666 1.96607,-7.01481 0.0187,-1.65814 0.93393,-4.69401 2.03393,-6.74637 1.1,-2.05237 2.00988,-4.9707 2.02196,-6.4852 0.0121,-1.51449 0.91208,-4.71526 2,-7.11282 1.08792,-2.39757 1.98081,-5.54757 1.9842,-7 0.003,-1.45244 0.71572,-3.9908 1.58296,-5.6408 0.86724,-1.65 1.97599,-5.42468 2.4639,-8.38818 0.48791,-2.9635 1.51858,-6.1135 2.29038,-7 0.7718,-0.8865 1.72385,-3.39627 2.11567,-5.57726 0.39181,-2.181 1.34881,-5.19615 2.12666,-6.70035 0.77785,-1.50419 1.43402,-3.76974 1.45816,-5.03455 0.0241,-1.26481 0.73481,-4.09966 1.57927,-6.29966 0.84445,-2.2 1.98639,-6.22722 2.53763,-8.94937 0.55125,-2.72216 1.61164,-5.42216 2.35643,-6 1.51027,-1.17175 5.06571,-10.64853 6.58454,-17.55063 0.54464,-2.475 1.5882,-5.625 2.31903,-7 0.73084,-1.375 1.6348,-4.61811 2.00881,-7.2069 0.37401,-2.5888 1.51612,-5.7388 2.53803,-7 1.72768,-2.13225 2.0921,-2.19877 5.19519,-0.94837 1.83545,0.7396 5.36218,1.78568 7.83718,2.32462 2.475,0.53895 5.85,1.57476 7.5,2.3018 1.65,0.72705 5.01517,1.65037 7.47816,2.05182 2.46299,0.40146 5.38799,1.30478 6.5,2.00738 1.11201,0.7026 4.04684,1.59891 6.52184,1.9918 2.475,0.39289 5.71515,1.33613 7.20034,2.0961 1.48519,0.75996 3.73519,1.4015 5,1.42564 1.26481,0.0241 4.09966,0.73321 6.29966,1.57571 2.2,0.8425 6.475,2.09493 9.5,2.78318 3.025,0.68825 6.4,1.72693 7.5,2.30816 1.1,0.58124 3.94928,1.37983 6.33173,1.77464 2.38246,0.39481 5.53246,1.34429 7,2.10997 1.46755,0.76567 4.02493,1.3949 5.68308,1.39829 1.65814,0.003 4.58549,0.848 6.50522,1.87691 1.91972,1.02891 5.51305,2.20712 7.98519,2.61824 2.47213,0.41113 5.70993,1.36929 7.19512,2.12926 1.48519,0.75996 3.96019,1.39163 5.5,1.40371 1.53981,0.0121 4.60421,0.84175 6.80977,1.84371 2.20556,1.00196 5.80556,2.14722 8,2.54503 6.77543,1.22826 11.43503,3.80488 11.46409,6.3393 0.0149,1.2983 -0.58016,2.25 -1.40681,2.25 -1.54273,0 -2.07918,1.2782 -3.14772,7.5 -0.37783,2.2 -1.24861,5.125 -1.93507,6.5 -0.68646,1.375 -1.5772,4.525 -1.97942,7 -0.40222,2.475 -1.11615,4.9789 -1.58652,5.56423 -0.47036,0.58533 -1.48597,3.76808 -2.2569,7.07278 -0.77093,3.3047 -1.85795,6.87579 -2.4156,7.93577 -0.55765,1.05997 -1.34437,3.95222 -1.74828,6.42722 -0.40391,2.475 -1.29358,5.625 -1.97705,7 -0.68347,1.375 -1.52606,4.35296 -1.87241,6.61769 -0.34636,2.26473 -1.29645,5.40277 -2.11131,6.97342 -0.81487,1.57065 -1.7851,4.89269 -2.15609,7.38231 -0.37098,2.48962 -1.23034,5.42658 -1.90969,6.52658 -0.67935,1.1 -1.52618,3.95974 -1.88186,6.35497 -0.35567,2.39524 -1.25559,5.54524 -1.99983,7 -0.74423,1.45477 -1.68826,4.6602 -2.09784,7.12319 -0.40958,2.46299 -1.31955,5.38799 -2.02215,6.5 -0.7026,1.11201 -1.59891,4.04684 -1.9918,6.52184 -0.39289,2.475 -1.27414,5.625 -1.95834,7 -0.68419,1.375 -1.48646,4.39986 -1.78282,6.7219 -0.58594,4.59092 -4.19389,11.28735 -6.06825,11.26279 C 261.0258,345.97627 259.825,345.53316 259,345 Z M 82.957792,160.17971 C 80.158567,158.94598 5,83.70558 5,82.137041 5,80.074775 81.473026,4.2101853 83.952599,3.8126073 85.375034,3.5845322 96.461445,13.965431 124.95112,42.202079 146.428,63.488223 164,81.462163 164,82.144168 c 0,1.236456 -77.813451,78.919032 -78.918277,78.785542 -0.319948,-0.0386 -1.275717,-0.37615 -2.123931,-0.75 z M 114.03543,116 C 129.46211,100.6 142.51505,88 143.04197,88 143.56888,88 144,87.472933 144,86.828741 c 0,-0.644193 0.71916,-1.965917 1.59812,-2.937166 1.35172,-1.493625 1.39026,-2.01726 0.25,-3.396095 C 139.98239,73.40247 85.655942,20 84.305936,20 82.64098,20 24.863929,76.685628 22.895884,80.25 c -0.623484,1.129206 -0.619196,2.398478 0.01209,3.578042 0.978885,1.829064 57.026488,57.876618 59.356811,59.356768 0.67937,0.43151 1.794776,0.79146 2.47868,0.79988 C 85.427367,143.99311 98.608752,131.4 114.03543,116 Z"
       style="fill:#eb5fa3" />
    <path
       id="path821"
       d="m 256.41155,342.94532 c -2.79865,-0.37813 -6.17365,-1.36667 -7.5,-2.19675 -1.32635,-0.83007 -4.57632,-1.78321 -7.22216,-2.11807 -2.64583,-0.33487 -5.49047,-1.28872 -6.32142,-2.11968 C 234.53701,335.67987 232.41119,335 230.64391,335 c -1.76727,0 -5.77389,-0.9 -8.90359,-2 -3.12969,-1.1 -7.07394,-2 -8.765,-2 -1.69105,0 -4.35506,-0.66213 -5.92001,-1.4714 -1.56495,-0.80926 -4.8051,-1.78332 -7.20034,-2.16457 -2.39523,-0.38125 -6.15497,-1.50924 -8.35497,-2.50664 -2.2,-0.99741 -5.36237,-1.82335 -7.02749,-1.83543 -1.66513,-0.0121 -3.99761,-0.70145 -5.18331,-1.53195 -1.18569,-0.83049 -4.32332,-1.79372 -6.9725,-2.14051 -2.64919,-0.34679 -5.95897,-1.20461 -7.35507,-1.90626 -1.3961,-0.70165 -4.7711,-1.72774 -7.5,-2.28022 -2.7289,-0.55247 -6.76163,-1.69541 -8.96163,-2.53986 -2.2,-0.84446 -5.13737,-1.55513 -6.52749,-1.57927 -1.39013,-0.0241 -3.49761,-0.72338 -4.68331,-1.55388 -1.18569,-0.83049 -4.32332,-1.79177 -6.9725,-2.13618 -2.64919,-0.3444 -5.9417,-1.20461 -7.3167,-1.91157 -1.375,-0.70696 -3.2875,-1.53156 -4.25,-1.83244 -2.13657,-0.66789 -2.22666,-2.78737 -0.2786,-6.55451 0.80926,-1.56495 1.77185,-4.8051 2.13907,-7.20034 0.36723,-2.39523 1.22537,-5.47997 1.90699,-6.85497 0.68162,-1.375 1.75683,-4.94431 2.38936,-7.9318 0.63252,-2.98748 1.54739,-5.91248 2.03304,-6.5 0.48565,-0.58751 1.33719,-3.3182 1.89231,-6.0682 0.55512,-2.75 1.70022,-6.8 2.54467,-9 0.84446,-2.2 1.55513,-4.96336 1.57927,-6.1408 0.0241,-1.17743 0.93401,-4.10243 2.02193,-6.5 1.08792,-2.39756 1.98792,-5.32256 2,-6.5 0.0121,-1.17743 0.91208,-4.10243 2,-6.5 1.08792,-2.39756 1.98792,-5.72157 2,-7.38669 0.0121,-1.66513 0.68252,-3.97058 1.48987,-5.12323 0.80735,-1.15266 1.77063,-4.06529 2.14061,-6.47251 0.36999,-2.40722 1.50943,-6.04634 2.53209,-8.08693 1.02266,-2.04059 1.85939,-4.52226 1.85939,-5.51481 0,-0.99256 0.9,-3.48385 2,-5.53621 1.1,-2.05237 2.00277,-4.9707 2.00616,-6.4852 0.003,-1.51449 0.74275,-4.10362 1.64303,-5.75362 0.90027,-1.65 1.97978,-5.33371 2.3989,-8.18603 0.87763,-5.97273 3.70571,-10.56079 5.95191,-9.65595 0.825,0.33233 3.90802,1.00861 6.85116,1.50285 2.94315,0.49423 6.01279,1.56022 6.82143,2.36887 0.80865,0.80864 3.13229,1.47026 5.16365,1.47026 2.03136,0 5.26171,0.831 7.17857,1.84666 1.91685,1.01566 5.6527,2.13617 8.30189,2.49001 2.64918,0.35384 5.78681,1.32285 6.9725,2.15334 1.1857,0.8305 3.74985,1.50999 5.69812,1.50999 1.94826,0 5.11063,0.831 7.02749,1.84666 1.91685,1.01566 5.6527,2.13617 8.30189,2.49001 2.64918,0.35384 5.78681,1.32285 6.9725,2.15334 1.1857,0.8305 3.74318,1.51296 5.68331,1.51658 1.94012,0.004 4.87749,0.90066 6.52749,1.99341 1.65,1.09275 4.58166,1.98979 6.51481,1.99341 1.93314,0.004 5.19401,0.90659 7.24637,2.00659 2.05237,1.1 5.20237,2 7,2 1.79764,0 4.94764,0.9 7,2 2.05237,1.1 5.14641,2 6.87566,2 1.72926,0 4.99339,0.87324 7.25363,1.94052 2.26024,1.06729 6.13453,2.21409 8.60953,2.54844 2.475,0.33435 5.49613,1.43249 6.71362,2.44031 2.07808,1.7202 2.15185,2.21602 1.20472,8.09718 -0.5549,3.44563 -1.66354,7.19938 -2.46363,8.34167 -0.80009,1.14229 -1.45639,3.66426 -1.45845,5.60439 -0.002,1.94012 -0.90205,5.00087 -2,6.80166 -1.09794,1.80079 -1.99626,4.73246 -1.99626,6.51481 0,1.78235 -0.9,4.91984 -2,6.9722 -1.1,2.05237 -2,5.20237 -2,7 0,1.79764 -0.831,4.83677 -1.84666,6.75363 -1.01566,1.91685 -2.14297,5.7023 -2.50512,8.41211 -0.36215,2.7098 -1.27055,5.6348 -2.01867,6.5 -0.74811,0.86519 -1.64131,3.74059 -1.98489,6.38978 -0.34357,2.64918 -1.30418,5.78681 -2.13467,6.9725 -0.8305,1.1857 -1.50999,3.74985 -1.50999,5.69812 0,1.94826 -0.831,5.11063 -1.84666,7.02749 -1.01566,1.91685 -2.13579,5.64996 -2.48918,8.2958 -0.35338,2.64583 -1.32238,5.49047 -2.15334,6.32142 -0.83095,0.83096 -1.51082,3.17285 -1.51082,5.20421 0,2.03136 -0.9,5.37258 -2,7.42494 -1.1,2.05237 -2,5.20237 -2,7 0,2.86068 -3.01668,10.20003 -4.85228,11.80524 -0.35625,0.31153 -2.93752,0.25704 -5.73617,-0.1211 z M 82.957792,160.17971 C 80.158567,158.94598 5,83.70558 5,82.137041 5,80.074775 81.473026,4.2101853 83.952599,3.8126073 85.375034,3.5845322 96.461445,13.965431 124.95112,42.202079 146.428,63.488223 164,81.462163 164,82.144168 c 0,1.236456 -77.813451,78.919032 -78.918277,78.785542 -0.319948,-0.0386 -1.275717,-0.37615 -2.123931,-0.75 z M 114.03543,116 C 129.46211,100.6 142.51505,88 143.04197,88 143.56888,88 144,87.472933 144,86.828741 c 0,-0.644193 0.71916,-1.965917 1.59812,-2.937166 1.35172,-1.493625 1.39026,-2.01726 0.25,-3.396095 C 139.98239,73.40247 85.655942,20 84.305936,20 82.64098,20 24.863929,76.685628 22.895884,80.25 c -0.623484,1.129206 -0.619196,2.398478 0.01209,3.578042 0.978885,1.829064 57.026488,57.876618 59.356811,59.356768 0.67937,0.43151 1.794776,0.79146 2.47868,0.79988 C 85.427367,143.99311 98.608752,131.4 114.03543,116 Z"
       style="fill:#e19c68" />
    <path
       id="path819"
       d="m 256.41155,342.94532 c -2.79865,-0.37813 -6.17365,-1.36667 -7.5,-2.19675 -1.32635,-0.83007 -4.57632,-1.78321 -7.22216,-2.11807 -2.64583,-0.33487 -5.49047,-1.28872 -6.32142,-2.11968 C 234.53701,335.67987 232.41119,335 230.64391,335 c -1.76727,0 -5.77389,-0.9 -8.90359,-2 -3.12969,-1.1 -7.07394,-2 -8.765,-2 -1.69105,0 -4.35506,-0.66213 -5.92001,-1.4714 -1.56495,-0.80926 -4.8051,-1.78332 -7.20034,-2.16457 -2.39523,-0.38125 -6.15497,-1.50924 -8.35497,-2.50664 -2.2,-0.99741 -5.36237,-1.82335 -7.02749,-1.83543 -1.66513,-0.0121 -3.99761,-0.70145 -5.18331,-1.53195 -1.18569,-0.83049 -4.32332,-1.79372 -6.9725,-2.14051 -2.64919,-0.34679 -5.95897,-1.20461 -7.35507,-1.90626 -1.3961,-0.70165 -4.7711,-1.72774 -7.5,-2.28022 -2.7289,-0.55247 -6.76163,-1.69541 -8.96163,-2.53986 -2.2,-0.84446 -5.13737,-1.55513 -6.52749,-1.57927 -1.39013,-0.0241 -3.49761,-0.72338 -4.68331,-1.55388 -1.18569,-0.83049 -4.32332,-1.79177 -6.9725,-2.13618 -2.64919,-0.3444 -5.9417,-1.20461 -7.3167,-1.91157 -1.375,-0.70696 -3.2875,-1.53156 -4.25,-1.83244 -2.13657,-0.66789 -2.22666,-2.78737 -0.2786,-6.55451 0.80926,-1.56495 1.77185,-4.8051 2.13907,-7.20034 0.36723,-2.39523 1.22537,-5.47997 1.90699,-6.85497 0.68162,-1.375 1.75683,-4.94431 2.38936,-7.9318 0.63252,-2.98748 1.54739,-5.91248 2.03304,-6.5 0.48565,-0.58751 1.33719,-3.3182 1.89231,-6.0682 0.55512,-2.75 1.70022,-6.8 2.54467,-9 0.84446,-2.2 1.55513,-4.96336 1.57927,-6.1408 0.0241,-1.17743 0.93401,-4.10243 2.02193,-6.5 1.08792,-2.39756 1.98792,-5.32256 2,-6.5 0.0121,-1.17743 0.91208,-4.10243 2,-6.5 1.08792,-2.39756 1.98792,-5.72157 2,-7.38669 0.0121,-1.66513 0.68252,-3.97058 1.48987,-5.12323 0.80735,-1.15266 1.77063,-4.06529 2.14061,-6.47251 0.36999,-2.40722 1.50943,-6.04634 2.53209,-8.08693 1.02266,-2.04059 1.85939,-4.52226 1.85939,-5.51481 0,-0.99256 0.9,-3.48385 2,-5.53621 1.1,-2.05237 2.00277,-4.9707 2.00616,-6.4852 0.003,-1.51449 0.74275,-4.10362 1.64303,-5.75362 0.90027,-1.65 1.97978,-5.33371 2.3989,-8.18603 0.87763,-5.97273 3.70571,-10.56079 5.95191,-9.65595 0.825,0.33233 3.90802,1.00861 6.85116,1.50285 2.94315,0.49423 6.01279,1.56022 6.82143,2.36887 0.80865,0.80864 3.13229,1.47026 5.16365,1.47026 2.03136,0 5.26171,0.831 7.17857,1.84666 1.91685,1.01566 5.6527,2.13617 8.30189,2.49001 2.64918,0.35384 5.78681,1.32285 6.9725,2.15334 1.1857,0.8305 3.74985,1.50999 5.69812,1.50999 1.94826,0 5.11063,0.831 7.02749,1.84666 1.91685,1.01566 5.6527,2.13617 8.30189,2.49001 2.64918,0.35384 5.78681,1.32285 6.9725,2.15334 1.1857,0.8305 3.74318,1.51296 5.68331,1.51658 1.94012,0.004 4.87749,0.90066 6.52749,1.99341 1.65,1.09275 4.58166,1.98979 6.51481,1.99341 1.93314,0.004 5.19401,0.90659 7.24637,2.00659 2.05237,1.1 5.20237,2 7,2 1.79764,0 4.94764,0.9 7,2 2.05237,1.1 5.14641,2 6.87566,2 1.72926,0 4.99339,0.87324 7.25363,1.94052 2.26024,1.06729 6.13453,2.21409 8.60953,2.54844 2.475,0.33435 5.49613,1.43249 6.71362,2.44031 2.07808,1.7202 2.15185,2.21602 1.20472,8.09718 -0.5549,3.44563 -1.66354,7.19938 -2.46363,8.34167 -0.80009,1.14229 -1.45639,3.66426 -1.45845,5.60439 -0.002,1.94012 -0.90205,5.00087 -2,6.80166 -1.09794,1.80079 -1.99626,4.73246 -1.99626,6.51481 0,1.78235 -0.9,4.91984 -2,6.9722 -1.1,2.05237 -2,5.20237 -2,7 0,1.79764 -0.831,4.83677 -1.84666,6.75363 -1.01566,1.91685 -2.14297,5.7023 -2.50512,8.41211 -0.36215,2.7098 -1.27055,5.6348 -2.01867,6.5 -0.74811,0.86519 -1.64131,3.74059 -1.98489,6.38978 -0.34357,2.64918 -1.30418,5.78681 -2.13467,6.9725 -0.8305,1.1857 -1.50999,3.74985 -1.50999,5.69812 0,1.94826 -0.831,5.11063 -1.84666,7.02749 -1.01566,1.91685 -2.13579,5.64996 -2.48918,8.2958 -0.35338,2.64583 -1.32238,5.49047 -2.15334,6.32142 -0.83095,0.83096 -1.51082,3.17285 -1.51082,5.20421 0,2.03136 -0.9,5.37258 -2,7.42494 -1.1,2.05237 -2,5.20237 -2,7 0,2.86068 -3.01668,10.20003 -4.85228,11.80524 -0.35625,0.31153 -2.93752,0.25704 -5.73617,-0.1211 z"
       style="fill:#e72a86" />
  </g>
</svg>
