<?xml version="1.0" encoding="UTF-8" standalone="no"?>
<svg
   xmlns:dc="http://purl.org/dc/elements/1.1/"
   xmlns:cc="http://creativecommons.org/ns#"
   xmlns:rdf="http://www.w3.org/1999/02/22-rdf-syntax-ns#"
   xmlns:svg="http://www.w3.org/2000/svg"
   xmlns="http://www.w3.org/2000/svg"
   viewBox="0 0 800.00189 184"
   height="184"
   width="800.00189"
   id="svg2"
   version="1.1">
  <metadata
     id="metadata8">
    <rdf:RDF>
      <cc:Work
         rdf:about="">
        <dc:format>image/svg+xml</dc:format>
        <dc:type
           rdf:resource="http://purl.org/dc/dcmitype/StillImage" />
        <dc:title></dc:title>
      </cc:Work>
    </rdf:RDF>
  </metadata>
  <defs
     id="defs6" />
  <g
     id="g18">
    <path
       id="path22"
       d="M 411.23087,161.75 411.5,139.5 l 9.3753,-0.27439 9.37529,-0.27438 3.37471,3.47482 3.3747,3.47482 v 10.0829 10.0829 l -3.41679,3.41679 c -3.06769,3.06769 -4.06386,3.44742 -9.75,3.71666 L 417.5,173.5 l -0.30226,5.25 c -0.2928,5.08572 -0.3951,5.25 -3.26913,5.25 h -2.96687 z M 428,164.5 c 0.52277,-1.375 1.46736,-2.5 2.09908,-2.5 1.78593,0 0.59334,-10.45043 -1.42264,-12.46642 C 427.7544,148.61154 427,147.21429 427,146.42857 c 0,-2.32254 -6.07265,-1.86678 -6.69216,0.50226 -0.27771,1.06195 -1.13558,2.17283 -1.90638,2.46861 -2.3897,0.91701 -1.84349,11.08367 0.7866,14.64105 2.87323,3.88626 7.41897,4.1233 8.81194,0.45951 z M 7.1970026,169.91349 C 3.0485475,166.86268 2.1214902,164.45293 3.6069888,160.58179 4.9612709,157.05258 11.41132,160.16192 13.2908,165.25 13.776213,166.5641 15.065936,167 18.468615,167 20.960877,167 23,166.58214 23,166.07143 c 0,-0.51072 0.700796,-1.62937 1.557324,-2.4859 1.409765,-1.40976 1.386078,-1.79256 -0.25,-4.04 -1.104758,-1.51758 -2.81609,-2.4949 -4.402336,-2.51411 C 18.477731,157.01414 16.495486,156.1 15.5,155 c -0.995486,-1.1 -2.655231,-2 -3.688321,-2 -1.03309,0 -3.4383457,-1.56 -5.3450123,-3.46667 C 1.5427227,144.60939 1.5873363,139.61266 6.6,134.6 c 3.511439,-3.51144 3.789875,-3.6 11.318347,-3.6 7.335553,0 7.904666,0.16576 11.475125,3.34224 3.173022,2.82289 3.706257,3.87176 3.431653,6.75 -0.25931,2.71792 -0.809416,3.47622 -2.717494,3.74597 C 27.57613,145.19608 23,140.97992 23,138.28967 c 0,-1.04539 -1.201231,-1.32217 -4.75,-1.09446 L 13.5,137.5 13.195209,142.25 12.890418,147 h 4.064578 c 2.827094,0 4.585945,0.60891 5.777032,2 0.94185,1.1 2.491991,2 3.444758,2 0.952768,0 2.877759,1.14545 4.277759,2.54545 C 32.5168,155.60771 33,157.0597 33,161.19444 c 0,4.50451 -0.404986,5.49684 -3.450434,8.45454 C 26.270424,172.83364 25.734123,173 18.746568,173 c -6.642118,0 -7.7581,-0.29824 -11.5495654,-3.08651 z M 38.884477,168.75044 C 35.009738,164.51154 35,164.47958 35,156 c 0,-8.47958 0.0097,-8.51154 3.884477,-12.75044 C 42.653923,139.12584 42.95233,139 48.9614,139 c 5.510949,0 6.514139,0.32169 9.115523,2.92308 C 59.684615,143.53077 61,145.44752 61,146.18253 c 0,0.73501 0.9,1.89844 2,2.5854 1.637975,1.02293 2,2.33202 2,7.23207 0,4.90005 -0.362025,6.20914 -2,7.23207 -1.1,0.68696 -2,1.85039 -2,2.5854 0,0.73501 -1.315385,2.65176 -2.923077,4.25945 C 55.475539,172.67831 54.472349,173 48.9614,173 c -6.00907,0 -6.307477,-0.12584 -10.076923,-4.24956 z M 52.591776,164.75 c 2.024005,-1.91855 2.373671,-3.20752 2.373671,-8.75 0,-5.60147 -0.339142,-6.82163 -2.453367,-8.82671 -3.285686,-3.11605 -6.001824,-2.13279 -8.522969,3.08538 -2.22116,4.59727 -2.465205,6.94141 -0.989543,9.5049 0.549763,0.95504 1.438625,2.97393 1.975249,4.48643 1.214975,3.42446 4.316942,3.62808 7.616959,0.5 z m 19.117073,7.62552 C 71.318982,171.98565 71,165.9075 71,158.86852 71,147.09382 70.840062,145.98477 69,145 c -1.1,-0.5887 -2,-1.9387 -2,-3 0,-1.0613 0.9,-2.4113 2,-3 1.153386,-0.61727 2,-2.09382 2,-3.48813 0,-1.32977 0.522232,-3.56394 1.160515,-4.96482 1.050742,-2.30613 1.712869,-2.54705 7,-2.54705 C 84.265462,128 85,128.2431 85,129.93261 c 0,1.12496 -0.938694,2.23054 -2.246162,2.64552 -2.481736,0.78767 -4.67289,3.21181 -4.722035,5.22413 -0.02302,0.94256 1.383396,1.21877 5.091732,1 4.879604,-0.28787 5.177165,-0.46889 6.25,-3.80226 0.956496,-2.9719 1.579125,-3.5 4.126465,-3.5 2.663264,0 3.035594,0.37044 3.317107,3.30027 0.232192,2.4165 0.968597,3.54796 2.75,4.22524 3.262513,1.24041 3.223393,4.72344 -0.06711,5.97449 -2.44644,0.93013 -2.5,1.17428 -2.5,11.39579 v 10.4453 l 3.067573,0.67375 c 3.4318,0.75375 4.9588,3.22165 2.82815,4.57077 -2.09463,1.32631 -9.510854,1.09227 -10.634517,-0.33561 -1.3761,-1.74866 -2.453833,-7.8048 -3.158737,-17.75 L 88.5,145.5 H 83 77.5 L 77,159 c -0.468033,12.63688 -0.6305,13.51868 -2.541151,13.79218 -1.122633,0.1607 -2.360133,-0.0268 -2.75,-0.41666 z m 41.407171,-1.95515 C 111.61447,168.51145 111,166.30575 111,162.82465 c 0,-3.20369 -0.65955,-5.84566 -1.90106,-7.61514 -2.46321,-3.51073 -3.50501,-13.62761 -1.56879,-15.23453 2.34368,-1.94508 4.79002,-0.67834 5.73536,2.96983 0.49051,1.89297 1.53144,4.35491 2.31317,5.47098 0.78172,1.11607 1.42132,3.27909 1.42132,4.80672 0,1.52762 0.45,2.77749 1,2.77749 0.55,0 1,-1.73931 1,-3.86514 0,-2.26825 0.77647,-4.85226 1.87937,-6.25438 1.03366,-1.31408 2.05076,-3.28726 2.26022,-4.38486 0.21459,-1.12446 1.32519,-2.13074 2.54413,-2.30515 3.51393,-0.50278 7.31628,6.01525 7.31628,12.54166 0,5.61155 1.53022,7.08479 2.61526,2.51787 0.35935,-1.5125 1.23659,-3.42581 1.94942,-4.25181 0.71284,-0.82599 1.4399,-3.52599 1.61569,-6 0.28385,-3.99466 0.60906,-4.53183 2.90523,-4.79875 3.16038,-0.36737 5.83089,2.28407 4.07202,4.04294 -0.63669,0.63669 -1.15762,3.54702 -1.15762,6.46741 0,4.0723 -0.46611,5.70888 -2,7.02224 -1.56628,1.34109 -2,2.94994 -2,7.41878 C 141,170.41231 139.42928,173 135.62857,173 132.59969,173 131,171.17092 131,167.70773 c 0,-1.59075 -0.9,-4.03644 -2,-5.43486 -1.10007,-1.39851 -2,-4.05678 -2,-5.90773 C 127,154.51431 126.55,153 126,153 c -0.55,0 -1,1.92487 -1,4.27749 0,2.35263 -0.6396,5.19065 -1.42132,6.30672 -0.78173,1.11607 -1.82024,3.5787 -2.30779,5.47251 -1.18915,4.61897 -5.08216,5.26996 -8.15487,1.36365 z M 154.25,169.50858 c -2.68613,-2.85516 -3.25,-4.24538 -3.25,-8.01293 0,-3.42931 0.43347,-4.71796 1.75,-5.20252 0.9625,-0.35426 2.74101,-1.69014 3.95225,-2.96862 1.58794,-1.67609 3.31491,-2.32451 6.19098,-2.32451 4.40035,0 5.55673,-1.00694 4.60393,-4.00895 -0.77164,-2.43121 -6.24645,-2.80797 -7.13553,-0.49105 -0.77138,2.01017 -8.36163,2.10351 -8.36163,0.10283 0,-0.76845 1.22521,-2.79345 2.72268,-4.5 2.51496,-2.8661 3.21299,-3.10283 9.14899,-3.10283 6.01263,0 6.642,0.22211 9.77731,3.45043 L 177,145.90087 v 11.96778 c 0,6.58227 -0.27314,12.67958 -0.60699,13.54956 -0.49301,1.28477 -2.32379,1.57833 -9.75,1.56334 -9.12297,-0.0184 -9.15013,-0.026 -12.39301,-3.47297 z m 13.41715,-6.94255 c 1.53868,-4.46547 0.80013,-5.52427 -3.87184,-5.55072 -2.30253,-0.013 -2.8021,0.50398 -3.35988,3.47716 -0.91853,4.89619 0.002,6.70712 3.21469,6.3245 2.08758,-0.24862 2.9538,-1.16528 4.01703,-4.25094 z M 184.2,171.8 c -0.82374,-0.82374 -1.2,-5.77778 -1.2,-15.8 0,-10.02222 0.37626,-14.97626 1.2,-15.8 1.80775,-1.80775 14.24674,-1.57156 15.8,0.3 1.54931,1.8668 -0.25722,4.5 -3.08726,4.5 -3.0487,0 -4.246,3.93149 -4.7204,15.5 -0.26786,6.53193 -0.90627,11.29842 -1.57171,11.73469 -1.72159,1.12867 -5.08497,0.90097 -6.42063,-0.43469 z m 22.21183,-2.17775 c -6.23669,-6.54391 -6.24381,-20.8551 -0.0136,-27.3616 2.83591,-2.96168 3.62896,-3.24027 9.25179,-3.25 5.73402,-0.01 6.3935,0.23285 9.75,3.58935 3.0112,3.0112 3.6,4.29962 3.6,7.87756 0,2.35265 -0.58493,4.763 -1.29984,5.35632 -0.71491,0.59332 -5.09743,1.21092 -9.73894,1.37244 -7.26926,0.25297 -8.48788,0.54889 -8.79101,2.13471 -0.19356,1.01256 0.58897,2.71759 1.73894,3.78895 1.14997,1.07136 2.09085,2.3804 2.09085,2.90898 0,0.52857 1.575,0.96104 3.5,0.96104 2.32497,0 3.5,-0.46767 3.5,-1.39301 0,-2.70039 5.95947,-3.56567 7.95959,-1.15569 0.98023,1.18111 0.54379,2.11199 -2.34423,5 -3.33446,3.33447 -3.92801,3.54455 -9.83203,3.47997 -5.74136,-0.0628 -6.5497,-0.34822 -9.3715,-3.30902 z m 12.77834,-19.14575 c 0.28792,-0.28793 0.31047,-1.63793 0.0501,-3 C 218.86686,145.52321 218.15767,145 215.88342,145 213.08761,145 209,147.96917 209,150 c 0,1.01178 9.22359,1.44308 10.19017,0.4765 z M 248.2,171.8 c -1.69158,-1.69158 -1.69158,-37.90842 0,-39.6 0.75889,-0.75889 4.52671,-1.19481 10.25,-1.18588 l 9.05,0.0141 4.28526,3.86543 c 4.35209,3.9257 6.21474,8.03998 6.21474,13.72729 0,2.90322 2.37833,6.33406 3.56693,5.14545 0.28523,-0.28523 0.79105,-2.26185 1.12405,-4.3925 0.37289,-2.38592 1.79685,-5.11815 3.70723,-7.11325 2.84242,-2.96848 3.62116,-3.24024 9.31283,-3.25 5.12244,-0.009 6.5708,0.37549 8.26358,2.19248 l 2.05252,2.20313 1.54314,-2.20313 c 1.70194,-2.42987 6.24876,-2.98409 8.22972,-1.00313 0.66,0.66 1.2,2.35416 1.2,3.76481 0,1.41064 0.9,4.24401 2,6.29637 1.1,2.05237 2,4.8582 2,6.2352 0,1.37699 0.45,2.50362 1,2.50362 0.55,0 1,-1.99286 1,-4.42857 0,-2.80788 0.61266,-5.04124 1.67411,-6.10268 0.92076,-0.92076 1.93859,-3.3154 2.26184,-5.32143 0.48121,-2.98627 1.0542,-3.70179 3.16149,-3.94788 3.14908,-0.36774 5.81563,2.28749 4.06018,4.04294 -0.63669,0.63669 -1.15762,2.80693 -1.15762,4.82276 0,2.15095 -0.82627,4.71557 -2,6.20773 -1.12409,1.42905 -2,4.05678 -2,6 0,1.90158 -0.8381,4.5306 -1.86244,5.84227 -1.02434,1.31167 -2.17967,3.39736 -2.56739,4.63486 -1.72176,5.49539 -8.43973,-0.0353 -9.696,-7.98249 -0.41681,-2.63672 -1.45901,-5.49521 -2.316,-6.3522 -0.857,-0.85699 -1.56506,-2.98852 -1.57348,-4.73674 C 310.97627,149.93036 310.53316,147.825 310,147 c -0.70309,-1.08795 -0.97358,-0.22882 -0.98469,3.12756 -0.008,2.55894 -0.59636,5.10978 -1.31515,5.70632 -0.71491,0.59332 -5.09743,1.21092 -9.73894,1.37244 -7.26926,0.25297 -8.48788,0.54889 -8.79101,2.13471 -0.19356,1.01256 0.58897,2.71759 1.73894,3.78895 1.14997,1.07136 2.09085,2.3804 2.09085,2.90898 0,0.52857 1.575,0.96104 3.5,0.96104 2.32497,0 3.5,-0.46767 3.5,-1.39301 0,-2.70039 5.95947,-3.56567 7.95959,-1.15569 0.98023,1.18111 0.54379,2.11199 -2.34423,5 C 302.33037,172.7363 301.61586,173 296,173 c -5.58889,0 -6.33968,-0.27302 -9.53333,-3.46667 C 284.56,167.62667 283,165.13721 283,164.00121 283,161.23985 280.34119,155 279.16457,155 c -0.51562,0 -1.24946,2.08042 -1.63077,4.62315 -0.56424,3.76263 -1.5557,5.43781 -5.32669,9 L 267.57371,173 h -9.08686 c -5.73422,0 -9.5296,-0.44275 -10.28685,-1.2 z m 18.63723,-8.75994 c 4.1145,-3.91403 4.16277,-4.04158 4.16277,-11 0,-6.89711 -0.0824,-7.12248 -4.05896,-11.09902 -3.31671,-3.31671 -4.6425,-4.00246 -7.25,-3.75 L 256.5,137.5 l -0.28041,13.44955 c -0.15423,7.39725 -0.0559,14.03475 0.21861,14.75 1.03929,2.70833 6.12299,1.4082 10.39903,-2.65949 z m 32.35294,-12.56356 c 0.28792,-0.28793 0.31047,-1.63793 0.0501,-3 C 298.86686,145.52321 298.15767,145 295.88342,145 293.08761,145 289,147.96917 289,150 c 0,1.01178 9.22359,1.44308 10.19017,0.4765 z m 43.22166,19.14575 c -6.23669,-6.54391 -6.24381,-20.8551 -0.0136,-27.3616 2.83591,-2.96168 3.62896,-3.24027 9.25179,-3.25 5.73402,-0.01 6.3935,0.23285 9.75,3.58935 3.0112,3.0112 3.6,4.29962 3.6,7.87756 0,2.35265 -0.58493,4.763 -1.29984,5.35632 -0.71491,0.59332 -5.09743,1.21092 -9.73894,1.37244 -7.26926,0.25297 -8.48788,0.54889 -8.79101,2.13471 -0.19356,1.01256 0.58897,2.71759 1.73894,3.78895 1.14997,1.07136 2.09085,2.3804 2.09085,2.90898 0,0.52857 1.575,0.96104 3.5,0.96104 2.32497,0 3.5,-0.46767 3.5,-1.39301 0,-2.70039 5.95947,-3.56567 7.95959,-1.15569 0.98023,1.18111 0.54379,2.11199 -2.34423,5 -3.33446,3.33447 -3.92801,3.54455 -9.83203,3.47997 -5.74136,-0.0628 -6.5497,-0.34822 -9.3715,-3.30902 z m 12.77834,-19.14575 c 0.28792,-0.28793 0.31047,-1.63793 0.0501,-3 C 354.86686,145.52321 354.15767,145 351.88342,145 349.08761,145 345,147.96917 345,150 c 0,1.01178 9.22359,1.44308 10.19017,0.4765 z m 12.4765,21.85683 C 367.3,171.96667 367,161.84167 367,149.83333 V 128 h 4.09088 4.09087 l -0.30934,11.98153 c -0.21594,8.36372 0.0535,12.34442 0.89246,13.18334 1.64622,1.64622 2.30731,0.71589 2.96251,-4.16901 0.40878,-3.04768 1.17043,-4.44781 2.83117,-5.20449 1.24957,-0.56934 2.49295,-1.88031 2.76308,-2.91327 0.42052,-1.60807 1.47509,-1.87657 7.33475,-1.86745 6.40513,0.01 7.04236,0.2182 9.94541,3.25 4.25217,4.44075 5.50638,11.11866 3.8645,20.57608 -0.53936,3.10678 -1.39725,4.63032 -3.02484,5.3719 -1.24957,0.56934 -2.49295,1.88031 -2.76308,2.91327 -0.41818,1.59912 -1.47551,1.8781 -7.11808,1.8781 -6.16546,0 -6.85705,-0.23009 -9.93098,-3.30402 -2.10373,-2.10374 -3.52921,-4.69171 -3.9239,-7.1239 -0.75674,-4.66322 -1.23223,-5.20967 -3.149,-3.6189 -1.08859,0.90345 -1.33427,2.38836 -0.90878,5.49265 0.71232,5.19698 -0.86386,8.55417 -4.01615,8.55417 -1.26398,0 -2.59815,-0.3 -2.96481,-0.66667 z m 28.96866,-7.88485 C 398.56577,162.3655 399,160.81408 399,156 c 0,-4.81408 -0.43423,-6.3655 -2.36467,-8.44848 C 395.33476,146.14818 393.24886,145 392,145 c -1.24886,0 -3.33476,1.14818 -4.63533,2.55152 -3.34224,3.60634 -3.4068,13.08968 -0.11467,16.84546 2.87202,3.2765 6.37867,3.29574 9.38533,0.0515 z m 49.37554,4.77098 -3.48913,-3.64307 v -9.68726 -9.68727 l 3.48913,-3.59028 c 3.25502,-3.34939 3.90177,-3.591 9.63913,-3.60093 5.73402,-0.01 6.3935,0.23285 9.75,3.58935 3.0112,3.0112 3.6,4.29962 3.6,7.87756 0,2.35265 -0.58493,4.763 -1.29984,5.35632 -0.71491,0.59332 -5.09743,1.21092 -9.73894,1.37244 -7.26926,0.25297 -8.48788,0.54889 -8.79101,2.13471 -0.19356,1.01256 0.58897,2.71759 1.73894,3.78895 1.14997,1.07136 2.09085,2.3804 2.09085,2.90898 0,0.52857 1.575,0.96104 3.5,0.96104 2.32497,0 3.5,-0.46767 3.5,-1.39301 0,-2.70039 5.95947,-3.56567 7.95959,-1.15569 0.98023,1.18111 0.54379,2.11199 -2.34423,5 -3.33446,3.33447 -3.92801,3.54455 -9.83203,3.47997 -5.88409,-0.0644 -6.50503,-0.30021 -9.77246,-3.71181 z m 13.1793,-18.74296 c 0.28792,-0.28793 0.31047,-1.63793 0.0501,-3 C 458.86686,145.52321 458.15767,145 455.88342,145 453.08761,145 449,147.96917 449,150 c 0,1.01178 9.22359,1.44308 10.19017,0.4765 z m 12.27819,21.30165 c -0.28748,-0.74917 -0.39797,-8.31823 -0.24553,-16.82014 L 471.5,139.5 l 5.95833,-0.30612 C 485.1116,138.80068 488,139.54052 488,141.89405 c 0,1.22592 -0.93612,2.04317 -2.75762,2.40747 -1.52343,0.30469 -3.87309,2.03897 -5.25,3.875 C 477.80927,151.0876 477.43796,152.80291 477,162 c -0.47422,9.95854 -0.61626,10.51651 -2.75447,10.82014 -1.23996,0.17607 -2.48968,-0.29282 -2.77717,-1.04199 z M 168.49266,73.001069 c -5.92403,-0.592799 -11.80529,-4.590509 -13.37413,-9.090902 -0.5694,-1.633368 -1.729,-3.663494 -2.5769,-4.511392 C 151.36093,58.218071 151,55.545046 151,47.981486 c 0,-8.641673 0.31575,-10.469507 2.527,-14.628282 3.00531,-5.652226 8.0598,-10.256122 11.32187,-10.312563 1.29188,-0.02235 3.87938,-0.766915 5.75,-1.654582 3.15087,-1.495186 3.66643,-1.488049 7.00667,0.097 3.89336,1.84752 11.15497,2.259211 18.49803,1.048731 2.98419,-0.491933 5.36484,-0.351469 6.76768,0.399308 2.13909,1.144806 2.16101,1.437955 1.89643,25.363548 L 204.5,72.5 l -6.20942,0.296664 c -4.0679,0.19435 -7.20351,-0.2174 -9.09183,-1.193886 -2.40287,-1.242571 -3.11668,-1.269051 -4.29058,-0.159167 -1.64045,1.550998 -9.25778,2.273709 -16.41551,1.557458 z m 15.53783,-15.017386 c 2.79678,-1.49679 4.34588,-7.81575 3.52558,-14.381223 -0.76825,-6.148874 -1.93329,-7.0026 -9.55607,-7.0026 -7.21667,0 -8.81569,0.988242 -9.55284,5.903957 -0.85248,5.684721 0.21603,13.016518 2.18375,14.984236 1.7485,1.748505 10.45671,2.070608 13.39958,0.49563 z m 80.46217,15.017386 c -5.92403,-0.592799 -11.80529,-4.590509 -13.37413,-9.090902 -0.5694,-1.633368 -1.729,-3.663494 -2.5769,-4.511392 C 247.33074,58.187883 247,55.379004 247,46.306127 c 0,-9.103028 -0.26491,-11.340857 -1.25,-10.559364 -0.6875,0.545408 -3.30215,1.210611 -5.81033,1.478228 -3.26947,0.348846 -5.39244,1.305819 -7.5,3.380793 C 229.51165,43.488528 229.49802,43.557474 229,58 l -0.5,14.5 -6.22766,0.297138 C 211.49152,73.311518 212,74.543245 212,47.91379 V 24.897947 l 3.46788,-1.448974 C 221.51278,20.923255 229,22.077541 229,25.535184 c 0,2.06851 1.29871,1.817401 2.76793,-0.535184 0.72006,-1.152997 2.33202,-2 3.80629,-2 1.40649,0 3.4825,-0.495174 4.61336,-1.100388 2.89638,-1.550096 5.99785,1.774285 6.73915,7.223497 0.65244,4.796103 2.69457,6.233916 3.61957,2.54845 C 251.31189,28.621199 258.11441,23 261.04023,23 c 1.18663,0 3.68802,-0.726274 5.55864,-1.613941 3.07208,-1.457795 3.71556,-1.466093 6.65113,-0.08577 1.7875,0.840494 4.825,1.679267 6.75,1.863942 l 3.5,0.335771 0.29522,-7.319921 c 0.29401,-7.2897728 0.30932,-7.3258113 3.71788,-8.7500001 4.21995,-1.7632088 9.53912,-1.8443074 11.81118,-0.1800789 1.55702,1.1404794 1.68329,4.053727 1.44113,33.25 l -0.26541,32 -6.20942,0.296664 c -4.0679,0.19435 -7.20351,-0.2174 -9.09183,-1.193886 -2.40287,-1.242571 -3.11668,-1.269051 -4.29058,-0.159167 -1.64045,1.550998 -9.25778,2.273709 -16.41551,1.557458 z m 15.53783,-15.017386 c 2.79678,-1.49679 4.34588,-7.81575 3.52558,-14.381223 -0.76825,-6.148874 -1.93329,-7.0026 -9.55607,-7.0026 -7.21667,0 -8.81569,0.988242 -9.55284,5.903957 -0.85248,5.684721 0.21603,13.016518 2.18375,14.984236 1.7485,1.748505 10.45671,2.070608 13.39958,0.49563 z m 91.14746,15.013262 c -4.61521,-0.36724 -6.586,-0.974698 -7.29969,-2.25 -0.5377,-0.96082 -1.51778,-1.761166 -2.17795,-1.778546 C 360.14955,68.927571 355,64.404441 355,63.08315 355,62.526119 354.1,61.588702 353,61 351.9,60.411298 350.99703,59.157965 350.99341,58.214816 350.98979,57.271667 350.09275,55.15 349,53.5 c -2.92126,-4.410951 -2.92126,-21.059094 0,-24.772871 1.1,-1.398423 2,-3.43281 2,-4.52086 C 351,21.221648 361.01394,11 363.93791,11 c 1.32254,0 3.27447,-0.7875 4.33762,-1.75 1.43266,-1.2970151 4.09797,-1.8409346 10.2968,-2.1013042 7.13712,-0.2997809 8.86243,-0.043121 11.76376,1.75 C 392.20608,10.054413 394.35815,11 395.11848,11 c 1.55313,0 8.17837,6.157345 11.69294,10.867158 1.66968,2.237507 2.22496,4.14354 2,6.865165 L 408.5,32.5 l -6.22766,0.297138 c -7.11597,0.33952 -9.98386,-0.799563 -10.86642,-4.315972 -0.45239,-1.802471 -1.64853,-2.738678 -4.46959,-3.49831 -2.11854,-0.570463 -4.12244,-1.474977 -4.45312,-2.010031 -0.90849,-1.469967 -5.84576,-1.165844 -8.04208,0.495372 -1.06762,0.807508 -2.61613,1.507406 -3.44113,1.555329 -0.825,0.04792 -2.57418,1.445381 -3.88706,3.105463 -2.12551,2.687603 -2.39192,4.054195 -2.43138,12.472005 l -0.0443,9.453675 4.38959,4.472666 c 4.23919,4.319427 4.59658,4.472627 10.43138,4.471542 5.38796,-10e-4 6.36644,-0.327226 9.04179,-3.014531 1.65,-1.657374 4.1204,-4.131868 5.48978,-5.498876 C 395.98506,48.493649 397.48459,48 401.53978,48 407.39469,48 409,49.184735 409,53.50572 c 0,4.652995 -6.7376,12.94148 -14,17.222573 -3.85162,2.270483 -12.93173,3.135211 -23.82205,2.268652 z m 61.31471,0.0041 c -5.92403,-0.592799 -11.80529,-4.590509 -13.37413,-9.090902 -0.5694,-1.633368 -1.729,-3.663494 -2.5769,-4.511392 C 415.36093,58.218071 415,55.545046 415,47.981486 c 0,-8.641673 0.31575,-10.469507 2.527,-14.628282 3.00531,-5.652226 8.0598,-10.256122 11.32187,-10.312563 1.29188,-0.02235 3.87938,-0.766915 5.75,-1.654582 3.15087,-1.495186 3.66643,-1.488049 7.00667,0.097 3.89336,1.84752 11.15497,2.259211 18.49803,1.048731 2.98419,-0.491933 5.36484,-0.351469 6.76768,0.399308 2.13909,1.144806 2.16101,1.437955 1.89643,25.363548 L 468.5,72.5 l -6.20942,0.296664 c -4.0679,0.19435 -7.20351,-0.2174 -9.09183,-1.193886 -2.40287,-1.242571 -3.11668,-1.269051 -4.29058,-0.159167 -1.64045,1.550998 -9.25778,2.273709 -16.41551,1.557458 z m 15.53783,-15.017386 c 2.79678,-1.49679 4.34588,-7.81575 3.52558,-14.381223 -0.76825,-6.148874 -1.93329,-7.0026 -9.55607,-7.0026 -7.21667,0 -8.81569,0.988242 -9.55284,5.903957 -0.85248,5.684721 0.21603,13.016518 2.18375,14.984236 1.7485,1.748505 10.45671,2.070608 13.39958,0.49563 z M 492,73.128485 C 485.29875,72.362734 480.52329,69.009599 477.06323,62.640504 473.74591,56.534161 475.00516,55 483.33459,55 c 5.79035,0 6.29651,0.202958 10.29658,4.128733 3.45693,3.392722 4.66697,4.013255 6.78785,3.480948 C 502.26048,62.147504 503,61.300981 503,59.655262 503,56.009907 499.03751,53 494.23846,53 485.3498,53 475,44.416275 475,37.044367 c 0,-5.666558 6.51791,-14.039905 10.93709,-14.050528 1.4096,-0.0034 3.85185,-0.678388 5.42722,-1.5 3.60826,-1.881841 5.66312,-1.881841 9.27138,0 1.57537,0.821612 3.85786,1.496612 5.0722,1.5 3.18425,0.0089 10.31552,7.176081 11.24627,11.302926 C 518.1418,39.562596 516.78531,41 510.62827,41 c -4.93532,0 -5.4894,-0.258708 -8.66782,-4.047136 -2.79264,-3.328614 -3.93385,-3.994383 -6.42796,-3.75 -2.39733,0.234901 -3.09031,0.820763 -3.30854,2.797136 -0.22079,1.999543 0.51951,2.950412 3.69812,4.75 2.2858,1.294119 5.67048,2.25 7.96703,2.25 2.19608,0 4.29936,0.495915 4.67396,1.102034 0.3746,0.606118 2.17861,1.727733 4.0089,2.492478 2.42491,1.013194 3.88403,2.647896 5.37792,6.025084 C 519.07745,55.168648 520,57.954957 520,58.811394 520,61.10265 515.98574,69 514.82109,69 c -0.55028,0 -1.74764,0.860451 -2.6608,1.912113 C 510.2339,73.130692 500.95062,74.151271 492,73.128485 Z m 168,0 C 653.29875,72.362734 648.52329,69.009599 645.06323,62.640504 641.74591,56.534161 643.00516,55 651.33459,55 c 5.79035,0 6.29651,0.202958 10.29658,4.128733 3.45693,3.392722 4.66697,4.013255 6.78785,3.480948 C 670.26048,62.147504 671,61.300981 671,59.655262 671,56.009907 667.03751,53 662.23846,53 653.3498,53 643,44.416275 643,37.044367 c 0,-5.666558 6.51791,-14.039905 10.93709,-14.050528 1.4096,-0.0034 3.85185,-0.678388 5.42722,-1.5 3.60826,-1.881841 5.66312,-1.881841 9.27138,0 1.57537,0.821612 3.85786,1.496612 5.0722,1.5 3.18425,0.0089 10.31552,7.176081 11.24627,11.302926 C 686.1418,39.562596 684.78531,41 678.62827,41 c -4.93532,0 -5.4894,-0.258708 -8.66782,-4.047136 -2.79264,-3.328614 -3.93385,-3.994383 -6.42796,-3.75 -2.39733,0.234901 -3.09031,0.820763 -3.30854,2.797136 -0.22079,1.999543 0.51951,2.950412 3.69812,4.75 2.2858,1.294119 5.67048,2.25 7.96703,2.25 2.19608,0 4.29936,0.495915 4.67396,1.102034 0.3746,0.606118 2.17861,1.727733 4.0089,2.492478 2.42491,1.013194 3.88403,2.647896 5.37792,6.025084 C 687.07745,55.168648 688,57.954957 688,58.811394 688,61.10265 683.98574,69 682.82109,69 c -0.55028,0 -1.74764,0.860451 -2.6608,1.912113 C 678.2339,73.130692 668.95062,74.151271 660,73.128485 Z m 51.54214,0.06541 c -5.42147,-0.278547 -6.43431,-0.713151 -11.25,-4.827323 C 697.38146,65.879902 695,63.388627 695,62.830406 c 0,-0.558221 -0.9,-2.159112 -2,-3.557535 -1.67415,-2.128332 -2,-4.056784 -2,-11.836301 0,-7.039292 0.37396,-9.667674 1.54163,-10.835345 0.8479,-0.847898 2.02169,-2.918714 2.60842,-4.601814 0.58673,-1.683099 2.28827,-3.691836 3.7812,-4.463859 1.49293,-0.772023 3.29924,-2.10835 4.01403,-2.969615 C 703.66006,23.704671 705.67878,23 707.43132,23 c 1.75253,0 4.05993,-0.660688 5.12755,-1.468197 2.21114,-1.672421 7.02559,-2.013181 7.92321,-0.560794 0.33007,0.534055 2.76384,1.258038 5.40839,1.60885 3.87777,0.514404 5.77952,1.536002 9.82706,5.27899 2.76032,2.552633 5.36372,5.766151 5.78532,7.141151 0.4216,1.375 1.38093,3.387628 2.13185,4.472506 2.09663,3.029094 1.73587,12.843347 -0.6347,17.266309 -1.1,2.052362 -2,4.296918 -2,4.987902 0,0.690984 -0.9,1.818395 -2,2.505356 -1.1,0.686961 -2,1.829898 -2,2.539859 0,0.70996 -0.7875,1.583826 -1.75,1.941922 -0.9625,0.358096 -2.875,1.430144 -4.25,2.382328 -2.66542,1.845795 -9.66782,2.60071 -19.45786,2.097713 z M 724.68555,56.825686 C 726.6923,54.940442 727,53.686936 727,47.397115 c 0,-5.004766 -0.44978,-7.704033 -1.45046,-8.704713 -1.87269,-1.872695 -9.19947,-2.928906 -13.04954,-1.881191 -2.56374,0.697669 -3.12908,1.474506 -3.88761,5.34208 -1.07484,5.480297 -0.05,13.266273 2.01852,15.334762 2.42204,2.422042 11.21241,2.00777 14.05464,-0.662367 z M 1.75,72.330998 C 0.13280957,71.889601 0,69.575373 0,41.836968 0,11.931689 0.00832824,11.813637 2.25,9.9435619 4.8939986,7.7378521 15.538937,7.2910267 18.015395,9.2818034 20.191343,11.031006 25,20.777932 25,23.439277 25,24.679364 25.9,26.731689 27,28 c 1.1,1.268311 2,3.214232 2,4.324269 0,1.110037 0.759399,2.857376 1.687553,3.882974 0.928154,1.025599 1.940654,3.707693 2.25,5.96021 0.368223,2.681231 1.318505,4.5963 2.751887,5.545778 2.095697,1.388196 2.235156,1.280515 3.257177,-2.514981 0.587255,-2.1809 1.739507,-4.522793 2.56056,-5.204206 C 42.32823,39.31263 43,37.68358 43,36.373931 c 0,-1.309649 0.9,-4.060385 2,-6.112746 1.1,-2.052362 2,-4.465044 2,-5.361517 0,-0.896473 0.9,-2.774115 2,-4.172539 1.1,-1.398423 2,-3.903467 2,-5.566764 C 51,10.564683 55.237884,8 62.83179,8 68.147516,8 69.098235,8.3094276 70.92742,10.634859 72.914712,13.161292 73,14.449303 73,41.934859 73,62.896635 72.677516,70.922484 71.8,71.8 71.109091,72.490909 67.8,73 64,73 60.2,73 56.890909,72.490909 56.2,71.8 55.386436,70.986436 55,66.297996 55,57.240983 55,48.589616 54.647605,44.099758 54,44.5 c -0.55,0.339919 -1,1.493107 -1,2.562641 0,1.069534 -0.9,3.623813 -2,5.676174 -1.1,2.052362 -2,4.690044 -2,5.861517 0,1.171473 -0.9,3.274115 -2,4.672539 -1.1,1.398423 -2,3.619109 -2,4.934858 C 45,71.958293 43.121187,73 36.356704,73 c -5.318027,0 -6.474003,-0.32938 -7.8,-2.222506 -0.856187,-1.222379 -1.559669,-3.134879 -1.563293,-4.25 C 26.989787,65.412372 26.092752,63.15 25,61.5 23.907248,59.85 23.007248,57.375 23,56 22.992752,54.625 22.092752,52.15 21,50.5 19.907248,48.85 19.010213,46.0375 19.006589,44.25 19.002965,42.4625 18.561427,41 18.025393,41 c -0.579899,0 -1.086139,6.378618 -1.25,15.75 L 16.5,72.5 10,72.654322 C 6.425,72.7392 2.7125,72.593704 1.75,72.330998 Z m 80,-0.388408 C 80.164255,70.998419 80,68.74171 80,47.899283 V 24.897947 l 3.467881,-1.448974 c 4.260876,-1.780307 9.574958,-1.869351 11.859678,-0.198724 1.544349,1.129256 1.683815,3.572836 1.441129,25.25 L 96.5,72.5 90,72.74228 c -3.575,0.133254 -7.2875,-0.226607 -8.25,-0.79969 z m 24,0 C 104.14337,70.985986 104,68.360758 104,39.899283 V 8.8979467 l 3.46788,-1.4489733 c 4.26065,-1.7802124 9.57586,-1.869412 11.8564,-0.1989734 1.55702,1.1404794 1.68329,4.053727 1.44113,33.25 L 120.5,72.5 114,72.74228 c -3.575,0.133254 -7.2875,-0.226607 -8.25,-0.79969 z m 24,0 C 128.14337,70.985986 128,68.360758 128,39.899283 V 8.8979467 l 3.46788,-1.4489733 c 4.26065,-1.7802124 9.57586,-1.869412 11.8564,-0.1989734 1.55702,1.1404794 1.68329,4.053727 1.44113,33.25 L 144.5,72.5 138,72.74228 c -3.575,0.133254 -7.2875,-0.226607 -8.25,-0.79969 z M 534.18011,70.160801 C 532.43105,68.599241 531,66.982719 531,66.56853 c 0,-0.414189 -0.9,-1.897236 -2,-3.295659 -1.7351,-2.205825 -2,-4.056784 -2,-13.974882 V 37.865696 l -3.5,-3.300925 c -2.57555,-2.429057 -3.5,-4.141632 -3.5,-6.483875 0,-2.692439 0.53937,-3.408312 3.5,-4.645343 3.21452,-1.343111 3.50125,-1.807956 3.51531,-5.698973 0.0233,-6.43507 0.94195,-7.23658 8.29452,-7.23658 7.93179,0 9.69017,1.269247 9.69017,6.994636 0,4.189854 0.0568,4.258827 4.02893,4.894 3.02371,0.483509 4.32243,1.288417 5.20528,3.226055 1.70848,3.7497 -1.55801,9.665375 -5.73421,10.384756 l -3,0.516773 -0.28275,11.24189 L 544.9345,59 h 3.46017 C 552.69202,59 556,62.740471 556,67.599675 556,72.01011 553.93709,73 544.74585,73 c -6.69992,0 -7.68089,-0.263602 -10.56574,-2.839199 z M 561.75,71.94259 C 560.16426,70.998419 560,68.74171 560,47.899283 V 24.897947 l 3.46788,-1.448974 c 4.26088,-1.780307 9.57496,-1.869351 11.85968,-0.198724 1.54435,1.129256 1.68381,3.572836 1.44113,25.25 L 576.5,72.5 570,72.74228 c -3.575,0.133254 -7.2875,-0.226607 -8.25,-0.79969 z m 24,0 C 584.16426,70.998419 584,68.74171 584,47.899283 V 24.897947 l 3.46788,-1.448974 c 4.99088,-2.085322 10.13597,-1.845118 12.56783,0.586741 1.83057,1.830565 2.19048,1.880953 3.57143,0.5 0.84465,-0.844643 2.29107,-1.538486 3.21429,-1.541875 0.92321,-0.0034 2.96751,-0.678388 4.54288,-1.5 3.60826,-1.881841 5.66312,-1.881841 9.27138,0 1.57537,0.821612 3.5861,1.496612 4.46829,1.5 2.45539,0.0094 6.10329,3.937492 9.14602,9.848447 2.66714,5.181324 2.75,5.830625 2.75,21.55 0,11.272667 -0.36539,16.573099 -1.2,17.407714 -1.58053,1.580533 -14.01947,1.580533 -15.6,0 C 619.36495,70.964949 619,65.648961 619,54.320324 V 38.040648 l -3.96016,-2.020324 C 612.86175,34.909146 610.69275,34 610.21984,34 c -0.47292,0 -2.72954,1.600395 -5.01473,3.556433 l -4.1549,3.556433 -0.2751,15.693567 L 600.5,72.5 594,72.74228 c -3.575,0.133254 -7.2875,-0.226607 -8.25,-0.79969 z m 164,0 C 748.16426,70.998419 748,68.74171 748,47.899283 V 24.897947 l 3.46788,-1.448974 c 4.99088,-2.085322 10.13597,-1.845118 12.56783,0.586741 1.83057,1.830565 2.19048,1.880953 3.57143,0.5 0.84465,-0.844643 2.29107,-1.538486 3.21429,-1.541875 0.92321,-0.0034 2.96751,-0.678388 4.54288,-1.5 3.60826,-1.881841 5.66312,-1.881841 9.27138,0 1.57537,0.821612 3.61719,1.496612 4.53739,1.5 2.05835,0.0076 7.82692,5.619566 7.82692,7.614469 0,0.799954 0.675,1.713483 1.5,2.030066 1.26377,0.484955 1.5,3.708429 1.5,20.468615 L 800,73 h -7.3 c -4.34444,0 -7.78584,-0.485845 -8.5,-1.2 C 783.36495,70.964949 783,65.648961 783,54.320324 V 38.040648 l -3.96016,-2.020324 C 776.86175,34.909146 774.69275,34 774.21984,34 c -0.47292,0 -2.72954,1.600395 -5.01473,3.556433 l -4.1549,3.556433 -0.2751,15.693567 L 764.5,72.5 758,72.74228 c -3.575,0.133254 -7.2875,-0.226607 -8.25,-0.79969 z M 83.442036,16.259295 C 81.541571,14.895342 79,10.595456 79,8.7441604 79,5.7081671 85.506216,0 88.966667,0 90.635,0 92,0.46113788 92,1.0247508 c 0,0.563613 1.100793,1.4432717 2.446207,1.9547971 3.121083,1.1866337 4.33513,6.6136532 2.390366,10.6853931 -1.215794,2.545502 -1.914938,2.861542 -6.845333,3.094354 -3.020182,0.142613 -5.967324,-0.08239 -6.549204,-0.5 z m 480.000004,0 C 561.54157,14.895342 559,10.595456 559,8.7441604 559,5.7081671 565.50622,0 568.96667,0 570.635,0 572,0.46113788 572,1.0247508 c 0,0.563613 1.10079,1.4432717 2.44621,1.9547971 3.12108,1.1866337 4.33513,6.6136532 2.39036,10.6853931 -1.21579,2.545502 -1.91493,2.861542 -6.84533,3.094354 -3.02018,0.142613 -5.96732,-0.08239 -6.5492,-0.5 z"
       style="fill:#a1a5a7" />
    <path
       id="path20"
       d="M 169.55285,71.18355 C 163.9759,70.720418 158.4297,66.028658 155.4234,59.230869 150.41869,47.914337 153.26082,34.303603 162.08706,27.319151 166.01131,24.213779 166.77515,24 173.94645,24 c 6.60571,0 8.13328,0.345494 11.05355,2.5 4.06095,2.996077 5.66128,3.142584 6.47068,0.592381 0.80801,-2.545808 2.88649,-3.218809 7.60879,-2.463683 L 203,25.255616 V 48.127808 71 h -5.48095 c -5.01235,0 -5.53459,-0.213737 -6.10841,-2.5 -0.3451,-1.375 -0.74872,-2.5 -0.89692,-2.5 -1.12861,0 -7.40113,3.132507 -7.6721,3.831458 -0.40961,1.056553 -7.79675,1.808172 -13.28877,1.352092 z m 14.2235,-10.694136 c 2.65112,-0.533971 3.7484,-1.591439 5.75,-5.541413 3.00483,-5.92975 3.05951,-7.715378 0.42384,-13.842147 -1.58581,-3.686322 -2.90686,-5.143038 -5.83602,-6.435382 -4.75666,-2.098635 -7.45963,-2.103951 -12.17408,-0.02394 C 167.84884,36.451585 164,42.630141 164,47.392775 c 0,4.14666 4.64187,12.493372 7.25824,13.051306 5.5433,1.182094 6.32825,1.2838 7.74176,1.003104 0.825,-0.163829 2.97436,-0.594826 4.77635,-0.957771 z m 81.7765,10.694136 C 259.9759,70.720418 254.4297,66.028658 251.4234,59.230869 246.41869,47.914337 249.26082,34.303603 258.08706,27.319151 262.01131,24.213779 262.77515,24 269.94645,24 c 6.60571,0 8.13328,0.345494 11.05355,2.5 6.12928,4.52204 7,3.405678 7,-8.974799 0,-9.3856358 0.45386,-9.9559809 7.07947,-8.8965029 L 299,9.2556164 V 40.127808 71 h -5.48095 c -5.01235,0 -5.53459,-0.213737 -6.10841,-2.5 -0.3451,-1.375 -0.74872,-2.5 -0.89692,-2.5 -1.12861,0 -7.40113,3.132507 -7.6721,3.831458 -0.40961,1.056553 -7.79675,1.808172 -13.28877,1.352092 z m 14.2235,-10.694136 c 2.65112,-0.533971 3.7484,-1.591439 5.75,-5.541413 3.00483,-5.92975 3.05951,-7.715378 0.42384,-13.842147 -1.58581,-3.686322 -2.90686,-5.143038 -5.83602,-6.435382 -4.75666,-2.098635 -7.45963,-2.103951 -12.17408,-0.02394 C 263.84884,36.451585 260,42.630141 260,47.392775 c 0,4.14666 4.64187,12.493372 7.25824,13.051306 5.5433,1.182094 6.32825,1.2838 7.74176,1.003104 0.825,-0.163829 2.97436,-0.594826 4.77635,-0.957771 z M 371.5,71.100852 C 363.19127,69.436746 354.38724,61.242148 351.67957,52.652433 347.51396,39.437587 351.42546,22.959372 360.40449,15.896468 366.10068,11.415846 385.5813,7.8954755 387.5,11 c 0.33992,0.55 1.62783,1 2.86201,1 C 395.35178,12 407,23.936762 407,29.050132 407,30.714677 406.29186,31 402.16063,31 c -4.36244,0 -5.2041,-0.394207 -8.5403,-4 -2.03552,-2.2 -4.3027,-4 -5.03819,-4 -0.73549,0 -1.89745,-0.675 -2.58214,-1.5 -0.83801,-1.009735 -3.09317,-1.5 -6.89983,-1.5 -5.23008,0 -6.01708,0.319302 -10.47518,4.25 -7.3696,6.49775 -9.35303,14.591018 -6.0504,24.688229 0.87332,2.67004 3.09518,6.287842 4.98887,8.123283 2.91886,2.829071 4.28125,3.371969 9.38897,3.741428 7.96971,0.576477 9.7821,-0.0033 14.88142,-4.76013 C 395.66515,52.468804 396.73094,52 401.02484,52 c 2.67142,0 5.11389,0.415453 5.42771,0.92323 0.6477,1.04799 -2.82791,7.437358 -5.90329,10.8523 -5.06724,5.626738 -19.43736,9.250434 -29.04926,7.325322 z m 62.05285,0.0827 C 427.9759,70.720418 422.4297,66.028658 419.4234,59.230869 414.41869,47.914337 417.26082,34.303603 426.08706,27.319151 430.01131,24.213779 430.77515,24 437.94645,24 c 6.60571,0 8.13328,0.345494 11.05355,2.5 4.06095,2.996077 5.66128,3.142584 6.47068,0.592381 0.80801,-2.545808 2.88649,-3.218809 7.60879,-2.463683 L 467,25.255616 V 48.127808 71 h -5.48095 c -5.01235,0 -5.53459,-0.213737 -6.10841,-2.5 -0.3451,-1.375 -0.74872,-2.5 -0.89692,-2.5 -1.12861,0 -7.40113,3.132507 -7.6721,3.831458 -0.40961,1.056553 -7.79675,1.808172 -13.28877,1.352092 z m 14.2235,-10.694136 c 2.65112,-0.533971 3.7484,-1.591439 5.75,-5.541413 3.00483,-5.92975 3.05951,-7.715378 0.42384,-13.842147 -1.58581,-3.686322 -2.90686,-5.143038 -5.83602,-6.435382 -4.75666,-2.098635 -7.45963,-2.103951 -12.17408,-0.02394 C 431.84884,36.451585 428,42.630141 428,47.392775 c 0,4.14666 4.64187,12.493372 7.25824,13.051306 5.5433,1.182094 6.32825,1.2838 7.74176,1.003104 0.825,-0.163829 2.97436,-0.594826 4.77635,-0.957771 z M 491.5,71.106818 c -3.77028,-0.791633 -10.49797,-4.925518 -10.50616,-6.455594 -0.003,-0.633173 -0.6352,-2.356914 -1.40402,-3.830535 C 477.83461,57.456448 478.31296,57 483.59386,57 c 3.66603,0 4.66967,0.496357 7.19263,3.557139 2.7745,3.365958 3.2176,3.540632 8.2442,3.25 4.83923,-0.279798 5.39636,-0.561166 6.25858,-3.160772 1.489,-4.489308 -1.61929,-7.871816 -8.5057,-9.256078 -3.03631,-0.610342 -6.14224,-1.510342 -6.90207,-2 -0.75982,-0.489659 -2.94619,-1.351815 -4.85859,-1.915901 -2.82838,-0.834264 -3.83762,-1.895513 -5.40946,-5.688206 -1.84267,-4.44616 -1.85414,-4.862741 -0.24726,-8.974387 C 482.08974,25.842838 484.81057,24.5 496.20742,24.5 h 9.70741 l 4.54259,4.458208 C 513.69818,32.138778 515,34.216491 515,36.208208 515,38.852293 514.76078,39 510.47856,39 c -3.88756,0 -4.68592,-0.360997 -5.69468,-2.574996 -2.08752,-4.581609 -8.5257,-6.682825 -13.09962,-4.2753 -4.89573,2.576911 -4.87259,5.779735 0.0657,9.098301 2.07088,1.391638 5.9561,2.798119 8.67692,3.14112 2.7098,0.341612 5.6348,1.240583 6.5,1.997713 0.86519,0.75713 2.59757,1.688957 3.84972,2.070725 3.91364,1.193228 5.51369,4.851851 5.03232,11.506745 -0.3686,5.095885 -0.84388,6.279218 -3.3107,8.242879 -1.58417,1.261047 -3.80684,2.585457 -4.93928,2.943133 -2.5853,0.816556 -12.08538,0.790821 -16.05898,-0.0435 z m 168,0 c -3.77028,-0.791633 -10.49797,-4.925518 -10.50616,-6.455594 -0.003,-0.633173 -0.6352,-2.356914 -1.40402,-3.830535 C 645.83461,57.456448 646.31296,57 651.59386,57 c 3.66603,0 4.66967,0.496357 7.19263,3.557139 2.7745,3.365958 3.2176,3.540632 8.2442,3.25 4.83923,-0.279798 5.39636,-0.561166 6.25858,-3.160772 1.489,-4.489308 -1.61929,-7.871816 -8.5057,-9.256078 -3.03631,-0.610342 -6.14224,-1.510342 -6.90207,-2 -0.75982,-0.489659 -2.94619,-1.351815 -4.85859,-1.915901 -2.82838,-0.834264 -3.83762,-1.895513 -5.40946,-5.688206 -1.84267,-4.44616 -1.85414,-4.862741 -0.24726,-8.974387 C 650.08974,25.842838 652.81057,24.5 664.20742,24.5 h 9.70741 l 4.54259,4.458208 C 681.69818,32.138778 683,34.216491 683,36.208208 683,38.852293 682.76078,39 678.47856,39 c -3.88756,0 -4.68592,-0.360997 -5.69468,-2.574996 -2.08752,-4.581609 -8.5257,-6.682825 -13.09962,-4.2753 -4.89573,2.576911 -4.87259,5.779735 0.0657,9.098301 2.07088,1.391638 5.9561,2.798119 8.67692,3.14112 2.7098,0.341612 5.6348,1.240583 6.5,1.997713 0.86519,0.75713 2.59757,1.688957 3.84972,2.070725 3.91364,1.193228 5.51369,4.851851 5.03232,11.506745 -0.3686,5.095885 -0.84388,6.279218 -3.3107,8.242879 -1.58417,1.261047 -3.80684,2.585457 -4.93928,2.943133 -2.5853,0.816556 -12.08538,0.790821 -16.05898,-0.0435 z m 53.21134,0.08681 C 701.88603,70.501045 693,59.74748 693,47.339638 c 0,-5.671593 3.0246,-13.189657 6.65552,-16.54322 C 706.98238,24.029241 705.63491,24.5 717.67793,24.5 c 9.20349,0 11.49997,0.30413 13.00009,1.72164 1.00209,0.946901 3.26509,3.050283 5.0289,4.674181 2.32303,2.138765 3.68601,4.750542 4.94518,9.476031 1.64818,6.185437 1.64882,6.902867 0.0123,13.844492 C 738.97917,61.364836 734.70146,68 731.77805,68 c -0.61631,0 -1.831,0.619782 -2.69931,1.377293 -1.72568,1.505487 -8.85683,2.29685 -16.3674,1.816337 z m 13.87858,-12.496059 c 0.59945,-0.658664 1.86018,-3.298426 2.80161,-5.866138 1.59487,-4.349944 1.60058,-5.050763 0.0837,-10.268641 -1.40351,-4.827901 -2.16351,-5.873276 -5.51177,-7.581433 -7.44972,-3.800565 -14.26976,-1.662825 -17.9028,5.611632 -2.69292,5.392043 -2.59924,8.410653 0.44758,14.423269 2.42366,4.782865 3.08666,5.243349 8.99176,6.245182 2.81655,0.477843 9.7886,-1.13402 11.08992,-2.563871 z M 4.2348954,41.75 4.5,12.5 11.250615,12.204296 c 6.577616,-0.288126 6.778389,-0.224058 7.834396,2.5 0.59608,1.537637 1.720804,4.069672 2.499386,5.626744 0.778581,1.557071 1.419717,3.357071 1.424746,4 0.005,0.642928 1.115956,3.41896 2.468728,6.16896 1.352771,2.75 2.473657,5.7324 2.490857,6.627555 0.0172,0.895156 0.650117,2.141151 1.406483,2.768879 0.756365,0.627728 1.666642,2.963839 2.022837,5.191359 C 31.99247,48.805105 35.903374,54 38.107479,54 c 0.448488,0 1.271716,-1.6875 1.829395,-3.75 0.557679,-2.0625 1.925024,-5.532649 3.038544,-7.711442 1.11352,-2.178793 2.038894,-4.653793 2.056385,-5.5 0.01749,-0.846207 0.692492,-2.412066 1.5,-3.479688 C 47.339312,32.491249 48,30.909585 48,30.044061 c 0,-0.865523 0.868158,-3.193473 1.929239,-5.173221 1.061081,-1.979748 2.23845,-5.247778 2.616375,-7.262289 0.870116,-4.63812 3.037156,-5.78359 10.230438,-5.407678 L 68.5,12.5 68.765105,41.75 69.030209,71 H 63.515105 58 L 57.90032,57.25 C 57.79049,42.099879 57.225101,38.667032 54.761569,38.192599 53.552854,37.959822 52.820482,39.029511 52.026528,42.187348 51.430162,44.559306 50.332185,47.625 49.586578,49 c -0.745607,1.375 -1.684571,4.075 -2.086586,6 -0.402016,1.925 -1.171838,4.047755 -1.710716,4.717234 -0.538878,0.669479 -1.526791,3.369479 -2.195362,6 L 42.378332,70.5 37.335101,70.797198 C 32.990974,71.053199 32.081888,70.773921 30.777079,68.782531 29.943943,67.511005 28.952171,65.058719 28.57314,63.333006 28.19411,61.607293 27.010096,58.481244 25.941997,56.386231 24.873899,54.291218 24,51.954196 24,51.19285 24,50.431504 23.369384,48.614153 22.598631,47.154292 21.827879,45.694431 20.684815,42.5875 20.05849,40.25 19.432165,37.9125 18.476643,36 17.935108,36 15.834772,36 15,41.706704 15,56.0651 V 71 H 9.4848954 3.9697909 Z M 84,48.106989 C 84,22.548072 83.727131,23.453012 91.079468,24.628698 L 95,25.255616 V 48.127808 71 H 89.5 84 Z m 24,-8 C 108,5.6421201 107.5974,7.4322665 115.07947,8.6286981 L 119,9.2556164 V 40.127808 71 h -5.5 -5.5 z m 24,0 C 132,5.6421201 131.5974,7.4322665 139.07947,8.6286981 L 143,9.2556164 V 40.127808 71 h -5.5 -5.5 z m 84,8 c 0,-25.54827 -0.26873,-24.653315 7.05121,-23.482809 2.57498,0.411756 4.09386,1.257548 4.48792,2.49911 0.76595,2.413285 3.27409,2.395288 5.89642,-0.04231 1.13545,-1.055461 3.73176,-2.226754 5.76958,-2.602873 3.36753,-0.621542 3.76189,-0.457697 4.32808,1.798192 0.34262,1.365124 0.47532,3.766576 0.29487,5.336559 -0.29624,2.577499 -0.83636,2.953144 -5.56569,3.870829 -3.46607,0.672561 -6.17195,1.953191 -8,3.78621 -2.72543,2.732837 -2.76672,2.963622 -3.08616,17.25 L 226.85245,71 H 221.42623 216 Z M 535.71061,68.482483 C 531.62971,64.891797 530,59.171853 530,48.439373 c 0,-10.065395 -0.99577,-14.047683 -4.04703,-16.184865 -2.87199,-2.011625 -2.57997,-6.647799 0.50734,-8.054472 1.9634,-0.894585 2.59295,-2.120792 3.11698,-6.07117 0.6178,-4.657155 0.85727,-4.987808 4.04555,-5.585932 4.80127,-0.900724 6.68854,0.570204 7.86105,6.126837 0.9615,4.556669 1.21713,4.849015 4.51365,5.161934 4.51062,0.428165 6.17664,1.877175 5.80302,5.047131 -0.23789,2.018283 -1.02538,2.697139 -3.7765,3.255506 C 542.40215,33.275367 541,35.935759 541,45.461561 c 0,11.216932 1.16421,14.236295 5.99031,15.535829 C 551.04755,62.089893 552,63.436784 552,68.081787 V 71 l -6.75,-0.0316 c -5.71609,-0.02676 -7.17726,-0.407534 -9.53939,-2.485917 z M 564,48.106989 c 0,-25.558917 -0.27287,-24.653977 7.07947,-23.478291 L 575,25.255616 V 48.127808 71 h -5.5 -5.5 z m 24,0 c 0,-20.262638 0.18777,-22.965066 1.63424,-23.520129 2.69331,-1.03352 8.67193,0.569961 10.49285,2.814209 L 601.8301,29.5 604.49561,27 c 2.42852,-2.277717 3.45274,-2.5 11.51929,-2.5 8.30962,0 9.0313,0.170083 11.74229,2.767375 C 632.53291,31.842804 634,38.557011 634,55.837892 V 71 H 628.5 623 V 57.122124 c 0,-15.533048 -1.03514,-19.586829 -5.88297,-23.038793 -4.53033,-3.225876 -9.41236,-2.755542 -13.88172,1.337361 L 599.5,38.841383 599.18119,54.920692 598.86238,71 H 593.43119 588 Z m 164,0 c 0,-20.262638 0.18777,-22.965066 1.63424,-23.520129 2.69331,-1.03352 8.67193,0.569961 10.49285,2.814209 L 765.8301,29.5 768.49561,27 c 2.42852,-2.277717 3.45274,-2.5 11.51929,-2.5 8.36088,0 9.01854,0.157854 11.81342,2.835521 1.62781,1.559536 3.52731,4.863003 4.22111,7.341036 0.69381,2.478034 1.86652,4.737694 2.60602,5.021468 C 799.69763,40.097948 800,43.539129 800,55 c 0,16.672911 0.3399,16 -8.08179,16 H 787 V 57.122124 c 0,-15.533048 -1.03514,-19.586829 -5.88297,-23.038793 -4.53033,-3.225876 -9.41236,-2.755542 -13.88172,1.337361 L 763.5,38.841383 763.18119,54.920692 762.86238,71 H 757.43119 752 Z M 83.59341,12.180635 C 80.766151,6.7133198 85.442894,2.639423 92.510236,4.4132132 95.225043,5.0945863 96.396438,8.8270885 95.026385,12.430602 94.177129,14.664316 93.461712,15 89.550431,15 85.626933,15 84.864843,14.639314 83.59341,12.180635 Z m 480,0 c -2.82726,-5.4673152 1.84948,-9.541212 8.91683,-7.7674218 2.7148,0.6813731 3.8862,4.4138753 2.51615,8.0173888 C 574.17713,14.664316 573.46171,15 569.55043,15 c -3.9235,0 -4.68559,-0.360686 -5.95702,-2.819365 z"
       style="fill:#253f50" />
  </g>
</svg>
